<?xml version="1.0" encoding="utf-8"?>
<!-- Generator: Adobe Illustrator 19.2.1, SVG Export Plug-In . SVG Version: 6.00 Build 0)  -->
<svg version="1.1" id="Ebene_1" xmlns="http://www.w3.org/2000/svg" xmlns:xlink="http://www.w3.org/1999/xlink" x="0px" y="0px"
	 viewBox="0 0 396.9 230.3" style="enable-background:new 0 0 396.9 230.3;" xml:space="preserve">
<style type="text/css">
	.st0{clip-path:url(#SVGID_2_);fill:#E73741;}
	.st1{clip-path:url(#SVGID_4_);fill:none;stroke:#E73741;stroke-width:4;stroke-linecap:round;stroke-miterlimit:10;}
	.st2{clip-path:url(#SVGID_4_);fill:#283583;}
</style>
<g>
	<defs>
		<rect id="SVGID_1_" x="92.5" y="43.2" width="214.3" height="77.7"/>
	</defs>
	<clipPath id="SVGID_2_">
		<use xlink:href="#SVGID_1_"  style="overflow:visible;"/>
	</clipPath>
	<path class="st0" d="M110,110.5c1.5-0.8,2.8-1.7,3.9-2.7c1.1-1,2.1-2.2,2.7-3.5c0.7-1.3,1-2.7,1-4.3c0-1-0.2-1.9-0.5-2.8
		c-0.4-0.9-0.9-1.6-1.5-2.3c-0.6-0.6-1.4-1.1-2.3-1.5c-0.9-0.4-1.8-0.5-2.8-0.5c-1.8,0-3.4,0.5-4.9,1.6c-1.5,1.1-2.8,2.4-4,4.1
		c-1.2,1.7-2.2,3.5-3.1,5.4c-0.9,2-1.6,3.8-2.1,5.6c0-2.3,0.1-4.9,0.1-7.9c0-3,0.1-6.1,0.1-9.4c0.1-3.3,0.1-6.7,0.2-10.1
		c0.1-3.5,0.1-6.8,0.2-10.1c0.1-3.3,0.1-6.4,0.2-9.3c0.1-2.9,0.1-5.4,0.1-7.6c0-2.2,0.1-3.9,0.1-5.2c0-1.3,0-2,0-2
		c0-0.6-0.2-1.1-0.6-1.4c-0.4-0.4-0.8-0.5-1.4-0.5c-0.5,0-0.9,0.2-1.4,0.5c-0.4,0.4-0.6,0.8-0.6,1.4c0,0.3,0,1.1,0,2.6
		c0,1.4,0,3.3-0.1,5.6c0,2.3-0.1,4.9-0.1,7.8c-0.1,2.9-0.1,6-0.1,9.3c0,3.3-0.1,6.6-0.2,10c-0.1,3.4-0.1,6.8-0.2,10
		c0,3.2-0.1,6.3-0.1,9.2c-0.1,2.9-0.1,5.4-0.1,7.7c0,2.2-0.1,4-0.1,5.4c0,1.4,0,2.2,0,2.4c0,1,0.2,1.8,0.7,2.2
		c0.5,0.4,1,0.6,1.5,0.6c0.6,0,1-0.1,1.3-0.4c0.3-0.3,0.6-0.6,0.9-1c0.2-0.4,0.4-0.8,0.5-1.3c0.1-0.4,0.2-0.9,0.3-1.2
		c0.3-1.2,0.7-2.6,1.2-4.1c0.5-1.5,1-2.9,1.7-4.4c0.6-1.5,1.3-2.9,2.1-4.3c0.8-1.4,1.6-2.6,2.4-3.6c0.8-1.1,1.7-1.9,2.6-2.5
		c0.9-0.6,1.8-1,2.7-1c0.9,0,1.7,0.3,2.3,0.9c0.6,0.6,0.9,1.4,0.9,2.3c0,1.1-0.2,2.1-0.7,3c-0.5,0.9-1.2,1.8-2,2.5
		c-0.9,0.8-1.9,1.4-3.1,2c-1.2,0.6-2.5,1.1-3.9,1.5c-0.5,0.2-0.9,0.4-1.2,0.6c-0.3,0.3-0.5,0.5-0.7,0.8c-0.2,0.3-0.3,0.6-0.3,0.8
		c0,0.2-0.1,0.4-0.1,0.6c0,1.1,0.3,2.1,0.9,3.1c0.6,1,1.3,1.9,2.3,2.7c1,0.8,2.2,1.5,3.5,1.9c1.4,0.5,2.8,0.7,4.4,0.7
		c2,0,3.9-0.4,5.8-1.1c1.9-0.7,3.7-1.8,5.4-3.2c1.7-1.4,3.3-3.1,4.8-5.1c1.5-2,2.8-4.2,4-6.8c0.1-0.3,0.2-0.6,0.2-0.8
		c0-0.5-0.2-0.9-0.5-1.3c-0.4-0.4-0.8-0.6-1.4-0.6c-0.4,0-0.7,0.1-1,0.3c-0.3,0.2-0.6,0.5-0.7,0.9c-1.6,3.5-3.3,6.1-5,8
		c-1.7,1.9-3.4,3.3-4.9,4.2c-1.5,0.9-2.9,1.4-4.1,1.6c-1.2,0.2-2,0.2-2.5,0.2c-1.7,0-3.2-0.4-4.6-1.2c-1.3-0.8-2.3-1.8-2.9-3.1
		C107,111.9,108.5,111.3,110,110.5 M159.2,103.6c0-0.5-0.2-1-0.5-1.4c-0.4-0.4-0.8-0.6-1.4-0.6c-0.4,0-0.7,0.1-1,0.3
		c-0.3,0.2-0.6,0.5-0.7,0.8c-0.4,0.9-1.1,2.2-1.9,3.7c-0.8,1.5-1.8,3.1-2.8,4.5c-1.1,1.5-2.2,2.8-3.5,3.9c-1.3,1.1-2.6,1.6-4,1.6
		c-2,0-3.8-1.3-5.2-3.8c-1.5-2.5-2.6-6-3.5-10.3c1.9-3.5,3.8-7.1,5.4-10.9c1.7-3.7,3.2-7.4,4.4-11.2c1.2-3.7,2.2-7.4,3-11.1
		c0.7-3.7,1.1-7.3,1.1-10.7c0-2.8-0.2-5.2-0.5-7.1c-0.3-1.9-0.8-3.5-1.5-4.7c-0.6-1.2-1.4-2.1-2.3-2.6c-0.9-0.5-1.9-0.8-3.1-0.8
		c-1.5,0-2.7,0.6-3.9,1.8c-1.1,1.2-2.2,2.8-3,4.8c-0.9,2-1.6,4.3-2.3,7c-0.6,2.7-1.2,5.5-1.6,8.5c-0.4,3-0.7,6-0.9,9.1
		c-0.2,3.1-0.3,6.1-0.3,9c0,2,0.1,4.3,0.2,6.9c0.1,2.6,0.4,5.3,0.7,8c0.3,2.7,0.8,5.4,1.5,8.1c0.6,2.6,1.5,5,2.5,7.1
		c1,2.1,2.3,3.8,3.8,5c1.5,1.3,3.3,1.9,5.3,1.9c1.3,0,2.6-0.3,3.8-0.9c1.2-0.6,2.3-1.3,3.4-2.2c1.1-0.9,2-2,2.9-3.1
		c0.9-1.2,1.7-2.3,2.4-3.5c0.7-1.2,1.4-2.3,1.9-3.4c0.6-1.1,1-2,1.4-2.8C159.1,104.1,159.2,103.8,159.2,103.6 M133.3,74.8
		c0.2-2.9,0.4-5.8,0.8-8.5c0.3-2.7,0.7-5.2,1.2-7.6c0.5-2.4,1-4.4,1.6-6.1c0.6-1.7,1.2-3.1,1.9-4.1c0.7-1,1.4-1.5,2.1-1.5
		c1.1,0,2,0.9,2.6,2.6c0.7,1.8,1,4.7,1,8.8c0,2.9-0.3,6-0.9,9.2s-1.4,6.4-2.4,9.6c-1,3.2-2.2,6.4-3.5,9.6c-1.3,3.2-2.7,6.1-4.1,8.9
		c-0.2-1.9-0.3-3.8-0.4-5.9c-0.1-2-0.2-4.2-0.2-6.4C133,80.7,133.1,77.7,133.3,74.8 M165.5,110.7c1.2-0.9,2.2-1.9,3-3
		c0.8-1.1,1.5-2.2,2-3.5c0.5-1.2,0.7-2.6,0.7-4c0-1.1-0.2-2.1-0.6-3c-0.4-0.9-0.9-1.6-1.5-2.2c-0.6-0.6-1.3-1.1-2.1-1.4
		c-0.8-0.3-1.6-0.5-2.4-0.5c-1.3,0-2.6,0.3-3.7,0.9c-1.1,0.6-2.1,1.5-2.9,2.6c-0.8,1.1-1.4,2.4-1.9,3.9c-0.4,1.5-0.6,3.1-0.6,4.9
		c0,1.8,0.3,3.5,0.8,5.3c0.5,1.8,1.3,3.3,2.4,4.7c1.1,1.4,2.4,2.5,4.1,3.4c1.7,0.9,3.6,1.3,5.9,1.3c3.6-0.1,6.8-1.4,9.6-4.1
		c2.8-2.7,5.4-6.6,7.8-11.9c0.1-0.1,0.1-0.3,0.2-0.4c0-0.1,0.1-0.3,0.1-0.4c0-0.5-0.2-0.9-0.5-1.3c-0.4-0.4-0.8-0.6-1.4-0.6
		c-0.4,0-0.7,0.1-1,0.3c-0.3,0.2-0.6,0.5-0.7,0.9c-0.7,1.6-1.5,3.3-2.4,4.9c-0.9,1.6-1.9,3.1-3.1,4.4c-1.1,1.3-2.4,2.4-3.8,3.2
		c-1.4,0.8-2.9,1.2-4.6,1.2c-1.7,0-3.1-0.3-4.2-0.9c-1.1-0.6-2.1-1.4-2.8-2.4C163,112.4,164.3,111.6,165.5,110.7 M159.7,107.7
		c-0.1-0.7-0.2-1.3-0.2-2c0-1,0.1-2,0.3-3c0.2-1,0.5-1.9,0.9-2.8c0.4-0.8,1-1.5,1.6-2c0.7-0.5,1.5-0.8,2.4-0.8
		c0.7,0,1.3,0.3,1.8,0.8c0.5,0.5,0.8,1.3,0.8,2.4c0,0.9-0.2,1.9-0.5,2.8c-0.3,0.9-0.8,1.8-1.5,2.6c-0.6,0.8-1.4,1.6-2.3,2.3
		c-0.9,0.7-1.9,1.3-2.9,1.7C160,109.1,159.8,108.4,159.7,107.7 M190.7,76.2c-0.2-0.6-0.6-1.1-1-1.5c-0.4-0.4-0.9-0.8-1.5-1
		c-0.6-0.2-1.2-0.4-1.8-0.4c-0.7,0-1.3,0.1-1.8,0.4c-0.6,0.2-1.1,0.6-1.5,1s-0.8,0.9-1,1.5c-0.2,0.6-0.4,1.2-0.4,1.8
		c0,1.3,0.5,2.4,1.4,3.3c0.9,0.9,2,1.4,3.3,1.4s2.4-0.5,3.3-1.4c0.9-0.9,1.4-2,1.4-3.3C191.1,77.4,190.9,76.8,190.7,76.2
		 M183.2,113.3c0.4,1.5,1,2.8,1.8,3.9c0.8,1.1,1.8,2,3,2.6c1.2,0.7,2.5,1,4.1,1c1.2,0,2.4-0.3,3.6-0.9s2.3-1.4,3.4-2.3
		c1.1-1,2.1-2,3-3.2c1-1.2,1.8-2.4,2.6-3.6c0.8-1.2,1.5-2.4,2.1-3.5c0.6-1.1,1.1-2.1,1.6-2.9c0.1-0.2,0.2-0.5,0.2-0.9
		c0-0.5-0.2-0.9-0.5-1.3c-0.4-0.4-0.8-0.6-1.4-0.6c-0.4,0-0.7,0.1-1,0.3c-0.3,0.2-0.6,0.5-0.7,0.8c-1.1,2.1-2.2,4.1-3.3,5.8
		c-1.1,1.7-2.2,3.2-3.3,4.5c-1.1,1.2-2.2,2.2-3.2,2.9c-1,0.7-2,1-3,1c-0.6,0-1.2-0.1-1.8-0.3c-0.6-0.2-1.2-0.6-1.8-1.2
		c-0.6-0.6-1-1.5-1.4-2.6c-0.4-1.1-0.5-2.6-0.5-4.4c0-1.3,0-2.8,0.1-4.4c0.1-1.6,0.2-3.1,0.3-4.6c0.1-1.4,0.2-2.7,0.3-3.7
		c0.1-1,0.1-1.7,0.1-1.9c0-0.5-0.2-1-0.5-1.4c-0.3-0.4-0.8-0.6-1.3-0.6c-0.6,0-1.1,0.2-1.4,0.5c-0.4,0.4-0.6,0.8-0.6,1.3
		c-0.6,4.9-0.9,9.9-0.9,14.9C182.6,110.2,182.8,111.8,183.2,113.3 M187.6,79.3c-0.4,0.3-0.8,0.5-1.3,0.5s-0.9-0.2-1.2-0.5
		c-0.3-0.3-0.5-0.8-0.5-1.2c0-0.5,0.2-0.9,0.5-1.3c0.3-0.4,0.8-0.5,1.2-0.5s0.9,0.2,1.3,0.5c0.4,0.4,0.5,0.8,0.5,1.3
		C188.1,78.6,188,79,187.6,79.3 M228.1,95.7c1.1-3.1,2.2-6.5,3.2-10.2c1-3.7,1.9-7.5,2.6-11.5c0.7-4,1-8,1-12c0-1.9-0.1-3.6-0.4-5.1
		c-0.2-1.6-0.6-2.9-1.1-4c-0.5-1.1-1.2-2-1.9-2.6c-0.8-0.6-1.8-0.9-2.9-0.9c-1.3,0-2.4,0.4-3.4,1.3c-1,0.9-1.9,2.1-2.6,3.6
		c-0.7,1.5-1.4,3.3-1.9,5.3c-0.5,2-0.9,4.1-1.2,6.4c-0.3,2.2-0.5,4.5-0.7,6.8c-0.1,2.3-0.2,4.6-0.2,6.7c0,4.9,0.2,9.4,0.7,13.3
		c0.5,4,1,7.5,1.6,10.5c-1,2.6-2,4.7-2.8,6.3c-0.8,1.6-1.6,2.8-2.3,3.7c-0.7,0.9-1.4,1.4-2,1.7c-0.6,0.3-1.2,0.4-1.8,0.4
		c-1.3,0-2.4-0.5-3.1-1.5c-0.7-1-1.1-2.3-1.1-4c0-2.1,0.3-3.9,1-5.4c0.6-1.5,1.5-2.8,2.4-3.8c1-1,2.1-1.7,3.2-2.3
		c1.2-0.5,2.3-0.8,3.3-1c0.5-0.1,0.9-0.3,1.2-0.7c0.3-0.4,0.5-0.8,0.5-1.3c0-0.6-0.2-1-0.6-1.4s-0.8-0.5-1.3-0.5
		c-1.6,0-3.2,0.4-4.8,1.2s-3.1,1.9-4.4,3.3s-2.4,3.2-3.2,5.2c-0.8,2-1.2,4.2-1.2,6.6c0,1.7,0.2,3.2,0.7,4.4c0.4,1.2,1,2.2,1.8,2.9
		s1.6,1.3,2.5,1.6s2,0.5,3,0.5c2,0,3.8-0.8,5.5-2.4c1.7-1.6,3.4-4.1,5-7.7c1.2,3.7,2.6,6.4,4.3,8c1.7,1.6,3.6,2.4,6,2.4
		c1.2,0,2.4-0.3,3.6-0.9c1.1-0.6,2.2-1.4,3.2-2.3c1-0.9,1.9-2,2.7-3.2c0.8-1.2,1.6-2.3,2.3-3.5c0.7-1.1,1.2-2.2,1.7-3.2
		c0.5-1,0.8-1.8,1.1-2.4c0.1-0.2,0.2-0.4,0.2-0.7c0-0.5-0.2-0.9-0.6-1.3c-0.4-0.4-0.8-0.6-1.4-0.6c-0.9,0-1.5,0.4-1.8,1.2
		c-0.5,1.1-1.1,2.4-1.9,3.9c-0.8,1.5-1.6,2.9-2.6,4.2c-1,1.3-2,2.5-3.2,3.4c-1.1,0.9-2.3,1.4-3.6,1.4c-3.2,0-5.7-4-7.4-12
		C226,101.4,227,98.8,228.1,95.7 M230.5,70.8c-0.4,3-0.9,6-1.6,8.9c-0.7,2.9-1.5,5.8-2.4,8.6c-0.9,2.8-1.9,5.6-2.9,8.2
		c-0.3-2.4-0.6-5.1-0.8-8.1c-0.2-3-0.4-6.1-0.4-9.1c0-3.2,0.2-6.3,0.5-9.5c0.3-3.1,0.8-5.9,1.3-8.4c0.6-2.5,1.2-4.5,1.9-6
		c0.7-1.5,1.5-2.3,2.4-2.3c0.5,0,0.9,0.3,1.2,0.9c0.3,0.6,0.6,1.3,0.8,2.2c0.2,0.9,0.3,1.8,0.4,2.8c0.1,1,0.1,1.9,0.1,2.8
		C231.1,64.9,230.9,67.8,230.5,70.8 M253.7,110.7c1.2-0.9,2.2-1.9,3-3c0.8-1.1,1.5-2.2,2-3.5c0.5-1.2,0.7-2.6,0.7-4
		c0-1.1-0.2-2.1-0.6-3c-0.4-0.9-0.9-1.6-1.5-2.2c-0.6-0.6-1.3-1.1-2.1-1.4c-0.8-0.3-1.6-0.5-2.4-0.5c-1.3,0-2.6,0.3-3.7,0.9
		c-1.1,0.6-2.1,1.5-2.9,2.6c-0.8,1.1-1.4,2.4-1.9,3.9s-0.6,3.1-0.6,4.9c0,1.8,0.3,3.5,0.8,5.3c0.5,1.8,1.3,3.3,2.4,4.7
		c1.1,1.4,2.4,2.5,4.1,3.4c1.7,0.9,3.6,1.3,5.9,1.3c3.6-0.1,6.8-1.4,9.6-4.1c2.8-2.7,5.4-6.6,7.8-11.9c0.1-0.1,0.1-0.3,0.2-0.4
		c0-0.1,0.1-0.3,0.1-0.4c0-0.5-0.2-0.9-0.5-1.3c-0.4-0.4-0.8-0.6-1.4-0.6c-0.4,0-0.7,0.1-1,0.3c-0.3,0.2-0.6,0.5-0.7,0.9
		c-0.7,1.6-1.5,3.3-2.4,4.9s-1.9,3.1-3.1,4.4c-1.1,1.3-2.4,2.4-3.8,3.2c-1.4,0.8-2.9,1.2-4.6,1.2c-1.7,0-3.1-0.3-4.2-0.9
		c-1.1-0.6-2.1-1.4-2.8-2.4C251.3,112.4,252.5,111.6,253.7,110.7 M247.9,107.7c-0.1-0.7-0.2-1.3-0.2-2c0-1,0.1-2,0.3-3
		c0.2-1,0.5-1.9,0.9-2.8c0.4-0.8,1-1.5,1.6-2c0.7-0.5,1.5-0.8,2.4-0.8c0.7,0,1.3,0.3,1.8,0.8c0.5,0.5,0.8,1.3,0.8,2.4
		c0,0.9-0.2,1.9-0.5,2.8c-0.3,0.9-0.8,1.8-1.5,2.6c-0.6,0.8-1.4,1.6-2.3,2.3c-0.9,0.7-1.9,1.3-2.9,1.7
		C248.2,109.1,248.1,108.4,247.9,107.7 M278.1,97.4h1.6c1,0,1.7,0.2,1.9,0.5c0.3,0.3,0.4,0.8,0.4,1.5c0,1.6-0.2,3.2-0.5,4.9
		c-0.3,1.7-0.5,3.4-0.5,5.2c0,1.6,0.2,3.1,0.7,4.4c0.5,1.3,1.1,2.4,1.9,3.3c0.8,0.9,1.8,1.6,2.9,2c1.1,0.5,2.3,0.7,3.5,0.7
		c2,0,3.8-0.5,5.5-1.6s3.2-2.4,4.5-3.9c1.3-1.6,2.5-3.2,3.6-5c1.1-1.8,2-3.4,2.8-4.8c0.1-0.3,0.2-0.6,0.2-0.9c0-0.5-0.2-0.9-0.5-1.3
		c-0.3-0.4-0.8-0.6-1.5-0.6c-0.3,0-0.7,0.1-1,0.3c-0.3,0.2-0.6,0.4-0.7,0.7c-0.6,1.1-1.3,2.5-2.2,4c-0.9,1.5-1.9,3-3,4.3
		c-1.1,1.4-2.3,2.5-3.6,3.5c-1.3,1-2.7,1.5-4.2,1.5c-0.5,0-1-0.1-1.6-0.3c-0.6-0.2-1.1-0.5-1.7-1c-0.5-0.5-1-1.1-1.3-1.9
		c-0.3-0.8-0.5-1.8-0.5-3.1c0-0.9,0.1-1.7,0.2-2.6s0.2-1.8,0.4-2.7c0.1-0.9,0.3-1.8,0.4-2.7c0.1-0.9,0.2-1.7,0.2-2.5
		c0-2-0.5-3.4-1.6-4.3c-1-0.9-2.5-1.3-4.5-1.3c-0.5,0-1.1,0-1.6,0c-0.6,0-1.2,0-1.7,0c0-0.7-0.1-1.5-0.2-2.4
		c-0.1-0.9-0.3-1.8-0.6-2.7c-0.3-0.8-0.7-1.6-1.2-2.2c-0.5-0.6-1.2-0.9-1.9-0.9c-0.7,0-1.4,0.4-2.1,1.1c-0.7,0.7-1.3,1.5-1.9,2.5
		c-0.6,1-1,2-1.3,3c-0.3,1-0.5,1.8-0.5,2.4c0,0.8,0.2,1.4,0.5,1.9c0.3,0.5,0.8,0.8,1.3,1c0.5,0.2,1.1,0.3,1.7,0.4
		c0.6,0,1.2,0.1,1.8,0.1c-0.3,1.5-0.6,2.6-0.8,3.4c-0.2,0.7-0.4,1.2-0.5,1.6c-0.1,0.3-0.2,0.5-0.3,0.6c-0.1,0.1-0.1,0.3-0.1,0.5
		c0,0.6,0.2,1,0.6,1.4c0.4,0.4,0.9,0.5,1.3,0.5c0.9,0,1.5-0.4,1.8-1.2c0,0,0.1-0.2,0.3-0.6c0.1-0.4,0.3-0.9,0.5-1.5
		c0.2-0.6,0.4-1.3,0.6-2.1c0.2-0.8,0.4-1.7,0.5-2.6C276.9,97.4,277.5,97.4,278.1,97.4 M270.5,93.6c0.1-0.3,0.2-0.6,0.3-1
		c0.1-0.4,0.3-0.8,0.5-1.2c0.2-0.4,0.3-0.7,0.5-0.9c0.2-0.3,0.3-0.4,0.4-0.4c0.1,0,0.2,0.1,0.3,0.4s0.2,0.6,0.2,1
		c0.1,0.4,0.1,0.8,0.1,1.2c0,0.4,0,0.7,0,1H270.5z"/>
</g>
<g>
	<defs>
		<rect id="SVGID_3_" x="30.2" y="43.2" width="340" height="148.5"/>
	</defs>
	<clipPath id="SVGID_4_">
		<use xlink:href="#SVGID_3_"  style="overflow:visible;"/>
	</clipPath>
	<path class="st1" d="M305,102.8c3.7-5.6,6.3-6.7,10.1-9.4c5.3-3.8,13.1-2,18.3,2c5.2,4,8.8,9.7,13.2,14.6
		c5.8,6.4,13.3,11.3,21.4,14.2 M95.7,115.7c-2.5,10.6-11,19.1-20.7,24.2c-9.7,5.1-20.6,7.3-31.3,9.4c-3.8,0.8-7.5,1.5-11.4,1.5"/>
	<path class="st2" d="M292.8,142.4c-0.4-2.4-0.8-4.6-1-7.1c-2.9-1.2-5.3-1.6-7.1-1.6c-9.1,0-14.1,6.7-14.1,16.9
		c0,11.2,5.5,17,13.1,17c2.8,0,6.6-1,9.3-3.8V158c0-2.1,0.2-2.2,2.8-2.2v-1.4h-9.7v1.4c3.3,0,3.6,0.2,3.6,2.6v5.3
		c-1.7,1.4-3.6,2.2-5.6,2.2c-5.4,0-9.5-5.1-9.5-15.5c0-9.3,3.9-14.9,9.9-14.9c5.3,0,5.9,2.7,6.7,7.3L292.8,142.4z M238.6,134.4v1.4
		c3.3,0,3.5,0.2,3.5,3.4v22.9c0,3.2-0.3,3.4-3.5,3.4v1.4h8.8v-1.4c-3.1,0-3.4-0.3-3.4-3.4V138h0.1l16.8,29.4h2.7v-28.2
		c0-3.2,0.4-3.4,3.3-3.4v-1.4h-8.8v1.4c3.2,0,3.6,0.3,3.6,3.4v23.1h-0.1l-15.8-27.9H238.6z M215.3,139.2c0-3.3,0.2-3.4,3.2-3.4v-1.4
		h-10.2v1.4c3,0,3.2,0.3,3.2,3.4v16.7c0,5,0.7,11.7,10.9,11.7c6.3,0,10.3-3.2,10.3-11.2v-17.2c0-3.2,0.2-3.4,3.1-3.4v-1.4h-8.3v1.4
		c3,0,3.2,0.2,3.2,3.4v16.6c0,2.8,0,9.7-7.6,9.7c-7.3,0-7.8-6.2-7.8-9.8V139.2z M176.9,134.4v1.4c3.3,0,3.5,0.2,3.5,3.4v22.9
		c0,3.2-0.3,3.4-3.5,3.4v1.4h8.8v-1.4c-3.1,0-3.4-0.3-3.4-3.4V138h0.1l16.8,29.4h2.7v-28.2c0-3.2,0.4-3.4,3.3-3.4v-1.4h-8.8v1.4
		c3.2,0,3.6,0.3,3.6,3.4v23.1h-0.1l-15.8-27.9H176.9z M158.7,136.1c3.4,0,6.2,0.9,8.1,3.4c2.1,2.8,2.9,6.4,2.9,11.4
		c0,10.4-4.9,14.4-11.8,14.4h-2.1c-1.3,0-1.5-0.3-1.5-2.4V138c0-1.5,0.2-1.9,1.4-1.9H158.7z M158,167c9,0,15.5-4,15.5-16.7
		c0-5-1.1-9.3-4-12.3c-2.6-2.6-5.7-3.7-10.6-3.7H147v1.4c3.2,0,3.5,0.3,3.5,3.4v22.9c0,3.2-0.3,3.4-3.5,3.4v1.4H158z M130.8,136.1
		c5.8,0,7.9,2.9,7.9,6.6c0,5.5-3.5,7.4-8.8,7.4h-3.1v-11.2c0-2.4,0.1-2.8,1.1-2.8H130.8z M119.6,134.4v1.4c3.2,0,3.5,0.3,3.5,3.4
		v22.9c0,3.2-0.3,3.5-3.5,3.5v1.4h10.7v-1.4c-3.3,0-3.5-0.2-3.5-3.4v-10.3h4.1l8.6,15.1h5.9v-1.4c-2.1,0-2.7-0.4-4.4-3.1l-6.5-11.1
		c4.3-0.6,8.1-3.6,8.1-8.6c0-2.9-1.1-4.9-3-6.3c-2.2-1.6-4.7-2.1-8.6-2.1H119.6z M102.2,135.4c2.6,0,5.1,1,6.9,3.2
		c1.8,2.3,2.9,6,2.9,12.1c0,5.1-1,9.3-2.9,12c-1.6,2-4.2,3.3-6.9,3.3c-2.7,0-5.3-1.3-6.9-3.3c-1.9-2.7-2.9-6.9-2.9-12
		c0-6.1,1.1-9.8,3-12.1C97,136.5,99.5,135.4,102.2,135.4 M102.2,167.7c8.8,0,13.7-5.7,13.7-17c0-11.1-5-17-13.7-17
		c-8.1,0-13.7,5.1-13.7,17C88.5,159.6,91.7,167.7,102.2,167.7"/>
	<path class="st2" d="M294.1,187.8h3.3v-0.4c-1,0-1-0.1-1-1.1v-9.8l-0.1-0.1c-0.7,0.4-1.2,0.6-2.1,0.7v0.4c1,0,1.1,0.1,1.1,1v7.8
		c0,1,0,1.1-1.1,1.1V187.8z M292.3,180.2c-0.7,0.4-1.2,0.6-2.1,0.7v0.4c1,0,1.1,0,1.1,1v4c0,1-0.1,1.1-1.1,1.1v0.4h3.2v-0.4
		c-1,0-1-0.1-1-1.1v-6L292.3,180.2z M291.8,177.4c-0.4,0-0.7,0.3-0.7,0.9c0,0.6,0.3,0.9,0.7,0.9c0.4,0,0.7-0.3,0.7-0.9
		C292.5,177.8,292.2,177.4,291.8,177.4 M286.1,180.9v5.3c0,1.4,0.9,1.8,1.8,1.8c0.7,0,1.3-0.2,1.8-0.6l-0.2-0.4
		c-0.4,0.3-0.8,0.4-1.2,0.4c-0.6,0-0.9-0.4-0.9-1.3v-5.2h2v-0.5h-2v-2.1h-0.4c-0.3,1.5-0.6,2.1-1.8,2.2v0.4H286.1z M277.7,185.2
		c0.2,0.6,0.3,1.3,0.4,2.3c0.8,0.3,1.7,0.5,2.5,0.5c2.3,0,3.5-1.3,3.5-3c0-0.8-0.2-1.3-0.6-1.8c-0.4-0.6-1.2-1-2.4-1.8
		c-1.5-1-2.1-1.4-2.1-2.5c0-1.1,1-1.7,2-1.7c1.5,0,1.8,0.5,2.1,2.1l0.6-0.1c-0.1-0.7-0.2-1.6-0.3-2.2c-0.7-0.3-1.4-0.4-2.3-0.4
		c-2.5,0-3.2,1.5-3.2,2.5c0,0.6,0.2,1.1,0.4,1.5c0.4,0.6,1.3,1.2,2.3,1.8c1.6,1,2.3,1.5,2.3,2.8c0,1.4-1.2,2.1-2.2,2.1
		c-1.4,0-2.1-0.5-2.5-2.3L277.7,185.2z M267.5,181.6l-0.1-1.3l-0.2-0.1c-0.5,0.4-1.1,0.6-1.9,0.7v0.4c0.9,0,1,0.1,1,1v4
		c0,1-0.1,1.1-1,1.1v0.4h2.9v-0.4c-0.8,0-0.8-0.1-0.8-1.1v-4c0.7-0.9,1.5-1.5,2.2-1.5c1,0,1.4,0.5,1.4,1.9v3.6c0,1-0.1,1.1-0.9,1.1
		v0.4h2.8v-0.4c-0.7,0-0.8-0.1-0.8-1.1v-3.7c0-1.5-0.6-2.4-2.3-2.4C269.1,180.2,268.3,180.7,267.5,181.6L267.5,181.6z M259.5,183.4
		c0.1-2.2,1.2-2.7,2-2.7c1.6,0,1.8,1.8,1.8,2.7H259.5z M261.7,187.9c0.8,0,2-0.3,2.8-1.7l-0.4-0.2c-0.2,0.5-1,1.4-2.3,1.4
		c-0.7,0-1.4-0.4-1.7-1c-0.4-0.7-0.5-1.5-0.5-2.5h5c0-1.8-0.7-3.7-3-3.7c-2.1,0-3.2,1.8-3.2,3.7
		C258.3,186.7,259.7,187.9,261.7,187.9L261.7,187.9z M251.9,181.6l-0.1-1.3l-0.2-0.1c-0.5,0.4-1.1,0.6-1.9,0.7v0.4c0.9,0,1,0.1,1,1
		v4c0,1-0.1,1.1-1,1.1v0.4h2.9v-0.4c-0.8,0-0.8-0.1-0.8-1.1v-4c0.7-0.9,1.5-1.5,2.2-1.5c1,0,1.4,0.5,1.4,1.9v3.6
		c0,1-0.1,1.1-0.9,1.1v0.4h2.8v-0.4c-0.7,0-0.8-0.1-0.8-1.1v-3.7c0-1.5-0.6-2.4-2.3-2.4C253.5,180.2,252.7,180.7,251.9,181.6
		L251.9,181.6z M243.9,183.4c0.1-2.2,1.2-2.7,2-2.7c1.6,0,1.8,1.8,1.8,2.7H243.9z M246.1,187.9c0.8,0,2-0.3,2.8-1.7l-0.4-0.2
		c-0.2,0.5-1,1.4-2.3,1.4c-0.7,0-1.4-0.4-1.7-1c-0.4-0.7-0.5-1.5-0.5-2.5h5c0-1.8-0.7-3.7-3-3.7c-2.1,0-3.2,1.8-3.2,3.7
		C242.7,186.7,244.1,187.9,246.1,187.9L246.1,187.9z M238.9,187.8c1.7,0,2.1,0.8,2.1,1.4c0,1-0.9,1.9-2.9,1.9
		c-1.5,0-2.5-0.6-2.5-1.6c0-0.7,0.5-1.3,1.4-1.8H238.9z M238.1,185.2c-1.2,0-1.9-0.9-1.9-2.2c0-1.1,0.6-2.2,1.8-2.2
		c1.3,0,1.9,1.1,1.9,2.2C240,184.2,239.3,185.2,238.1,185.2 M242,181.1v-0.7l-2.1,0.2c-0.4-0.2-1-0.4-1.7-0.4c-1.6,0-3,1-3,2.7
		c0,1,0.5,1.8,1.2,2.2c-0.6,0.4-1.1,0.8-1.1,1.4c0,0.7,0.6,1,1.2,1.1c-0.9,0.4-1.7,1.1-1.7,2.1c0,1.3,1.4,2,3.4,2
		c2.6,0,3.9-1.2,3.9-2.7c0-1-0.7-2.1-2.9-2.1h-1.6c-0.9,0-1.4-0.2-1.4-0.6c0-0.3,0.3-0.6,0.7-0.9c0.5,0.2,0.9,0.3,1.4,0.3
		c1.6,0,3-0.9,3-2.7c0-0.8-0.3-1.4-0.8-1.9L242,181.1z M232.9,180.2c-0.7,0.4-1.2,0.6-2.1,0.7v0.4c1,0,1.1,0,1.1,1v4
		c0,1-0.1,1.1-1.1,1.1v0.4h3.2v-0.4c-1,0-1-0.1-1-1.1v-6L232.9,180.2z M232.3,177.4c-0.4,0-0.7,0.3-0.7,0.9c0,0.6,0.3,0.9,0.7,0.9
		c0.4,0,0.7-0.3,0.7-0.9C233.1,177.8,232.8,177.4,232.3,177.4 M224.9,183.4c0.1-2.2,1.2-2.7,2-2.7c1.6,0,1.8,1.8,1.8,2.7H224.9z
		 M227.1,187.9c0.8,0,2-0.3,2.8-1.7l-0.4-0.2c-0.2,0.5-1,1.4-2.3,1.4c-0.7,0-1.4-0.4-1.8-1c-0.4-0.7-0.5-1.5-0.5-2.5h5
		c0-1.8-0.7-3.7-3-3.7c-2.1,0-3.2,1.8-3.2,3.7C223.7,186.7,225,187.9,227.1,187.9L227.1,187.9z M213.6,181.5c-0.2-0.6-0.7-1.3-2-1.3
		c-0.9,0-1.7,0.6-2.3,1.3h0l-0.1-1.2l-0.2-0.1c-0.6,0.4-1.1,0.6-1.9,0.7v0.4c0.9,0,1,0.1,1,1v4c0,1-0.1,1.1-1,1.1v0.4h3v-0.4
		c-0.8,0-0.9-0.1-0.9-1v-4.1c0.7-0.9,1.3-1.4,2-1.4c1.3,0,1.3,1.4,1.3,2.1v3.5c0,0.8,0,0.9-0.8,0.9v0.4h2.8v-0.4
		c-0.7,0-0.8-0.1-0.8-1v-4.2c0.5-0.8,1.1-1.4,2-1.4c1.2,0,1.3,1.3,1.3,2.1v3.5c0,0.8-0.1,0.9-0.8,0.9v0.4h2.8v-0.4
		c-0.7,0-0.8-0.1-0.8-1v-3.6c0-1-0.2-1.6-0.6-2c-0.4-0.4-1-0.6-1.5-0.6C215,180.2,214.2,180.8,213.6,181.5L213.6,181.5z
		 M205.5,180.3l-0.2-0.1c-0.6,0.4-1.2,0.6-1.8,0.7v0.4c0.8,0,0.9,0.1,0.9,1v3.8c-0.6,0.8-1.2,1.2-2,1.2c-1.3,0-1.5-1-1.5-2.2v-4.8
		l-0.2-0.1c-0.6,0.4-1.2,0.6-1.8,0.7v0.4c0.8,0,0.9,0.1,0.9,1v3c0,2.3,1.1,2.7,2.3,2.7c1.1,0,1.9-0.5,2.4-1.1h0l0.1,1.1l0.1,0.1
		c0.7-0.2,1.4-0.2,1.9-0.2v-0.4c-0.9,0-1-0.1-1-1.1V180.3z M193,182.3c0.2-1.1,0.3-1.4,1.2-1.4h2.6l-4.5,6.6l0.2,0.2h5.6l0.4-2h-0.5
		c-0.3,1.3-0.5,1.5-1.2,1.5h-2.8l4.5-6.6l-0.2-0.2h-5.2l-0.3,1.9H193z M182.2,181.6l-0.1-1.3l-0.2-0.1c-0.5,0.4-1.1,0.6-1.9,0.7v0.4
		c0.9,0,1,0.1,1,1v4c0,1-0.1,1.1-1,1.1v0.4h2.9v-0.4c-0.8,0-0.8-0.1-0.8-1.1v-4c0.7-0.9,1.5-1.5,2.2-1.5c1,0,1.4,0.5,1.4,1.9v3.6
		c0,1-0.1,1.1-0.9,1.1v0.4h2.8v-0.4c-0.7,0-0.8-0.1-0.8-1.1v-3.7c0-1.5-0.6-2.4-2.3-2.4C183.7,180.2,182.9,180.7,182.2,181.6
		L182.2,181.6z M174.2,183.4c0.1-2.2,1.2-2.7,2-2.7c1.6,0,1.8,1.8,1.8,2.7H174.2z M176.4,187.9c0.8,0,2-0.3,2.8-1.7l-0.4-0.2
		c-0.2,0.5-1,1.4-2.3,1.4c-0.7,0-1.4-0.4-1.8-1c-0.4-0.7-0.5-1.5-0.5-2.5h5c0-1.8-0.7-3.7-3-3.7c-2.1,0-3.2,1.8-3.2,3.7
		C172.9,186.7,174.3,187.9,176.4,187.9L176.4,187.9z M170.1,186.3c-0.4,0.5-1.1,1.1-1.9,1.1c-1.2,0-2.1-1.2-2.1-3.3
		c0-1,0.1-3.3,2.3-3.3c0.7,0,1.4,0.5,1.8,1.1V186.3z M170,181c-0.4-0.4-1-0.8-2-0.8c-2.3,0-3.3,1.8-3.3,3.7c0,3.4,1.9,4,3.1,4
		c1.1,0,1.8-0.5,2.2-0.9h0l0,0.9l0.1,0.1c0.6-0.2,1.2-0.2,1.8-0.2v-0.4c-0.7,0-0.9-0.1-0.9-0.9v-10l-0.2-0.1
		c-0.6,0.4-1.1,0.6-1.9,0.7v0.4c0.9,0,1,0.1,1,1L170,181L170,181z M162,186.4c-0.4,0.4-1,0.9-1.8,0.9c-0.9,0-1.5-0.5-1.5-1.4
		c0-1,0.8-1.7,3.3-2.3V186.4z M162,183l-1,0.2c-1.1,0.2-1.9,0.5-2.5,0.9c-0.7,0.5-1,1.1-1,1.8c0,1.3,1.1,1.9,2.2,1.9
		c1.1,0,1.8-0.4,2.4-0.9h0c0.2,0.6,0.5,0.8,1.1,0.8c0.4,0,0.7-0.1,1-0.2l-0.1-0.4c-0.1,0.1-0.3,0.1-0.4,0.1c-0.3,0-0.5-0.4-0.5-1.1
		v-3.8c0-1.8-1.1-2.3-2.6-2.3c-1.8,0-2.8,1-2.8,1.6c0,0.2,0.1,0.5,0.5,0.5c0.3,0,0.5-0.1,0.6-0.4c0.3-0.7,0.8-1.2,1.7-1.2
		c1.1,0,1.5,0.6,1.5,1.6V183z M154.7,180.4c0,1.3-0.2,1.5-0.8,1.5H152v-3.7c0-0.6,0-0.7,0.5-0.7h2.2c0.8,0,1,0.1,1.4,1.7h0.6
		l-0.5-2.3h-6.6v0.5c1.1,0,1.2,0.1,1.2,1.1v7.6c0,1.1-0.1,1.1-1.2,1.1v0.5h3.8v-0.5c-1.3,0-1.4-0.1-1.4-1.1v-3.6h1.9
		c0.6,0,0.8,0.1,0.8,1.5h0.6v-3.6H154.7z M141.8,180.3l-0.1-0.1c-0.6,0.4-1.1,0.6-1.9,0.7v0.4c0.9,0,1,0.1,1,1v4c0,1-0.1,1.1-1,1.1
		v0.4h3.2v-0.4c-1.1,0-1.1-0.1-1.1-1.1v-4.1c0.6-0.8,1.1-1.4,1.6-1.4c0.3,0,0.4,0.1,0.5,0.5c0.1,0.3,0.3,0.5,0.6,0.5
		c0.3,0,0.5-0.2,0.5-0.6c0-0.5-0.5-1.1-1.3-1.1c-0.7,0-1.3,0.4-2,1.2h0L141.8,180.3z M133.9,183.4c0.1-2.2,1.2-2.7,2-2.7
		c1.6,0,1.8,1.8,1.8,2.7H133.9z M136.1,187.9c0.8,0,2-0.3,2.8-1.7l-0.4-0.2c-0.2,0.5-1,1.4-2.3,1.4c-0.7,0-1.4-0.4-1.7-1
		c-0.4-0.7-0.5-1.5-0.5-2.5h5c0-1.8-0.7-3.7-3-3.7c-2.1,0-3.2,1.8-3.2,3.7C132.6,186.7,134,187.9,136.1,187.9L136.1,187.9z
		 M128.6,180.9v5.3c0,1.4,0.9,1.8,1.8,1.8c0.7,0,1.3-0.2,1.8-0.6l-0.2-0.4c-0.4,0.3-0.8,0.4-1.2,0.4c-0.6,0-0.9-0.4-0.9-1.3v-5.2h2
		v-0.5h-2v-2.1h-0.4c-0.3,1.5-0.6,2.1-1.8,2.2v0.4H128.6z M123.3,180.7c1.5,0,2.2,1.2,2.2,3.3c0,1.6-0.4,3.4-2.2,3.4
		c-0.9,0-2.2-0.4-2.2-3.4C121,181.9,121.8,180.7,123.3,180.7 M123.3,187.9c2.7,0,3.4-1.8,3.4-3.9c0-2.4-1.2-3.8-3.4-3.8
		c-2.6,0-3.4,1.9-3.4,3.8C119.8,186.6,121,187.9,123.3,187.9 M115.9,180.3l-0.1-0.1c-0.6,0.4-1.1,0.6-1.9,0.7v0.4c0.9,0,1,0.1,1,1v4
		c0,1-0.1,1.1-1,1.1v0.4h3.2v-0.4c-1.1,0-1.1-0.1-1.1-1.1v-4.1c0.6-0.8,1.1-1.4,1.6-1.4c0.3,0,0.4,0.1,0.5,0.5
		c0.1,0.3,0.3,0.5,0.6,0.5c0.3,0,0.5-0.2,0.5-0.6c0-0.5-0.5-1.1-1.3-1.1c-0.7,0-1.3,0.4-2,1.2h0L115.9,180.3z M106,180.3l-0.1-0.1
		c-0.6,0.4-1.1,0.6-1.9,0.7v0.4c0.9,0,1,0.1,1,1v4c0,1-0.1,1.1-1,1.1v0.4h3.2v-0.4c-1.1,0-1.1-0.1-1.1-1.1v-4.1
		c0.6-0.8,1.1-1.4,1.6-1.4c0.3,0,0.4,0.1,0.5,0.5c0.1,0.3,0.3,0.5,0.6,0.5c0.3,0,0.5-0.2,0.5-0.6c0-0.5-0.5-1.1-1.3-1.1
		c-0.7,0-1.3,0.4-2,1.2h0L106,180.3z M95.6,187.8h2.9v-0.4c-0.7,0-0.8-0.1-0.8-1.1v-4c0.7-0.9,1.5-1.5,2.2-1.5c1.3,0,1.4,1,1.4,2.1
		v3.3c0,1-0.1,1.1-0.9,1.1v0.4h2.9v-0.4c-0.8,0-0.9-0.1-0.9-1.1v-3.4c0-0.9,0-2.7-2.2-2.7c-1,0-1.9,0.5-2.6,1.3h0v-5l-0.2-0.1
		c-0.6,0.4-1.2,0.6-1.9,0.7v0.4c0.9,0,1,0.1,1,1v7.8c0,1-0.1,1.1-1,1.1V187.8z M91.1,187.8h3.8v-0.5c-1.2,0-1.3-0.1-1.3-1.1v-7.6
		c0-1.1,0.1-1.1,1.3-1.1v-0.5h-3.8v0.5c1.2,0,1.3,0.1,1.3,1.1v7.6c0,1.1-0.1,1.1-1.3,1.1V187.8z"/>
</g>
</svg>
