<?xml version="1.0" encoding="utf-8"?>
<!-- Generator: Adobe Illustrator 21.0.0, SVG Export Plug-In . SVG Version: 6.00 Build 0)  -->
<svg version="1.1" id="Ebene_1" xmlns="http://www.w3.org/2000/svg" xmlns:xlink="http://www.w3.org/1999/xlink" x="0px" y="0px"
	 viewBox="0 0 601.5 724.5" style="enable-background:new 0 0 601.5 724.5;" xml:space="preserve">
<style type="text/css">
	.st0{fill:none;stroke:#E73640;stroke-width:3.434;stroke-linecap:round;stroke-miterlimit:10;}
	.st1{clip-path:url(#SVGID_2_);fill:#E73640;}
	.st2{fill:none;}
	.st3{clip-path:url(#SVGID_6_);}
	.st4{fill:#283583;}
	.st5{clip-path:url(#SVGID_10_);fill:#E73640;}
	.st6{clip-path:url(#SVGID_14_);}
</style>
<g>
	<defs>
		<rect id="SVGID_9_" x="318.4" y="11.7" width="175.2" height="63.5"/>
	</defs>
	<clipPath id="SVGID_2_">
		<use xlink:href="#SVGID_9_"  style="overflow:visible;"/>
	</clipPath>
	<path class="st1" d="M332.7,66.8c1.2-0.6,2.3-1.3,3.2-2.2c0.9-0.8,1.7-1.8,2.2-2.8c0.6-1.1,0.8-2.2,0.8-3.5c0-0.8-0.1-1.6-0.4-2.3
		c-0.3-0.7-0.7-1.3-1.2-1.8c-0.5-0.5-1.1-0.9-1.8-1.2c-0.7-0.3-1.5-0.4-2.3-0.4c-1.5,0-2.8,0.4-4,1.3c-1.2,0.9-2.3,2-3.2,3.4
		c-1,1.4-1.8,2.8-2.5,4.4c-0.7,1.6-1.3,3.1-1.7,4.6c0-1.9,0.1-4,0.1-6.4c0-2.4,0.1-5,0.1-7.7c0-2.7,0.1-5.4,0.1-8.3
		c0-2.8,0.1-5.6,0.1-8.3c0-2.7,0.1-5.2,0.1-7.6c0-2.4,0.1-4.5,0.1-6.2c0-1.8,0-3.2,0.1-4.3c0-1.1,0-1.6,0-1.7c0-0.5-0.2-0.9-0.5-1.2
		c-0.3-0.3-0.7-0.4-1.1-0.4c-0.4,0-0.8,0.1-1.1,0.4c-0.3,0.3-0.5,0.7-0.5,1.1c0,0.2,0,0.9,0,2.1c0,1.2,0,2.7-0.1,4.5
		c0,1.9-0.1,4-0.1,6.4c0,2.4-0.1,4.9-0.1,7.6c0,2.7-0.1,5.4-0.1,8.2c-0.1,2.8-0.1,5.5-0.1,8.2c0,2.6-0.1,5.1-0.1,7.5
		c0,2.4-0.1,4.5-0.1,6.3c0,1.8,0,3.3-0.1,4.4c0,1.1,0,1.8,0,2c0,0.8,0.2,1.4,0.6,1.8c0.4,0.4,0.8,0.5,1.2,0.5c0.5,0,0.8-0.1,1.1-0.3
		c0.3-0.2,0.5-0.5,0.7-0.8c0.2-0.3,0.3-0.7,0.4-1c0.1-0.4,0.2-0.7,0.3-1c0.3-1,0.6-2.1,1-3.3c0.4-1.2,0.9-2.4,1.4-3.6
		c0.5-1.2,1.1-2.4,1.7-3.5c0.6-1.1,1.3-2.1,2-3c0.7-0.9,1.4-1.6,2.1-2.1c0.7-0.5,1.5-0.8,2.2-0.8c0.7,0,1.4,0.2,1.9,0.7
		c0.5,0.5,0.8,1.1,0.8,1.9c0,0.9-0.2,1.7-0.6,2.4c-0.4,0.7-0.9,1.4-1.7,2.1c-0.7,0.6-1.5,1.2-2.5,1.7c-1,0.5-2,0.9-3.2,1.3
		c-0.4,0.1-0.8,0.3-1,0.5c-0.2,0.2-0.4,0.4-0.6,0.7c-0.1,0.2-0.2,0.5-0.2,0.7c0,0.2,0,0.4,0,0.5c0,0.9,0.2,1.7,0.7,2.6
		c0.5,0.8,1.1,1.6,1.9,2.2c0.8,0.7,1.8,1.2,2.9,1.6c1.1,0.4,2.3,0.6,3.6,0.6c1.6,0,3.2-0.3,4.7-0.9c1.5-0.6,3-1.5,4.4-2.6
		c1.4-1.1,2.7-2.5,3.9-4.2c1.2-1.6,2.3-3.5,3.3-5.5c0.1-0.3,0.2-0.5,0.2-0.7c0-0.4-0.1-0.8-0.4-1.1c-0.3-0.3-0.7-0.5-1.2-0.5
		c-0.3,0-0.6,0.1-0.8,0.2c-0.3,0.2-0.5,0.4-0.6,0.7c-1.3,2.8-2.7,5-4.1,6.6c-1.4,1.6-2.8,2.7-4,3.4c-1.3,0.7-2.4,1.1-3.3,1.3
		c-1,0.1-1.7,0.2-2.1,0.2c-1.4,0-2.6-0.3-3.7-1c-1.1-0.6-1.9-1.5-2.4-2.6C330.3,67.9,331.5,67.4,332.7,66.8 M372.9,61.1
		c0-0.4-0.1-0.8-0.4-1.1c-0.3-0.3-0.7-0.5-1.2-0.5c-0.3,0-0.6,0.1-0.8,0.2c-0.3,0.2-0.5,0.4-0.6,0.7c-0.4,0.8-0.9,1.8-1.5,3
		c-0.7,1.3-1.4,2.5-2.3,3.7c-0.9,1.2-1.8,2.3-2.9,3.2c-1,0.9-2.1,1.3-3.3,1.3c-1.7,0-3.1-1-4.3-3.1c-1.2-2-2.1-4.9-2.8-8.5
		c1.6-2.9,3.1-5.8,4.5-8.9c1.4-3,2.6-6.1,3.6-9.1c1-3.1,1.8-6.1,2.4-9.1c0.6-3,0.9-5.9,0.9-8.8c0-2.3-0.1-4.2-0.4-5.8
		c-0.3-1.6-0.7-2.9-1.2-3.9c-0.5-1-1.1-1.7-1.9-2.1c-0.7-0.4-1.6-0.7-2.5-0.7c-1.2,0-2.2,0.5-3.2,1.4c-0.9,1-1.8,2.3-2.5,3.9
		c-0.7,1.6-1.3,3.5-1.9,5.7c-0.5,2.2-1,4.5-1.3,6.9c-0.3,2.4-0.6,4.9-0.7,7.5c-0.2,2.5-0.2,5-0.2,7.4c0,1.6,0,3.5,0.1,5.6
		c0.1,2.1,0.3,4.3,0.6,6.6c0.3,2.2,0.7,4.5,1.2,6.6c0.5,2.2,1.2,4.1,2.1,5.8c0.8,1.7,1.9,3.1,3.1,4.1c1.2,1,2.7,1.6,4.4,1.6
		c1.1,0,2.1-0.2,3.1-0.7c1-0.5,1.9-1.1,2.8-1.8c0.9-0.7,1.7-1.6,2.4-2.5c0.7-0.9,1.4-1.9,2-2.9c0.6-1,1.1-1.9,1.6-2.8
		c0.5-0.9,0.9-1.7,1.2-2.3C372.9,61.5,372.9,61.2,372.9,61.1 M351.7,37.5c0.2-2.4,0.4-4.7,0.6-6.9c0.3-2.2,0.6-4.3,1-6.2
		c0.4-1.9,0.8-3.6,1.3-5c0.5-1.4,1-2.5,1.5-3.3c0.6-0.8,1.1-1.2,1.7-1.2c0.9,0,1.6,0.7,2.2,2.2c0.5,1.4,0.8,3.8,0.8,7.2
		c0,2.4-0.2,4.9-0.7,7.5c-0.5,2.6-1.2,5.2-2,7.9c-0.8,2.6-1.8,5.3-2.8,7.8c-1.1,2.6-2.2,5-3.4,7.3c-0.1-1.5-0.3-3.1-0.3-4.8
		c-0.1-1.7-0.1-3.4-0.1-5.2C351.5,42.3,351.6,39.9,351.7,37.5 M378.1,66.9c1-0.7,1.8-1.5,2.5-2.4c0.7-0.9,1.2-1.8,1.6-2.8
		c0.4-1,0.6-2.1,0.6-3.3c0-0.9-0.2-1.7-0.5-2.4c-0.3-0.7-0.7-1.3-1.2-1.8c-0.5-0.5-1.1-0.9-1.7-1.1c-0.6-0.3-1.3-0.4-1.9-0.4
		c-1.1,0-2.1,0.3-3,0.8c-0.9,0.5-1.7,1.2-2.4,2.1c-0.7,0.9-1.2,2-1.5,3.2c-0.4,1.2-0.5,2.5-0.5,4c0,1.4,0.2,2.9,0.6,4.3
		s1.1,2.7,2,3.9c0.9,1.1,2,2.1,3.3,2.8c1.4,0.7,3,1.1,4.8,1.1c2.9-0.1,5.5-1.2,7.8-3.4c2.3-2.2,4.4-5.4,6.4-9.7
		c0.1-0.1,0.1-0.2,0.1-0.3c0-0.1,0-0.2,0-0.4c0-0.4-0.1-0.8-0.4-1.1c-0.3-0.3-0.7-0.5-1.2-0.5c-0.3,0-0.6,0.1-0.8,0.2
		c-0.3,0.2-0.5,0.4-0.6,0.7c-0.6,1.3-1.3,2.7-2,4c-0.7,1.3-1.6,2.5-2.5,3.6c-0.9,1.1-2,1.9-3.1,2.6c-1.1,0.7-2.4,1-3.8,1
		c-1.4,0-2.5-0.2-3.4-0.7c-0.9-0.5-1.7-1.2-2.3-2C376.1,68.3,377.1,67.7,378.1,66.9 M373.3,64.5c-0.1-0.6-0.1-1.1-0.1-1.6
		c0-0.8,0.1-1.6,0.2-2.5c0.2-0.8,0.4-1.6,0.7-2.3c0.3-0.7,0.8-1.2,1.3-1.7c0.5-0.4,1.2-0.6,2-0.6c0.6,0,1.1,0.2,1.5,0.7
		c0.4,0.4,0.6,1.1,0.6,1.9c0,0.8-0.1,1.5-0.4,2.3c-0.3,0.8-0.7,1.5-1.2,2.1c-0.5,0.7-1.1,1.3-1.8,1.9c-0.7,0.6-1.5,1-2.4,1.4
		C373.6,65.6,373.4,65,373.3,64.5 M398.7,38.7c-0.2-0.5-0.5-0.9-0.8-1.2c-0.4-0.4-0.8-0.6-1.2-0.8c-0.5-0.2-1-0.3-1.5-0.3
		c-0.5,0-1,0.1-1.5,0.3c-0.5,0.2-0.9,0.5-1.2,0.8c-0.4,0.4-0.6,0.8-0.8,1.2c-0.2,0.5-0.3,1-0.3,1.5c0,1.1,0.4,2,1.1,2.7
		c0.7,0.7,1.7,1.1,2.7,1.1s2-0.4,2.7-1.1c0.7-0.7,1.1-1.7,1.1-2.7C399,39.7,398.9,39.2,398.7,38.7 M392.6,69
		c0.3,1.2,0.8,2.3,1.5,3.2c0.7,0.9,1.5,1.6,2.4,2.2c1,0.5,2.1,0.8,3.4,0.8c1,0,2-0.2,2.9-0.7c1-0.5,1.9-1.1,2.8-1.9
		c0.9-0.8,1.7-1.7,2.5-2.6c0.8-1,1.5-2,2.1-2.9c0.6-1,1.2-2,1.7-2.9c0.5-0.9,0.9-1.7,1.3-2.4c0.1-0.2,0.2-0.4,0.2-0.7
		c0-0.4-0.1-0.8-0.4-1.1c-0.3-0.3-0.7-0.5-1.1-0.5c-0.3,0-0.6,0.1-0.8,0.2c-0.3,0.2-0.5,0.4-0.6,0.7c-0.9,1.8-1.8,3.3-2.7,4.8
		c-0.9,1.4-1.8,2.7-2.7,3.7c-0.9,1-1.8,1.8-2.6,2.4c-0.8,0.6-1.7,0.8-2.5,0.8c-0.5,0-1-0.1-1.5-0.3c-0.5-0.2-1-0.5-1.5-1
		c-0.5-0.5-0.8-1.2-1.1-2.1s-0.4-2.1-0.4-3.6c0-1.1,0-2.3,0.1-3.6c0.1-1.3,0.2-2.6,0.3-3.7c0.1-1.2,0.2-2.2,0.3-3
		c0.1-0.8,0.1-1.4,0.1-1.5c0-0.4-0.1-0.8-0.4-1.1c-0.3-0.3-0.6-0.5-1.1-0.5c-0.5,0-0.9,0.1-1.2,0.4s-0.5,0.6-0.5,1
		c-0.5,4-0.8,8.1-0.8,12.2C392.1,66.5,392.3,67.8,392.6,69 M396.2,41.2c-0.3,0.3-0.6,0.4-1,0.4c-0.4,0-0.7-0.1-1-0.4
		c-0.3-0.3-0.4-0.6-0.4-1c0-0.4,0.1-0.7,0.4-1c0.3-0.3,0.6-0.4,1-0.4c0.4,0,0.7,0.1,1,0.4c0.3,0.3,0.4,0.6,0.4,1
		C396.6,40.6,396.5,40.9,396.2,41.2 M429.3,54.6c0.9-2.5,1.8-5.3,2.7-8.3c0.8-3,1.5-6.1,2.1-9.4c0.6-3.3,0.8-6.6,0.8-9.8
		c0-1.5-0.1-2.9-0.3-4.2c-0.2-1.3-0.5-2.4-0.9-3.3c-0.4-0.9-0.9-1.6-1.6-2.1c-0.7-0.5-1.4-0.8-2.4-0.8c-1,0-2,0.4-2.8,1.1
		c-0.8,0.7-1.5,1.7-2.1,2.9c-0.6,1.2-1.1,2.7-1.5,4.3c-0.4,1.6-0.8,3.4-1,5.2c-0.3,1.8-0.4,3.7-0.6,5.6c-0.1,1.9-0.2,3.7-0.2,5.5
		c0,4,0.2,7.6,0.6,10.9c0.4,3.3,0.8,6.1,1.3,8.6c-0.8,2.1-1.6,3.8-2.3,5.1c-0.7,1.3-1.3,2.3-1.9,3c-0.6,0.7-1.1,1.2-1.6,1.4
		c-0.5,0.2-1,0.4-1.4,0.4c-1.1,0-1.9-0.4-2.5-1.2c-0.6-0.8-0.9-1.9-0.9-3.3c0-1.7,0.3-3.2,0.8-4.5c0.5-1.2,1.2-2.3,2-3.1
		c0.8-0.8,1.7-1.4,2.7-1.8c1-0.4,1.9-0.7,2.7-0.8c0.4-0.1,0.8-0.2,1-0.6c0.3-0.3,0.4-0.7,0.4-1.1c0-0.5-0.2-0.8-0.5-1.1
		c-0.3-0.3-0.7-0.4-1.1-0.4c-1.3,0-2.6,0.3-3.9,1c-1.3,0.7-2.5,1.6-3.6,2.7c-1.1,1.2-2,2.6-2.6,4.2c-0.7,1.6-1,3.4-1,5.4
		c0,1.4,0.2,2.6,0.6,3.6c0.4,1,0.8,1.8,1.4,2.4c0.6,0.6,1.3,1.1,2.1,1.3c0.8,0.3,1.6,0.4,2.5,0.4c1.6,0,3.1-0.7,4.5-2
		c1.4-1.3,2.8-3.4,4.1-6.3c1,3,2.2,5.2,3.5,6.5s3,2,4.9,2c1,0,2-0.2,2.9-0.7c0.9-0.5,1.8-1.1,2.6-1.9c0.8-0.8,1.6-1.6,2.2-2.6
		c0.7-1,1.3-1.9,1.8-2.8c0.6-0.9,1-1.8,1.4-2.6c0.4-0.8,0.7-1.4,0.9-1.9c0.1-0.2,0.1-0.4,0.1-0.6c0-0.4-0.2-0.8-0.5-1.1
		c-0.3-0.3-0.7-0.5-1.1-0.5c-0.7,0-1.2,0.3-1.5,1c-0.4,0.9-0.9,2-1.5,3.2c-0.6,1.2-1.3,2.4-2.1,3.5c-0.8,1.1-1.7,2-2.6,2.8
		c-0.9,0.7-1.9,1.1-2.9,1.1c-2.6,0-4.6-3.3-6-9.8C427.5,59.3,428.4,57.1,429.3,54.6 M431.2,34.3c-0.3,2.4-0.8,4.9-1.3,7.3
		c-0.6,2.4-1.2,4.8-1.9,7.1c-0.7,2.3-1.5,4.5-2.3,6.7c-0.3-2-0.5-4.2-0.7-6.7c-0.2-2.5-0.3-5-0.3-7.5c0-2.6,0.1-5.2,0.4-7.7
		c0.3-2.6,0.6-4.8,1.1-6.9c0.5-2,1-3.7,1.6-4.9c0.6-1.2,1.3-1.9,2-1.9c0.4,0,0.8,0.2,1,0.7c0.3,0.5,0.5,1.1,0.6,1.8
		c0.2,0.7,0.3,1.5,0.3,2.3c0,0.8,0.1,1.6,0.1,2.3C431.7,29.4,431.6,31.8,431.2,34.3 M450.2,66.9c1-0.7,1.8-1.5,2.5-2.4
		c0.7-0.9,1.2-1.8,1.6-2.8c0.4-1,0.6-2.1,0.6-3.3c0-0.9-0.2-1.7-0.5-2.4c-0.3-0.7-0.7-1.3-1.2-1.8c-0.5-0.5-1.1-0.9-1.7-1.1
		c-0.6-0.3-1.3-0.4-1.9-0.4c-1.1,0-2.1,0.3-3,0.8c-0.9,0.5-1.7,1.2-2.4,2.1c-0.7,0.9-1.2,2-1.5,3.2c-0.4,1.2-0.5,2.5-0.5,4
		c0,1.4,0.2,2.9,0.6,4.3c0.4,1.4,1.1,2.7,2,3.9c0.9,1.1,2,2.1,3.4,2.8c1.4,0.7,3,1.1,4.8,1.1c2.9-0.1,5.5-1.2,7.8-3.4
		c2.3-2.2,4.4-5.4,6.4-9.7c0.1-0.1,0.1-0.2,0.1-0.3c0-0.1,0-0.2,0-0.4c0-0.4-0.1-0.8-0.4-1.1c-0.3-0.3-0.7-0.5-1.2-0.5
		c-0.3,0-0.6,0.1-0.8,0.2c-0.3,0.2-0.5,0.4-0.6,0.7c-0.6,1.3-1.3,2.7-2,4c-0.7,1.3-1.6,2.5-2.5,3.6c-0.9,1.1-2,1.9-3.1,2.6
		c-1.1,0.7-2.4,1-3.8,1c-1.4,0-2.5-0.2-3.4-0.7c-0.9-0.5-1.7-1.2-2.3-2C448.2,68.3,449.3,67.7,450.2,66.9 M445.5,64.5
		c-0.1-0.6-0.1-1.1-0.1-1.6c0-0.8,0.1-1.6,0.2-2.5c0.2-0.8,0.4-1.6,0.7-2.3c0.3-0.7,0.8-1.2,1.3-1.7c0.5-0.4,1.2-0.6,2-0.6
		c0.6,0,1.1,0.2,1.5,0.7c0.4,0.4,0.6,1.1,0.6,1.9c0,0.8-0.1,1.5-0.4,2.3c-0.3,0.8-0.7,1.5-1.2,2.1c-0.5,0.7-1.1,1.3-1.8,1.9
		c-0.7,0.6-1.5,1-2.4,1.4C445.7,65.6,445.6,65,445.5,64.5 M470.2,56h1.3c0.8,0,1.4,0.1,1.6,0.4c0.2,0.3,0.4,0.7,0.4,1.2
		c0,1.3-0.1,2.6-0.4,4c-0.3,1.4-0.4,2.8-0.4,4.2c0,1.3,0.2,2.5,0.6,3.6c0.4,1.1,0.9,2,1.6,2.7c0.7,0.7,1.4,1.3,2.4,1.7
		c0.9,0.4,1.9,0.6,2.9,0.6c1.6,0,3.1-0.4,4.5-1.3c1.4-0.9,2.6-2,3.7-3.2c1.1-1.3,2.1-2.6,2.9-4.1c0.9-1.5,1.6-2.8,2.3-3.9
		c0.1-0.2,0.2-0.5,0.2-0.8c0-0.4-0.1-0.8-0.4-1.1c-0.3-0.3-0.7-0.5-1.2-0.5c-0.3,0-0.6,0.1-0.8,0.2c-0.3,0.1-0.5,0.3-0.6,0.6
		c-0.5,0.9-1.1,2-1.8,3.3c-0.7,1.2-1.5,2.4-2.4,3.5c-0.9,1.1-1.9,2.1-3,2.9c-1.1,0.8-2.2,1.2-3.4,1.2c-0.4,0-0.8-0.1-1.3-0.2
		c-0.5-0.2-0.9-0.4-1.4-0.8c-0.4-0.4-0.8-0.9-1.1-1.6c-0.3-0.7-0.4-1.5-0.4-2.5c0-0.7,0-1.4,0.1-2.2c0.1-0.7,0.2-1.5,0.3-2.2
		c0.1-0.7,0.2-1.5,0.3-2.2c0.1-0.7,0.1-1.4,0.1-2c0-1.6-0.4-2.8-1.3-3.5c-0.8-0.7-2.1-1.1-3.7-1.1c-0.4,0-0.9,0-1.3,0
		c-0.5,0-0.9,0-1.4,0c0-0.6,0-1.2-0.1-2c-0.1-0.8-0.3-1.5-0.5-2.2c-0.2-0.7-0.5-1.3-1-1.8c-0.4-0.5-0.9-0.7-1.6-0.7
		c-0.6,0-1.1,0.3-1.7,0.9c-0.6,0.6-1.1,1.3-1.5,2.1c-0.5,0.8-0.8,1.6-1.1,2.4c-0.3,0.8-0.4,1.5-0.4,2c0,0.7,0.1,1.2,0.4,1.5
		c0.3,0.4,0.6,0.6,1.1,0.8c0.4,0.2,0.9,0.3,1.4,0.3c0.5,0,1,0,1.5,0c-0.3,1.2-0.5,2.2-0.6,2.8s-0.3,1-0.4,1.3
		c-0.1,0.3-0.2,0.4-0.3,0.5c-0.1,0.1-0.1,0.2-0.1,0.4c0,0.5,0.2,0.8,0.5,1.1c0.3,0.3,0.7,0.4,1.1,0.4c0.7,0,1.2-0.3,1.5-1
		c0,0,0.1-0.2,0.2-0.5c0.1-0.3,0.2-0.7,0.4-1.2c0.2-0.5,0.3-1.1,0.5-1.7c0.2-0.7,0.3-1.4,0.4-2.1C469.2,56,469.7,56,470.2,56
		 M464,52.9c0.1-0.2,0.1-0.5,0.3-0.8c0.1-0.3,0.2-0.7,0.4-1c0.1-0.3,0.3-0.6,0.4-0.8c0.1-0.2,0.2-0.3,0.3-0.3c0.1,0,0.2,0.1,0.2,0.3
		c0.1,0.2,0.1,0.5,0.2,0.8c0,0.3,0.1,0.6,0.1,1c0,0.3,0,0.6,0,0.8H464z"/>
</g>
<path class="st0" d="M492.2,61.9c3.1-5.3,5.2-6.3,8.2-8.9c4.4-3.7,10.7-1.9,15,1.9c4.3,3.8,7.2,9.3,10.8,13.9
	c4.8,6.1,10.8,10.8,17.5,13.5l24.5,9 M320.2,75.2c-2.1,10.1-13.3,18.2-30.9,21c-16.6,2.8-32.9-4-32.9-4
	C109,39,193.5,16.8,201.1,57.4c2,41.6-69.5,36-83.9,34.9c-14.4-1.1-50.5-5.8-50.5-5.8s-17-5-30.3,14.1"/>
<rect x="-397.8" y="11.7" class="st2" width="987.1" height="729.1"/>
<rect x="-397.8" y="11.7" class="st2" width="987.1" height="729.1"/>
<g>
	<defs>
		<rect id="SVGID_11_" x="312.2" y="71.9" width="220" height="68"/>
	</defs>
	<clipPath id="SVGID_4_">
		<use xlink:href="#SVGID_11_"  style="overflow:visible;"/>
	</clipPath>
</g>
<g>
	<defs>
		<rect id="SVGID_13_" x="312.2" y="70.6" width="231.4" height="70.6"/>
	</defs>
	<clipPath id="SVGID_6_">
		<use xlink:href="#SVGID_13_"  style="overflow:visible;"/>
	</clipPath>
	<g class="st3">
		<path class="st4" d="M319.7,132.7c1,0,1-0.1,1-0.9v-6.3c0-0.9-0.1-0.9-1-0.9v-0.4h3.1v0.4c-1,0-1,0.1-1,0.9v6.3
			c0,0.9,0.1,0.9,1,0.9v0.4h-3.1V132.7z"/>
		<path class="st4" d="M323.5,132.7c0.7,0,0.8-0.1,0.8-0.9v-6.4c0-0.7-0.1-0.8-0.8-0.8v-0.3c0.6-0.1,1.1-0.3,1.6-0.6l0.1,0.1v4.1h0
			c0.6-0.7,1.3-1.1,2.1-1.1c1.8,0,1.8,1.5,1.8,2.2v2.8c0,0.8,0.1,0.9,0.7,0.9v0.3h-2.4v-0.3c0.7,0,0.7-0.1,0.7-0.9v-2.7
			c0-0.9-0.1-1.8-1.2-1.8c-0.6,0-1.2,0.5-1.8,1.2v3.2c0,0.8,0.1,0.9,0.7,0.9v0.3h-2.4V132.7z"/>
		<path class="st4" d="M332,127.9L332,127.9c0.6-0.7,1-1,1.6-1c0.7,0,1,0.5,1,0.9c0,0.3-0.2,0.5-0.4,0.5c-0.2,0-0.3-0.1-0.5-0.4
			c-0.1-0.3-0.2-0.4-0.4-0.4c-0.4,0-0.9,0.5-1.3,1.1v3.3c0,0.8,0.1,0.9,0.9,0.9v0.3h-2.7v-0.3c0.7,0,0.8-0.1,0.8-0.9v-3.3
			c0-0.8-0.1-0.8-0.8-0.8v-0.3c0.6-0.1,1-0.2,1.5-0.6l0.1,0.1L332,127.9z"/>
		<path class="st4" d="M340.1,127.9L340.1,127.9c0.6-0.7,1-1,1.6-1c0.7,0,1,0.5,1,0.9c0,0.3-0.2,0.5-0.4,0.5c-0.2,0-0.3-0.1-0.5-0.4
			c-0.1-0.3-0.2-0.4-0.4-0.4c-0.4,0-0.9,0.5-1.3,1.1v3.3c0,0.8,0.1,0.9,0.9,0.9v0.3h-2.7v-0.3c0.7,0,0.8-0.1,0.8-0.9v-3.3
			c0-0.8-0.1-0.8-0.8-0.8v-0.3c0.6-0.1,1-0.2,1.5-0.6l0.1,0.1L340.1,127.9z"/>
		<path class="st4" d="M343.3,130c0-1.6,0.7-3.1,2.8-3.1c1.9,0,2.8,1.2,2.8,3.1c0,1.7-0.6,3.2-2.8,3.2
			C344.3,133.2,343.3,132.1,343.3,130z M344.3,130.1c0,2.4,1.1,2.8,1.8,2.8c1.5,0,1.8-1.4,1.8-2.8c0-1.8-0.6-2.7-1.8-2.7
			C344.9,127.3,344.3,128.3,344.3,130.1z"/>
		<path class="st4" d="M349.6,127.5v-0.3c0.9-0.1,1.2-0.6,1.5-1.8h0.3v1.7h1.6v0.4h-1.6v4.2c0,0.7,0.3,1,0.8,1c0.4,0,0.6-0.1,1-0.4
			l0.2,0.3c-0.4,0.4-0.9,0.5-1.4,0.5c-0.7,0-1.4-0.3-1.4-1.4v-4.3H349.6z"/>
		<path class="st4" d="M356.5,133.2c-1.6,0-2.7-1-2.7-3.3c0-1.6,0.9-3,2.6-3c1.9,0,2.5,1.6,2.5,3h-4.1c0,0.8,0.1,1.5,0.4,2
			c0.3,0.5,0.8,0.8,1.4,0.8c1.1,0,1.7-0.7,1.9-1.2l0.3,0.2C358.2,133,357.3,133.2,356.5,133.2L356.5,133.2z M357.9,129.5
			c0-0.8-0.2-2.2-1.5-2.2c-0.6,0-1.5,0.4-1.6,2.2H357.9z"/>
		<path class="st4" d="M361.3,127.9L361.3,127.9c0.6-0.7,1-1,1.6-1c0.7,0,1,0.5,1,0.9c0,0.3-0.2,0.5-0.4,0.5c-0.2,0-0.3-0.1-0.5-0.4
			c-0.1-0.3-0.2-0.4-0.4-0.4c-0.4,0-0.9,0.5-1.3,1.1v3.3c0,0.8,0.1,0.9,0.9,0.9v0.3h-2.7v-0.3c0.7,0,0.8-0.1,0.8-0.9v-3.3
			c0-0.8-0.1-0.8-0.8-0.8v-0.3c0.6-0.1,1-0.2,1.5-0.6l0.1,0.1L361.3,127.9z"/>
		<path class="st4" d="M372.3,127.1v3h-0.5c0-1.2-0.1-1.3-0.6-1.3h-1.6v3c0,0.9,0.1,0.9,1.1,0.9v0.4h-3.1v-0.4c0.9,0,1-0.1,1-0.9
			v-6.3c0-0.9-0.1-0.9-1-0.9v-0.4h5.4l0.4,1.9H373c-0.3-1.3-0.4-1.4-1.1-1.4h-1.8c-0.4,0-0.4,0.1-0.4,0.6v3h1.5
			c0.5,0,0.7-0.1,0.7-1.2H372.3z"/>
		<path class="st4" d="M377.8,128.7c0-0.9-0.3-1.3-1.2-1.3c-0.7,0-1.1,0.3-1.4,1c-0.1,0.2-0.2,0.3-0.5,0.3c-0.3,0-0.4-0.2-0.4-0.4
			c0-0.5,0.8-1.3,2.3-1.3c1.2,0,2.1,0.4,2.1,1.9v3.1c0,0.6,0.1,0.9,0.4,0.9c0.1,0,0.3,0,0.4-0.1l0.1,0.3c-0.2,0.1-0.5,0.2-0.8,0.2
			c-0.5,0-0.8-0.2-0.9-0.7h0c-0.5,0.4-1,0.8-1.9,0.8c-0.9,0-1.8-0.5-1.8-1.6c0-0.6,0.2-1.1,0.8-1.5c0.5-0.3,1.2-0.6,2.1-0.8l0.8-0.2
			V128.7z M377.8,129.6c-2.1,0.5-2.7,1.1-2.7,1.9c0,0.7,0.5,1.2,1.2,1.2c0.7,0,1.2-0.3,1.5-0.7V129.6z"/>
		<path class="st4" d="M384.4,127.6v-2.1c0-0.7-0.1-0.8-0.8-0.8v-0.3c0.7-0.1,1.1-0.2,1.6-0.6l0.1,0.1v8.2c0,0.7,0.1,0.7,0.7,0.7
			v0.3c-0.5,0-1,0-1.5,0.2l-0.1-0.1l0-0.7h0c-0.3,0.3-0.9,0.8-1.8,0.8c-1,0-2.5-0.5-2.5-3.3c0-1.6,0.8-3,2.7-3
			C383.6,126.9,384.1,127.3,384.4,127.6L384.4,127.6z M384.4,128.2c-0.3-0.5-0.9-0.9-1.5-0.9c-1.7,0-1.8,1.8-1.8,2.7
			c0,1.7,0.7,2.7,1.8,2.7c0.7,0,1.2-0.5,1.6-0.9V128.2z"/>
		<path class="st4" d="M389.6,133.2c-1.6,0-2.7-1-2.7-3.3c0-1.6,0.9-3,2.6-3c1.9,0,2.5,1.6,2.5,3h-4.1c0,0.8,0.1,1.5,0.4,2
			c0.3,0.5,0.8,0.8,1.4,0.8c1.1,0,1.7-0.7,1.9-1.2l0.3,0.2C391.2,133,390.3,133.2,389.6,133.2L389.6,133.2z M390.9,129.5
			c0-0.8-0.2-2.2-1.5-2.2c-0.6,0-1.5,0.4-1.6,2.2H390.9z"/>
		<path class="st4" d="M394.4,128c0.6-0.7,1.3-1.1,2.1-1.1c1.3,0,1.9,0.8,1.9,2v3c0,0.8,0.1,0.9,0.7,0.9v0.3h-2.3v-0.3
			c0.6,0,0.7-0.1,0.7-0.9v-2.9c0-1.1-0.4-1.5-1.2-1.5c-0.6,0-1.2,0.5-1.8,1.2v3.2c0,0.8,0,0.9,0.7,0.9v0.3h-2.4v-0.3
			c0.7,0,0.8-0.1,0.8-0.9v-3.2c0-0.8-0.1-0.9-0.8-0.9v-0.3c0.6-0.1,1.1-0.3,1.5-0.6l0.1,0.1L394.4,128L394.4,128z"/>
		<path class="st4" d="M402.8,128.6l0.3-1.6h4.3l0.1,0.2l-3.7,5.4h2.3c0.6,0,0.8-0.2,1-1.2h0.4l-0.3,1.6h-4.5l-0.1-0.2l3.7-5.4h-2.1
			c-0.7,0-0.8,0.2-1,1.1H402.8z"/>
		<path class="st4" d="M413.5,131.9c0,0.8,0,0.9,0.8,0.9v0.3c-0.4,0-1,0-1.6,0.2l-0.1,0l-0.1-0.9h0c-0.4,0.5-1.1,0.9-1.9,0.9
			c-1,0-1.9-0.3-1.9-2.2v-2.5c0-0.7,0-0.8-0.7-0.8v-0.3c0.5-0.1,1-0.3,1.5-0.6l0.1,0.1v3.9c0,0.9,0.2,1.8,1.2,1.8
			c0.6,0,1.2-0.4,1.7-1v-3.1c0-0.8,0-0.8-0.7-0.8v-0.3c0.5-0.1,1-0.3,1.5-0.6l0.1,0.1V131.9z"/>
		<path class="st4" d="M420.1,128c0.5-0.6,1.1-1.1,2-1.1c0.5,0,0.9,0.1,1.3,0.5c0.3,0.3,0.5,0.8,0.5,1.6v2.9c0,0.7,0.1,0.8,0.7,0.8
			v0.3h-2.3v-0.3c0.6,0,0.7-0.1,0.7-0.8v-2.9c0-0.6-0.1-1.7-1.1-1.7c-0.7,0-1.2,0.5-1.6,1.1v3.4c0,0.7,0.1,0.8,0.7,0.8v0.3h-2.3
			v-0.3c0.6,0,0.7-0.1,0.7-0.8v-2.9c0-0.6,0-1.7-1-1.7c-0.5,0-1,0.4-1.6,1.1v3.4c0,0.7,0.1,0.8,0.7,0.8v0.3h-2.4v-0.3
			c0.7,0,0.8-0.1,0.8-0.9v-3.2c0-0.8-0.1-0.9-0.8-0.9v-0.3c0.6-0.1,1.1-0.3,1.5-0.6l0.1,0.1l0,0.9h0c0.5-0.5,1.1-1,1.9-1
			C419.5,126.9,419.9,127.5,420.1,128L420.1,128z"/>
		<path class="st4" d="M431.1,133.2c-1.6,0-2.7-1-2.7-3.3c0-1.6,0.9-3,2.6-3c1.9,0,2.5,1.6,2.5,3h-4.1c0,0.8,0.1,1.5,0.4,2
			c0.3,0.5,0.8,0.8,1.4,0.8c1.1,0,1.7-0.7,1.9-1.2l0.3,0.2C432.8,133,431.8,133.2,431.1,133.2L431.1,133.2z M432.5,129.5
			c0-0.8-0.2-2.2-1.5-2.2c-0.6,0-1.5,0.4-1.6,2.2H432.5z"/>
		<path class="st4" d="M436,127v4.9c0,0.8,0,0.9,0.8,0.9v0.3h-2.7v-0.3c0.8,0,0.9-0.1,0.9-0.9v-3.3c0-0.8,0-0.8-0.9-0.8v-0.3
			c0.7-0.1,1.1-0.3,1.7-0.6L436,127z M436.1,125.4c0,0.5-0.3,0.8-0.6,0.8c-0.3,0-0.6-0.3-0.6-0.8c0-0.5,0.3-0.8,0.6-0.8
			C435.9,124.7,436.1,125,436.1,125.4z"/>
		<path class="st4" d="M442,127.6c0.4,0.4,0.7,0.9,0.7,1.6c0,1.5-1.2,2.2-2.4,2.2c-0.4,0-0.8-0.1-1.2-0.2c-0.4,0.2-0.6,0.5-0.6,0.7
			c0,0.4,0.4,0.5,1.1,0.5h1.3c1.8,0,2.4,0.9,2.4,1.7c0,1.2-1.1,2.2-3.2,2.2c-1.6,0-2.8-0.5-2.8-1.6c0-0.8,0.7-1.4,1.4-1.7
			c-0.5-0.1-0.9-0.4-0.9-0.9c0-0.5,0.4-0.9,0.9-1.1c-0.6-0.4-1-1-1-1.8c0-1.4,1.1-2.2,2.4-2.2c0.6,0,1.1,0.2,1.4,0.3l1.7-0.2v0.6
			L442,127.6z M439.3,133.1c-0.7,0.4-1.1,0.9-1.1,1.5c0,0.8,0.8,1.3,2,1.3c1.6,0,2.3-0.8,2.3-1.6c0-0.6-0.3-1.2-1.7-1.2H439.3z
			 M441.7,129.1c0-0.9-0.5-1.8-1.5-1.8c-1,0-1.5,0.9-1.5,1.8c0,1.1,0.6,1.8,1.5,1.8C441.2,131,441.7,130.2,441.7,129.1z"/>
		<path class="st4" d="M446.7,133.2c-1.6,0-2.7-1-2.7-3.3c0-1.6,0.9-3,2.6-3c1.9,0,2.5,1.6,2.5,3H445c0,0.8,0.1,1.5,0.4,2
			c0.3,0.5,0.8,0.8,1.4,0.8c1.1,0,1.7-0.7,1.9-1.2l0.3,0.2C448.4,133,447.5,133.2,446.7,133.2L446.7,133.2z M448.1,129.5
			c0-0.8-0.2-2.2-1.5-2.2c-0.6,0-1.5,0.4-1.6,2.2H448.1z"/>
		<path class="st4" d="M451.6,128c0.6-0.7,1.3-1.1,2.1-1.1c1.3,0,1.9,0.8,1.9,2v3c0,0.8,0.1,0.9,0.7,0.9v0.3h-2.3v-0.3
			c0.6,0,0.7-0.1,0.7-0.9v-2.9c0-1.1-0.4-1.5-1.2-1.5c-0.6,0-1.2,0.5-1.8,1.2v3.2c0,0.8,0,0.9,0.7,0.9v0.3h-2.4v-0.3
			c0.7,0,0.8-0.1,0.8-0.9v-3.2c0-0.8-0.1-0.9-0.8-0.9v-0.3c0.6-0.1,1.1-0.3,1.5-0.6l0.1,0.1L451.6,128L451.6,128z"/>
		<path class="st4" d="M459.5,133.2c-1.6,0-2.7-1-2.7-3.3c0-1.6,0.9-3,2.6-3c1.9,0,2.5,1.6,2.5,3h-4.1c0,0.8,0.1,1.5,0.4,2
			c0.3,0.5,0.8,0.8,1.4,0.8c1.1,0,1.7-0.7,1.9-1.2l0.3,0.2C461.2,133,460.3,133.2,459.5,133.2L459.5,133.2z M460.9,129.5
			c0-0.8-0.2-2.2-1.5-2.2c-0.6,0-1.5,0.4-1.6,2.2H460.9z"/>
		<path class="st4" d="M464.3,128c0.6-0.7,1.3-1.1,2.1-1.1c1.3,0,1.9,0.8,1.9,2v3c0,0.8,0.1,0.9,0.7,0.9v0.3h-2.3v-0.3
			c0.6,0,0.7-0.1,0.7-0.9v-2.9c0-1.1-0.4-1.5-1.2-1.5c-0.6,0-1.2,0.5-1.8,1.2v3.2c0,0.8,0,0.9,0.7,0.9v0.3h-2.4v-0.3
			c0.7,0,0.8-0.1,0.8-0.9v-3.2c0-0.8-0.1-0.9-0.8-0.9v-0.3c0.6-0.1,1.1-0.3,1.5-0.6l0.1,0.1L464.3,128L464.3,128z"/>
		<path class="st4" d="M473.1,130.9c0.4,1.5,0.9,1.9,2.1,1.9c0.8,0,1.8-0.5,1.8-1.7c0-1.1-0.6-1.5-1.9-2.3c-0.8-0.5-1.6-1-1.9-1.5
			c-0.2-0.3-0.3-0.8-0.3-1.2c0-0.9,0.6-2.1,2.6-2.1c0.7,0,1.3,0.1,1.9,0.3c0.1,0.5,0.2,1.2,0.3,1.8l-0.5,0.1
			c-0.3-1.3-0.5-1.7-1.7-1.7c-0.8,0-1.6,0.5-1.6,1.4c0,0.9,0.5,1.2,1.7,2c0.9,0.6,1.6,0.9,1.9,1.4c0.3,0.4,0.5,0.9,0.5,1.5
			c0,1.4-1,2.4-2.9,2.4c-0.7,0-1.4-0.1-2.1-0.4c-0.1-0.8-0.2-1.3-0.4-1.9L473.1,130.9z"/>
		<path class="st4" d="M478.7,127.5v-0.3c1-0.1,1.2-0.6,1.5-1.8h0.3v1.7h1.6v0.4h-1.6v4.2c0,0.7,0.3,1,0.8,1c0.4,0,0.6-0.1,1-0.4
			l0.2,0.3c-0.4,0.4-0.9,0.5-1.4,0.5c-0.7,0-1.4-0.3-1.4-1.4v-4.3H478.7z"/>
		<path class="st4" d="M484.7,127v4.9c0,0.8,0,0.9,0.8,0.9v0.3h-2.7v-0.3c0.8,0,0.9-0.1,0.9-0.9v-3.3c0-0.8,0-0.8-0.9-0.8v-0.3
			c0.7-0.1,1.1-0.3,1.7-0.6L484.7,127z M484.8,125.4c0,0.5-0.3,0.8-0.6,0.8c-0.3,0-0.6-0.3-0.6-0.8c0-0.5,0.3-0.8,0.6-0.8
			C484.5,124.7,484.8,125,484.8,125.4z"/>
		<path class="st4" d="M486.1,132.7c0.9,0,0.9-0.1,0.9-0.9v-6.4c0-0.7,0-0.8-0.9-0.8v-0.3c0.7-0.1,1.2-0.3,1.7-0.6l0.1,0.1v8
			c0,0.8,0,0.9,0.9,0.9v0.3h-2.7V132.7z"/>
	</g>
</g>
<g>
	<path class="st4" d="M317.6,100.8c0-9.7,4.6-13.9,11.2-13.9c7.1,0,11.2,4.8,11.2,13.9c0,9.2-4,13.9-11.2,13.9
		C320.3,114.7,317.6,108.1,317.6,100.8z M323.2,90.9c-1.5,1.9-2.4,4.9-2.4,9.9c0,4.2,0.8,7.6,2.4,9.8c1.3,1.6,3.4,2.7,5.7,2.7
		s4.3-1,5.7-2.7c1.6-2.2,2.4-5.6,2.4-9.8c0-5-0.9-8-2.4-9.9c-1.4-1.8-3.5-2.6-5.6-2.6C326.6,88.3,324.5,89.2,323.2,90.9z"/>
	<path class="st4" d="M352.2,87.4c3.2,0,5.3,0.4,7.1,1.7c1.6,1.2,2.5,2.8,2.5,5.2c0,4.1-3.1,6.5-6.6,7l5.3,9.1
		c1.4,2.3,1.9,2.6,3.6,2.6v1.2h-4.8l-7.1-12.4h-3.3v8.4c0,2.6,0.2,2.8,2.8,2.8v1.2H343V113c2.6,0,2.8-0.2,2.8-2.8V91.4
		c0-2.6-0.2-2.8-2.8-2.8v-1.2H352.2z M349.8,88.9c-0.9,0-0.9,0.3-0.9,2.3v9.1h2.6c4.3,0,7.2-1.5,7.2-6c0-3-1.7-5.4-6.5-5.4H349.8z"
		/>
	<path class="st4" d="M365.5,114.1V113c2.6,0,2.8-0.2,2.8-2.8V91.4c0-2.6-0.2-2.8-2.8-2.8v-1.2h9.7c4,0,6.6,0.8,8.7,3
		c2.3,2.5,3.3,6,3.3,10.1c0,10.4-5.3,13.6-12.7,13.6H365.5z M372.5,88.9c-0.9,0-1.1,0.3-1.1,1.5v20.3c0,1.7,0.2,1.9,1.2,1.9h1.7
		c5.7,0,9.7-3.2,9.7-11.8c0-4.1-0.6-7-2.3-9.3c-1.6-2-3.8-2.7-6.6-2.7H372.5z"/>
	<path class="st4" d="M395.8,87.4l12.9,22.8h0.1V91.4c0-2.6-0.3-2.8-2.9-2.8v-1.2h7.2v1.2c-2.4,0-2.7,0.2-2.7,2.8v23h-2.2l-13.7-24
		h-0.1v19.8c0,2.6,0.3,2.8,2.8,2.8v1.2h-7.2V113c2.6,0,2.8-0.2,2.8-2.8V91.4c0-2.7-0.2-2.8-2.9-2.8v-1.2H395.8z"/>
	<path class="st4" d="M421.3,104.9c0,3,0.4,8,6.3,8c6.2,0,6.2-5.7,6.2-8V91.4c0-2.6-0.2-2.8-2.6-2.8v-1.2h6.8v1.2
		c-2.3,0-2.5,0.2-2.5,2.8v14.1c0,6.6-3.3,9.2-8.4,9.2c-8.4,0-8.9-5.5-8.9-9.6V91.4c0-2.6-0.2-2.8-2.6-2.8v-1.2h8.3v1.2
		c-2.5,0-2.6,0.1-2.6,2.8V104.9z"/>
	<path class="st4" d="M446.3,87.4l12.9,22.8h0.1V91.4c0-2.6-0.3-2.8-2.9-2.8v-1.2h7.2v1.2c-2.4,0-2.7,0.2-2.7,2.8v23h-2.2l-13.7-24
		h-0.1v19.8c0,2.6,0.3,2.8,2.8,2.8v1.2h-7.2V113c2.6,0,2.8-0.2,2.8-2.8V91.4c0-2.7-0.2-2.8-2.9-2.8v-1.2H446.3z"/>
	<path class="st4" d="M483.3,94.3c-0.7-3.8-1.2-6-5.5-6c-4.9,0-8.1,4.6-8.1,12.2c0,8.5,3.4,12.7,7.8,12.7c1.7,0,3.2-0.6,4.6-1.8V107
		c0-1.9-0.2-2.1-2.9-2.1v-1.2h8v1.2c-2.1,0-2.3,0.1-2.3,1.8v4.8c-2.3,2.3-5.4,3.1-7.6,3.1c-6.2,0-10.7-4.7-10.7-13.9
		c0-8.4,4.1-13.8,11.5-13.8c1.4,0,3.4,0.3,5.8,1.3c0.2,2.1,0.5,3.9,0.8,5.8L483.3,94.3z"/>
</g>
<g>
	<defs>
		<rect id="SVGID_15_" x="299.2" y="65.3" width="231.4" height="70.6"/>
	</defs>
	<clipPath id="SVGID_8_">
		<use xlink:href="#SVGID_15_"  style="overflow:visible;"/>
	</clipPath>
</g>
</svg>
