<?xml version="1.0" encoding="utf-8"?>
<svg version="1.1" id="Ebene_1" xmlns="http://www.w3.org/2000/svg" xmlns:xlink="http://www.w3.org/1999/xlink" x="0px" y="0px"
	 viewBox="0 0 1000.1 724.5" width="1000.1px" height="724.5px" style="enable-background:new 0 0 1000.1 724.5;" xml:space="preserve">
<style type="text/css">
	.st0{fill:none;stroke:#E73640;stroke-width:3.434;stroke-linecap:round;stroke-miterlimit:10;}
	.st1{clip-path:url(#SVGID_2_);fill:#E73640;}
	.st2{fill:none;}
	.st3{clip-path:url(#SVGID_6_);}
	.st4{fill:#283583;}
</style>
<g>
	<defs>
		<rect id="SVGID_1_" x="727.2" y="13.1" width="175.2" height="63.5"/>
	</defs>
	<clipPath id="SVGID_2_">
		<use xlink:href="#SVGID_1_"  style="overflow:visible;"/>
	</clipPath>
	<path class="st1" d="M741.5,68.2c1.2-0.6,2.3-1.3,3.2-2.2c0.9-0.8,1.7-1.8,2.2-2.8c0.6-1.1,0.8-2.2,0.8-3.5c0-0.8-0.1-1.6-0.4-2.3
		c-0.3-0.7-0.7-1.3-1.2-1.8c-0.5-0.5-1.1-0.9-1.8-1.2c-0.7-0.3-1.5-0.4-2.3-0.4c-1.5,0-2.8,0.4-4,1.3c-1.2,0.9-2.3,2-3.2,3.4
		c-1,1.4-1.8,2.8-2.5,4.4c-0.7,1.6-1.3,3.1-1.7,4.6c0-1.9,0.1-4,0.1-6.4c0-2.4,0.1-5,0.1-7.7c0-2.7,0.1-5.4,0.1-8.3
		c0-2.8,0.1-5.6,0.1-8.3c0-2.7,0.1-5.2,0.1-7.6c0-2.4,0.1-4.5,0.1-6.2c0-1.8,0-3.2,0.1-4.3c0-1.1,0-1.6,0-1.7c0-0.5-0.2-0.9-0.5-1.2
		c-0.3-0.3-0.7-0.4-1.1-0.4c-0.4,0-0.8,0.1-1.1,0.4c-0.3,0.3-0.5,0.7-0.5,1.1c0,0.2,0,0.9,0,2.1c0,1.2,0,2.7-0.1,4.5
		c0,1.9-0.1,4-0.1,6.4c0,2.4-0.1,4.9-0.1,7.6c0,2.7-0.1,5.4-0.1,8.2c-0.1,2.8-0.1,5.5-0.1,8.2c0,2.6-0.1,5.1-0.1,7.5
		c0,2.4-0.1,4.5-0.1,6.3c0,1.8,0,3.3-0.1,4.4c0,1.1,0,1.8,0,2c0,0.8,0.2,1.4,0.6,1.8c0.4,0.4,0.8,0.5,1.2,0.5c0.5,0,0.8-0.1,1.1-0.3
		c0.3-0.2,0.5-0.5,0.7-0.8c0.2-0.3,0.3-0.7,0.4-1c0.1-0.4,0.2-0.7,0.3-1c0.3-1,0.6-2.1,1-3.3c0.4-1.2,0.9-2.4,1.4-3.6
		c0.5-1.2,1.1-2.4,1.7-3.5c0.6-1.1,1.3-2.1,2-3c0.7-0.9,1.4-1.6,2.1-2.1c0.7-0.5,1.5-0.8,2.2-0.8c0.7,0,1.4,0.2,1.9,0.7
		c0.5,0.5,0.8,1.1,0.8,1.9c0,0.9-0.2,1.7-0.6,2.4c-0.4,0.7-0.9,1.4-1.7,2.1c-0.7,0.6-1.5,1.2-2.5,1.7c-1,0.5-2,0.9-3.2,1.3
		c-0.4,0.1-0.8,0.3-1,0.5c-0.2,0.2-0.4,0.4-0.6,0.7c-0.1,0.2-0.2,0.5-0.2,0.7c0,0.2,0,0.4,0,0.5c0,0.9,0.2,1.7,0.7,2.6
		c0.5,0.8,1.1,1.6,1.9,2.2c0.8,0.7,1.8,1.2,2.9,1.6c1.1,0.4,2.3,0.6,3.6,0.6c1.6,0,3.2-0.3,4.7-0.9c1.5-0.6,3-1.5,4.4-2.6
		c1.4-1.1,2.7-2.5,3.9-4.2c1.2-1.6,2.3-3.5,3.3-5.5c0.1-0.3,0.2-0.5,0.2-0.7c0-0.4-0.1-0.8-0.4-1.1c-0.3-0.3-0.7-0.5-1.2-0.5
		c-0.3,0-0.6,0.1-0.8,0.2c-0.3,0.2-0.5,0.4-0.6,0.7c-1.3,2.8-2.7,5-4.1,6.6c-1.4,1.6-2.8,2.7-4,3.4c-1.3,0.7-2.4,1.1-3.3,1.3
		c-1,0.1-1.7,0.2-2.1,0.2c-1.4,0-2.6-0.3-3.7-1c-1.1-0.6-1.9-1.5-2.4-2.6C739.1,69.4,740.3,68.9,741.5,68.2 M781.8,62.5
		c0-0.4-0.1-0.8-0.4-1.1c-0.3-0.3-0.7-0.5-1.2-0.5c-0.3,0-0.6,0.1-0.8,0.2c-0.3,0.2-0.5,0.4-0.6,0.7c-0.4,0.8-0.9,1.8-1.5,3
		c-0.7,1.3-1.4,2.5-2.3,3.7c-0.9,1.2-1.8,2.3-2.9,3.2c-1,0.9-2.1,1.3-3.3,1.3c-1.7,0-3.1-1-4.3-3.1c-1.2-2-2.1-4.9-2.8-8.5
		c1.6-2.9,3.1-5.8,4.5-8.9c1.4-3,2.6-6.1,3.6-9.1c1-3.1,1.8-6.1,2.4-9.1c0.6-3,0.9-5.9,0.9-8.8c0-2.3-0.1-4.2-0.4-5.8
		c-0.3-1.6-0.7-2.9-1.2-3.9c-0.5-1-1.1-1.7-1.9-2.1c-0.7-0.4-1.6-0.7-2.5-0.7c-1.2,0-2.2,0.5-3.2,1.4c-0.9,1-1.8,2.3-2.5,3.9
		c-0.7,1.6-1.3,3.5-1.9,5.7c-0.5,2.2-1,4.5-1.3,6.9c-0.3,2.4-0.6,4.9-0.7,7.5c-0.2,2.5-0.2,5-0.2,7.4c0,1.6,0,3.5,0.1,5.6
		c0.1,2.1,0.3,4.3,0.6,6.6c0.3,2.2,0.7,4.5,1.2,6.6c0.5,2.2,1.2,4.1,2.1,5.8c0.8,1.7,1.9,3.1,3.1,4.1c1.2,1,2.7,1.6,4.4,1.6
		c1.1,0,2.1-0.2,3.1-0.7c1-0.5,1.9-1.1,2.8-1.8c0.9-0.7,1.7-1.6,2.4-2.5c0.7-0.9,1.4-1.9,2-2.9c0.6-1,1.1-1.9,1.6-2.8
		c0.5-0.9,0.9-1.7,1.2-2.3C781.7,62.9,781.8,62.7,781.8,62.5 M760.6,39c0.2-2.4,0.4-4.7,0.6-6.9c0.3-2.2,0.6-4.3,1-6.2
		c0.4-1.9,0.8-3.6,1.3-5c0.5-1.4,1-2.5,1.5-3.3c0.6-0.8,1.1-1.2,1.7-1.2c0.9,0,1.6,0.7,2.2,2.2c0.5,1.4,0.8,3.8,0.8,7.2
		c0,2.4-0.2,4.9-0.7,7.5c-0.5,2.6-1.2,5.2-2,7.9c-0.8,2.6-1.8,5.3-2.8,7.8c-1.1,2.6-2.2,5-3.4,7.3c-0.1-1.5-0.3-3.1-0.3-4.8
		c-0.1-1.7-0.1-3.4-0.1-5.2C760.3,43.8,760.4,41.4,760.6,39 M786.9,68.4c1-0.7,1.8-1.5,2.5-2.4c0.7-0.9,1.2-1.8,1.6-2.8
		c0.4-1,0.6-2.1,0.6-3.3c0-0.9-0.2-1.7-0.5-2.4c-0.3-0.7-0.7-1.3-1.2-1.8c-0.5-0.5-1.1-0.9-1.7-1.1c-0.6-0.3-1.3-0.4-1.9-0.4
		c-1.1,0-2.1,0.3-3,0.8c-0.9,0.5-1.7,1.2-2.4,2.1c-0.7,0.9-1.2,2-1.5,3.2c-0.4,1.2-0.5,2.5-0.5,4c0,1.4,0.2,2.9,0.6,4.3
		s1.1,2.7,2,3.9c0.9,1.1,2,2.1,3.3,2.8c1.4,0.7,3,1.1,4.8,1.1c2.9-0.1,5.5-1.2,7.8-3.4c2.3-2.2,4.4-5.4,6.4-9.7
		c0.1-0.1,0.1-0.2,0.1-0.3c0-0.1,0-0.2,0-0.4c0-0.4-0.1-0.8-0.4-1.1c-0.3-0.3-0.7-0.5-1.2-0.5c-0.3,0-0.6,0.1-0.8,0.2
		c-0.3,0.2-0.5,0.4-0.6,0.7c-0.6,1.3-1.3,2.7-2,4c-0.7,1.3-1.6,2.5-2.5,3.6c-0.9,1.1-2,1.9-3.1,2.6c-1.1,0.7-2.4,1-3.8,1
		c-1.4,0-2.5-0.2-3.4-0.7c-0.9-0.5-1.7-1.2-2.3-2C784.9,69.8,785.9,69.1,786.9,68.4 M782.2,65.9c-0.1-0.6-0.1-1.1-0.1-1.6
		c0-0.8,0.1-1.6,0.2-2.5c0.2-0.8,0.4-1.6,0.7-2.3c0.3-0.7,0.8-1.2,1.3-1.7c0.5-0.4,1.2-0.6,2-0.6c0.6,0,1.1,0.2,1.5,0.7
		c0.4,0.4,0.6,1.1,0.6,1.9c0,0.8-0.1,1.5-0.4,2.3c-0.3,0.8-0.7,1.5-1.2,2.1c-0.5,0.7-1.1,1.3-1.8,1.9c-0.7,0.6-1.5,1-2.4,1.4
		C782.4,67,782.3,66.5,782.2,65.9 M807.5,40.2c-0.2-0.5-0.5-0.9-0.8-1.2c-0.4-0.4-0.8-0.6-1.2-0.8c-0.5-0.2-1-0.3-1.5-0.3
		c-0.5,0-1,0.1-1.5,0.3c-0.5,0.2-0.9,0.5-1.2,0.8c-0.4,0.4-0.6,0.8-0.8,1.2c-0.2,0.5-0.3,1-0.3,1.5c0,1.1,0.4,2,1.1,2.7
		c0.7,0.7,1.7,1.1,2.7,1.1s2-0.4,2.7-1.1c0.7-0.7,1.1-1.7,1.1-2.7C807.8,41.1,807.7,40.6,807.5,40.2 M801.4,70.5
		c0.3,1.2,0.8,2.3,1.5,3.2c0.7,0.9,1.5,1.6,2.4,2.2c1,0.5,2.1,0.8,3.4,0.8c1,0,2-0.2,2.9-0.7c1-0.5,1.9-1.1,2.8-1.9
		c0.9-0.8,1.7-1.7,2.5-2.6c0.8-1,1.5-2,2.1-2.9c0.6-1,1.2-2,1.7-2.9c0.5-0.9,0.9-1.7,1.3-2.4c0.1-0.2,0.2-0.4,0.2-0.7
		c0-0.4-0.1-0.8-0.4-1.1c-0.3-0.3-0.7-0.5-1.1-0.5c-0.3,0-0.6,0.1-0.8,0.2c-0.3,0.2-0.5,0.4-0.6,0.7c-0.9,1.8-1.8,3.3-2.7,4.8
		c-0.9,1.4-1.8,2.7-2.7,3.7c-0.9,1-1.8,1.8-2.6,2.4c-0.8,0.6-1.7,0.8-2.5,0.8c-0.5,0-1-0.1-1.5-0.3c-0.5-0.2-1-0.5-1.5-1
		c-0.5-0.5-0.8-1.2-1.1-2.1s-0.4-2.1-0.4-3.6c0-1.1,0-2.3,0.1-3.6c0.1-1.3,0.2-2.6,0.3-3.7c0.1-1.2,0.2-2.2,0.3-3
		c0.1-0.8,0.1-1.4,0.1-1.5c0-0.4-0.1-0.8-0.4-1.1c-0.3-0.3-0.6-0.5-1.1-0.5c-0.5,0-0.9,0.1-1.2,0.4s-0.5,0.6-0.5,1
		c-0.5,4-0.8,8.1-0.8,12.2C800.9,68,801.1,69.3,801.4,70.5 M805,42.7c-0.3,0.3-0.6,0.4-1,0.4c-0.4,0-0.7-0.1-1-0.4
		c-0.3-0.3-0.4-0.6-0.4-1c0-0.4,0.1-0.7,0.4-1c0.3-0.3,0.6-0.4,1-0.4c0.4,0,0.7,0.1,1,0.4c0.3,0.3,0.4,0.6,0.4,1
		C805.4,42.1,805.3,42.4,805,42.7 M838.1,56.1c0.9-2.5,1.8-5.3,2.7-8.3c0.8-3,1.5-6.1,2.1-9.4c0.6-3.3,0.8-6.6,0.8-9.8
		c0-1.5-0.1-2.9-0.3-4.2c-0.2-1.3-0.5-2.4-0.9-3.3c-0.4-0.9-0.9-1.6-1.6-2.1c-0.7-0.5-1.4-0.8-2.4-0.8c-1,0-2,0.4-2.8,1.1
		c-0.8,0.7-1.5,1.7-2.1,2.9c-0.6,1.2-1.1,2.7-1.5,4.3c-0.4,1.6-0.8,3.4-1,5.2c-0.3,1.8-0.4,3.7-0.6,5.6c-0.1,1.9-0.2,3.7-0.2,5.5
		c0,4,0.2,7.6,0.6,10.9c0.4,3.3,0.8,6.1,1.3,8.6c-0.8,2.1-1.6,3.8-2.3,5.1c-0.7,1.3-1.3,2.3-1.9,3c-0.6,0.7-1.1,1.2-1.6,1.4
		c-0.5,0.2-1,0.4-1.4,0.4c-1.1,0-1.9-0.4-2.5-1.2c-0.6-0.8-0.9-1.9-0.9-3.3c0-1.7,0.3-3.2,0.8-4.5c0.5-1.2,1.2-2.3,2-3.1
		c0.8-0.8,1.7-1.4,2.7-1.8c1-0.4,1.9-0.7,2.7-0.8c0.4-0.1,0.8-0.2,1-0.6c0.3-0.3,0.4-0.7,0.4-1.1c0-0.5-0.2-0.8-0.5-1.1
		c-0.3-0.3-0.7-0.4-1.1-0.4c-1.3,0-2.6,0.3-3.9,1c-1.3,0.7-2.5,1.6-3.6,2.7c-1.1,1.2-2,2.6-2.6,4.2c-0.7,1.6-1,3.4-1,5.4
		c0,1.4,0.2,2.6,0.6,3.6c0.4,1,0.8,1.8,1.4,2.4c0.6,0.6,1.3,1.1,2.1,1.3c0.8,0.3,1.6,0.4,2.5,0.4c1.6,0,3.1-0.7,4.5-2
		c1.4-1.3,2.8-3.4,4.1-6.3c1,3,2.2,5.2,3.5,6.5s3,2,4.9,2c1,0,2-0.2,2.9-0.7c0.9-0.5,1.8-1.1,2.6-1.9c0.8-0.8,1.6-1.6,2.2-2.6
		c0.7-1,1.3-1.9,1.8-2.8c0.6-0.9,1-1.8,1.4-2.6c0.4-0.8,0.7-1.4,0.9-1.9c0.1-0.2,0.1-0.4,0.1-0.6c0-0.4-0.2-0.8-0.5-1.1
		c-0.3-0.3-0.7-0.5-1.1-0.5c-0.7,0-1.2,0.3-1.5,1c-0.4,0.9-0.9,2-1.5,3.2c-0.6,1.2-1.3,2.4-2.1,3.5c-0.8,1.1-1.7,2-2.6,2.8
		c-0.9,0.7-1.9,1.1-2.9,1.1c-2.6,0-4.6-3.3-6-9.8C836.4,60.8,837.2,58.6,838.1,56.1 M840.1,35.8c-0.3,2.4-0.8,4.9-1.3,7.3
		c-0.6,2.4-1.2,4.8-1.9,7.1c-0.7,2.3-1.5,4.5-2.3,6.7c-0.3-2-0.5-4.2-0.7-6.7c-0.2-2.5-0.3-5-0.3-7.5c0-2.6,0.1-5.2,0.4-7.7
		c0.3-2.6,0.6-4.8,1.1-6.9c0.5-2,1-3.7,1.6-4.9c0.6-1.2,1.3-1.9,2-1.9c0.4,0,0.8,0.2,1,0.7c0.3,0.5,0.5,1.1,0.6,1.8
		c0.2,0.7,0.3,1.5,0.3,2.3c0,0.8,0.1,1.6,0.1,2.3C840.6,30.9,840.4,33.3,840.1,35.8 M859,68.4c1-0.7,1.8-1.5,2.5-2.4
		c0.7-0.9,1.2-1.8,1.6-2.8c0.4-1,0.6-2.1,0.6-3.3c0-0.9-0.2-1.7-0.5-2.4c-0.3-0.7-0.7-1.3-1.2-1.8c-0.5-0.5-1.1-0.9-1.7-1.1
		c-0.6-0.3-1.3-0.4-1.9-0.4c-1.1,0-2.1,0.3-3,0.8c-0.9,0.5-1.7,1.2-2.4,2.1c-0.7,0.9-1.2,2-1.5,3.2c-0.4,1.2-0.5,2.5-0.5,4
		c0,1.4,0.2,2.9,0.6,4.3c0.4,1.4,1.1,2.7,2,3.9c0.9,1.1,2,2.1,3.4,2.8c1.4,0.7,3,1.1,4.8,1.1c2.9-0.1,5.5-1.2,7.8-3.4
		c2.3-2.2,4.4-5.4,6.4-9.7c0.1-0.1,0.1-0.2,0.1-0.3c0-0.1,0-0.2,0-0.4c0-0.4-0.1-0.8-0.4-1.1c-0.3-0.3-0.7-0.5-1.2-0.5
		c-0.3,0-0.6,0.1-0.8,0.2c-0.3,0.2-0.5,0.4-0.6,0.7c-0.6,1.3-1.3,2.7-2,4c-0.7,1.3-1.6,2.5-2.5,3.6c-0.9,1.1-2,1.9-3.1,2.6
		c-1.1,0.7-2.4,1-3.8,1c-1.4,0-2.5-0.2-3.4-0.7c-0.9-0.5-1.7-1.2-2.3-2C857.1,69.8,858.1,69.1,859,68.4 M854.3,65.9
		c-0.1-0.6-0.1-1.1-0.1-1.6c0-0.8,0.1-1.6,0.2-2.5c0.2-0.8,0.4-1.6,0.7-2.3c0.3-0.7,0.8-1.2,1.3-1.7c0.5-0.4,1.2-0.6,2-0.6
		c0.6,0,1.1,0.2,1.5,0.7c0.4,0.4,0.6,1.1,0.6,1.9c0,0.8-0.1,1.5-0.4,2.3c-0.3,0.8-0.7,1.5-1.2,2.1c-0.5,0.7-1.1,1.3-1.8,1.9
		c-0.7,0.6-1.5,1-2.4,1.4C854.5,67,854.4,66.5,854.3,65.9 M879,57.5h1.3c0.8,0,1.4,0.1,1.6,0.4c0.2,0.3,0.4,0.7,0.4,1.2
		c0,1.3-0.1,2.6-0.4,4c-0.3,1.4-0.4,2.8-0.4,4.2c0,1.3,0.2,2.5,0.6,3.6c0.4,1.1,0.9,2,1.6,2.7c0.7,0.7,1.4,1.3,2.4,1.7
		c0.9,0.4,1.9,0.6,2.9,0.6c1.6,0,3.1-0.4,4.5-1.3c1.4-0.9,2.6-2,3.7-3.2c1.1-1.3,2.1-2.6,2.9-4.1c0.9-1.5,1.6-2.8,2.3-3.9
		c0.1-0.2,0.2-0.5,0.2-0.8c0-0.4-0.1-0.8-0.4-1.1c-0.3-0.3-0.7-0.5-1.2-0.5c-0.3,0-0.6,0.1-0.8,0.2c-0.3,0.1-0.5,0.3-0.6,0.6
		c-0.5,0.9-1.1,2-1.8,3.3c-0.7,1.2-1.5,2.4-2.4,3.5c-0.9,1.1-1.9,2.1-3,2.9c-1.1,0.8-2.2,1.2-3.4,1.2c-0.4,0-0.8-0.1-1.3-0.2
		c-0.5-0.2-0.9-0.4-1.4-0.8c-0.4-0.4-0.8-0.9-1.1-1.6c-0.3-0.7-0.4-1.5-0.4-2.5c0-0.7,0-1.4,0.1-2.2c0.1-0.7,0.2-1.5,0.3-2.2
		c0.1-0.7,0.2-1.5,0.3-2.2c0.1-0.7,0.1-1.4,0.1-2c0-1.6-0.4-2.8-1.3-3.5c-0.8-0.7-2.1-1.1-3.7-1.1c-0.4,0-0.9,0-1.3,0
		c-0.5,0-0.9,0-1.4,0c0-0.6,0-1.2-0.1-2c-0.1-0.8-0.3-1.5-0.5-2.2c-0.2-0.7-0.5-1.3-1-1.8c-0.4-0.5-0.9-0.7-1.6-0.7
		c-0.6,0-1.1,0.3-1.7,0.9c-0.6,0.6-1.1,1.3-1.5,2.1c-0.5,0.8-0.8,1.6-1.1,2.4c-0.3,0.8-0.4,1.5-0.4,2c0,0.7,0.1,1.2,0.4,1.5
		c0.3,0.4,0.6,0.6,1.1,0.8c0.4,0.2,0.9,0.3,1.4,0.3c0.5,0,1,0,1.5,0c-0.3,1.2-0.5,2.2-0.6,2.8s-0.3,1-0.4,1.3
		c-0.1,0.3-0.2,0.4-0.3,0.5c-0.1,0.1-0.1,0.2-0.1,0.4c0,0.5,0.2,0.8,0.5,1.1c0.3,0.3,0.7,0.4,1.1,0.4c0.7,0,1.2-0.3,1.5-1
		c0,0,0.1-0.2,0.2-0.5c0.1-0.3,0.2-0.7,0.4-1.2c0.2-0.5,0.3-1.1,0.5-1.7c0.2-0.7,0.3-1.4,0.4-2.1C878,57.5,878.5,57.5,879,57.5
		 M872.8,54.4c0.1-0.2,0.1-0.5,0.3-0.8c0.1-0.3,0.2-0.7,0.4-1c0.1-0.3,0.3-0.6,0.4-0.8c0.1-0.2,0.2-0.3,0.3-0.3
		c0.1,0,0.2,0.1,0.2,0.3c0.1,0.2,0.1,0.5,0.2,0.8c0,0.3,0.1,0.6,0.1,1c0,0.3,0,0.6,0,0.8H872.8z"/>
</g>
<path class="st0" d="M901,63.4c3.1-5.3,5.2-6.3,8.2-8.9c4.4-3.7,10.7-1.9,15,1.9c4.3,3.8,7.2,9.3,10.8,13.9
	c4.8,6.1,10.8,10.8,17.5,13.5l24.5,9 M729,76.7c-2.1,10.1-13.3,18.2-30.9,21c-16.6,2.8-32.9-4-32.9-4
	C517.8,40.4,602.3,18.3,610,58.9c2,41.6-69.5,36-83.9,34.9c-14.4-1.1-50.5-5.8-50.5-5.8s-48.3-14.3-45.6,96.6
	c5.7,88.9,7.9,161.4-18.1,225.1c-26,63.7-63,171.3-63,171.3s-41.1,129.9-113.1,43.9c-27.5-57.9-9.8-117.5,40.7-160.3
	c50.5-42.8,116.1-110.9,46-204.2c-16-21.9-73.5-50.5-114.2,64.8c-9,34-14.7,46.1-14.7,46.1s-47.9-88.9-95.8-98.8
	C49.9,262.5-10,322.9,47.7,430.5C88,492,118,500,138.1,511c59.9,32.6,81.7,95,89.3,116c11.9,32.8,14.7,73.9-9,102.2"/>
<rect x="11" y="13.1" class="st2" width="987.1" height="729.1"/>
<rect x="11" y="13.1" class="st2" width="987.1" height="729.1"/>
<g>
	<defs>
		<rect id="SVGID_3_" x="721" y="73.4" width="220" height="68"/>
	</defs>
	<clipPath id="SVGID_4_">
		<use xlink:href="#SVGID_3_"  style="overflow:visible;"/>
	</clipPath>
</g>
<g>
	<defs>
		<rect id="SVGID_5_" x="721" y="72.1" width="231.4" height="70.6"/>
	</defs>
	<clipPath id="SVGID_6_">
		<use xlink:href="#SVGID_5_"  style="overflow:visible;"/>
	</clipPath>
	<g class="st3">
		<path class="st4" d="M728.5,134.2c1,0,1-0.1,1-0.9V127c0-0.9-0.1-0.9-1-0.9v-0.4h3.1v0.4c-1,0-1,0.1-1,0.9v6.3
			c0,0.9,0.1,0.9,1,0.9v0.4h-3.1V134.2z"/>
		<path class="st4" d="M732.3,134.2c0.7,0,0.8-0.1,0.8-0.9v-6.4c0-0.7-0.1-0.8-0.8-0.8v-0.3c0.6-0.1,1.1-0.3,1.6-0.6l0.1,0.1v4.1h0
			c0.6-0.7,1.3-1.1,2.1-1.1c1.8,0,1.8,1.5,1.8,2.2v2.8c0,0.8,0.1,0.9,0.7,0.9v0.3h-2.4v-0.3c0.7,0,0.7-0.1,0.7-0.9v-2.7
			c0-0.9-0.1-1.8-1.2-1.8c-0.6,0-1.2,0.5-1.8,1.2v3.2c0,0.8,0.1,0.9,0.7,0.9v0.3h-2.4V134.2z"/>
		<path class="st4" d="M740.9,129.4L740.9,129.4c0.6-0.7,1-1,1.6-1c0.7,0,1,0.5,1,0.9c0,0.3-0.2,0.5-0.4,0.5c-0.2,0-0.3-0.1-0.5-0.4
			c-0.1-0.3-0.2-0.4-0.4-0.4c-0.4,0-0.9,0.5-1.3,1.1v3.3c0,0.8,0.1,0.9,0.9,0.9v0.3h-2.7v-0.3c0.7,0,0.8-0.1,0.8-0.9v-3.3
			c0-0.8-0.1-0.8-0.8-0.8v-0.3c0.6-0.1,1-0.2,1.5-0.6l0.1,0.1L740.9,129.4z"/>
		<path class="st4" d="M748.9,129.4L748.9,129.4c0.6-0.7,1-1,1.6-1c0.7,0,1,0.5,1,0.9c0,0.3-0.2,0.5-0.4,0.5c-0.2,0-0.3-0.1-0.5-0.4
			c-0.1-0.3-0.2-0.4-0.4-0.4c-0.4,0-0.9,0.5-1.3,1.1v3.3c0,0.8,0.1,0.9,0.9,0.9v0.3h-2.7v-0.3c0.7,0,0.8-0.1,0.8-0.9v-3.3
			c0-0.8-0.1-0.8-0.8-0.8v-0.3c0.6-0.1,1-0.2,1.5-0.6l0.1,0.1L748.9,129.4z"/>
		<path class="st4" d="M752.1,131.5c0-1.6,0.7-3.1,2.8-3.1c1.9,0,2.8,1.2,2.8,3.1c0,1.7-0.6,3.2-2.8,3.2
			C753.1,134.7,752.1,133.6,752.1,131.5z M753.1,131.5c0,2.4,1.1,2.8,1.8,2.8c1.5,0,1.8-1.4,1.8-2.8c0-1.8-0.6-2.7-1.8-2.7
			C753.7,128.8,753.1,129.7,753.1,131.5z"/>
		<path class="st4" d="M758.4,129v-0.3c0.9-0.1,1.2-0.6,1.5-1.8h0.3v1.7h1.6v0.4h-1.6v4.2c0,0.7,0.3,1,0.8,1c0.4,0,0.6-0.1,1-0.4
			l0.2,0.3c-0.4,0.4-0.9,0.5-1.4,0.5c-0.7,0-1.4-0.3-1.4-1.4V129H758.4z"/>
		<path class="st4" d="M765.4,134.7c-1.6,0-2.7-1-2.7-3.3c0-1.6,0.9-3,2.6-3c1.9,0,2.5,1.6,2.5,3h-4.1c0,0.8,0.1,1.5,0.4,2
			c0.3,0.5,0.8,0.8,1.4,0.8c1.1,0,1.7-0.7,1.9-1.2l0.3,0.2C767,134.5,766.1,134.7,765.4,134.7L765.4,134.7z M766.7,131
			c0-0.8-0.2-2.2-1.5-2.2c-0.6,0-1.5,0.4-1.6,2.2H766.7z"/>
		<path class="st4" d="M770.1,129.4L770.1,129.4c0.6-0.7,1-1,1.6-1c0.7,0,1,0.5,1,0.9c0,0.3-0.2,0.5-0.4,0.5c-0.2,0-0.3-0.1-0.5-0.4
			c-0.1-0.3-0.2-0.4-0.4-0.4c-0.4,0-0.9,0.5-1.3,1.1v3.3c0,0.8,0.1,0.9,0.9,0.9v0.3h-2.7v-0.3c0.7,0,0.8-0.1,0.8-0.9v-3.3
			c0-0.8-0.1-0.8-0.8-0.8v-0.3c0.6-0.1,1-0.2,1.5-0.6l0.1,0.1L770.1,129.4z"/>
		<path class="st4" d="M781.1,128.6v3h-0.5c0-1.2-0.1-1.3-0.6-1.3h-1.6v3c0,0.9,0.1,0.9,1.1,0.9v0.4h-3.1v-0.4c0.9,0,1-0.1,1-0.9
			V127c0-0.9-0.1-0.9-1-0.9v-0.4h5.4l0.4,1.9h-0.5c-0.3-1.3-0.4-1.4-1.1-1.4h-1.8c-0.4,0-0.4,0.1-0.4,0.6v3h1.5
			c0.5,0,0.7-0.1,0.7-1.2H781.1z"/>
		<path class="st4" d="M786.6,130.1c0-0.9-0.3-1.3-1.2-1.3c-0.7,0-1.1,0.3-1.4,1c-0.1,0.2-0.2,0.3-0.5,0.3c-0.3,0-0.4-0.2-0.4-0.4
			c0-0.5,0.8-1.3,2.3-1.3c1.2,0,2.1,0.4,2.1,1.9v3.1c0,0.6,0.1,0.9,0.4,0.9c0.1,0,0.3,0,0.4-0.1l0.1,0.3c-0.2,0.1-0.5,0.2-0.8,0.2
			c-0.5,0-0.8-0.2-0.9-0.7h0c-0.5,0.4-1,0.8-1.9,0.8c-0.9,0-1.8-0.5-1.8-1.6c0-0.6,0.2-1.1,0.8-1.5c0.5-0.3,1.2-0.6,2.1-0.8l0.8-0.2
			V130.1z M786.6,131.1c-2.1,0.5-2.7,1.1-2.7,1.9c0,0.7,0.5,1.2,1.2,1.2c0.7,0,1.2-0.3,1.5-0.7V131.1z"/>
		<path class="st4" d="M793.3,129v-2.1c0-0.7-0.1-0.8-0.8-0.8v-0.3c0.7-0.1,1.1-0.2,1.6-0.6l0.1,0.1v8.2c0,0.7,0.1,0.7,0.7,0.7v0.3
			c-0.5,0-1,0-1.5,0.2l-0.1-0.1l0-0.7h0c-0.3,0.3-0.9,0.8-1.8,0.8c-1,0-2.5-0.5-2.5-3.3c0-1.6,0.8-3,2.7-3
			C792.4,128.4,793,128.7,793.3,129L793.3,129z M793.3,129.7c-0.3-0.5-0.9-0.9-1.5-0.9c-1.7,0-1.8,1.8-1.8,2.7
			c0,1.7,0.7,2.7,1.8,2.7c0.7,0,1.2-0.5,1.6-0.9V129.7z"/>
		<path class="st4" d="M798.4,134.7c-1.6,0-2.7-1-2.7-3.3c0-1.6,0.9-3,2.6-3c1.9,0,2.5,1.6,2.5,3h-4.1c0,0.8,0.1,1.5,0.4,2
			c0.3,0.5,0.8,0.8,1.4,0.8c1.1,0,1.7-0.7,1.9-1.2l0.3,0.2C800.1,134.5,799.1,134.7,798.4,134.7L798.4,134.7z M799.8,131
			c0-0.8-0.2-2.2-1.5-2.2c-0.6,0-1.5,0.4-1.6,2.2H799.8z"/>
		<path class="st4" d="M803.2,129.5c0.6-0.7,1.3-1.1,2.1-1.1c1.3,0,1.9,0.8,1.9,2v3c0,0.8,0.1,0.9,0.7,0.9v0.3h-2.3v-0.3
			c0.6,0,0.7-0.1,0.7-0.9v-2.9c0-1.1-0.4-1.5-1.2-1.5c-0.6,0-1.2,0.5-1.8,1.2v3.2c0,0.8,0,0.9,0.7,0.9v0.3h-2.4v-0.3
			c0.7,0,0.8-0.1,0.8-0.9v-3.2c0-0.8-0.1-0.9-0.8-0.9v-0.3c0.6-0.1,1.1-0.3,1.5-0.6l0.1,0.1L803.2,129.5L803.2,129.5z"/>
		<path class="st4" d="M811.7,130.1l0.3-1.6h4.3l0.1,0.2l-3.7,5.4h2.3c0.6,0,0.8-0.2,1-1.2h0.4l-0.3,1.6h-4.5l-0.1-0.2l3.7-5.4H813
			c-0.7,0-0.8,0.2-1,1.1H811.7z"/>
		<path class="st4" d="M822.3,133.4c0,0.8,0,0.9,0.8,0.9v0.3c-0.4,0-1,0-1.6,0.2l-0.1,0l-0.1-0.9h0c-0.4,0.5-1.1,0.9-1.9,0.9
			c-1,0-1.9-0.3-1.9-2.2V130c0-0.7,0-0.8-0.7-0.8v-0.3c0.5-0.1,1-0.3,1.5-0.6l0.1,0.1v3.9c0,0.9,0.2,1.8,1.2,1.8
			c0.6,0,1.2-0.4,1.7-1V130c0-0.8,0-0.8-0.7-0.8v-0.3c0.5-0.1,1-0.3,1.5-0.6l0.1,0.1V133.4z"/>
		<path class="st4" d="M829,129.5c0.5-0.6,1.1-1.1,2-1.1c0.5,0,0.9,0.1,1.3,0.5c0.3,0.3,0.5,0.8,0.5,1.6v2.9c0,0.7,0.1,0.8,0.7,0.8
			v0.3H831v-0.3c0.6,0,0.7-0.1,0.7-0.8v-2.9c0-0.6-0.1-1.7-1.1-1.7c-0.7,0-1.2,0.5-1.6,1.1v3.4c0,0.7,0.1,0.8,0.7,0.8v0.3h-2.3v-0.3
			c0.6,0,0.7-0.1,0.7-0.8v-2.9c0-0.6,0-1.7-1-1.7c-0.5,0-1,0.4-1.6,1.1v3.4c0,0.7,0.1,0.8,0.7,0.8v0.3h-2.4v-0.3
			c0.7,0,0.8-0.1,0.8-0.9v-3.2c0-0.8-0.1-0.9-0.8-0.9v-0.3c0.6-0.1,1.1-0.3,1.5-0.6l0.1,0.1l0,0.9h0c0.5-0.5,1.1-1,1.9-1
			C828.3,128.4,828.8,128.9,829,129.5L829,129.5z"/>
		<path class="st4" d="M839.9,134.7c-1.6,0-2.7-1-2.7-3.3c0-1.6,0.9-3,2.6-3c1.9,0,2.5,1.6,2.5,3h-4.1c0,0.8,0.1,1.5,0.4,2
			c0.3,0.5,0.8,0.8,1.4,0.8c1.1,0,1.7-0.7,1.9-1.2l0.3,0.2C841.6,134.5,840.7,134.7,839.9,134.7L839.9,134.7z M841.3,131
			c0-0.8-0.2-2.2-1.5-2.2c-0.6,0-1.5,0.4-1.6,2.2H841.3z"/>
		<path class="st4" d="M844.9,128.5v4.9c0,0.8,0,0.9,0.8,0.9v0.3H843v-0.3c0.8,0,0.9-0.1,0.9-0.9V130c0-0.8,0-0.8-0.9-0.8v-0.3
			c0.7-0.1,1.1-0.3,1.7-0.6L844.9,128.5z M844.9,126.9c0,0.5-0.3,0.8-0.6,0.8c-0.3,0-0.6-0.3-0.6-0.8c0-0.5,0.3-0.8,0.6-0.8
			C844.7,126.1,844.9,126.4,844.9,126.9z"/>
		<path class="st4" d="M850.9,129.1c0.4,0.4,0.7,0.9,0.7,1.6c0,1.5-1.2,2.2-2.4,2.2c-0.4,0-0.8-0.1-1.2-0.2
			c-0.4,0.2-0.6,0.5-0.6,0.7c0,0.4,0.4,0.5,1.1,0.5h1.3c1.8,0,2.4,0.9,2.4,1.7c0,1.2-1.1,2.2-3.2,2.2c-1.6,0-2.8-0.5-2.8-1.6
			c0-0.8,0.7-1.4,1.4-1.7c-0.5-0.1-0.9-0.4-0.9-0.9c0-0.5,0.4-0.9,0.9-1.1c-0.6-0.4-1-1-1-1.8c0-1.4,1.1-2.2,2.4-2.2
			c0.6,0,1.1,0.2,1.4,0.3l1.7-0.2v0.6L850.9,129.1z M848.1,134.6c-0.7,0.4-1.1,0.9-1.1,1.5c0,0.8,0.8,1.3,2,1.3
			c1.6,0,2.3-0.8,2.3-1.6c0-0.6-0.3-1.2-1.7-1.2H848.1z M850.6,130.6c0-0.9-0.5-1.8-1.5-1.8c-1,0-1.5,0.9-1.5,1.8
			c0,1.1,0.6,1.8,1.5,1.8C850.1,132.4,850.6,131.6,850.6,130.6z"/>
		<path class="st4" d="M855.6,134.7c-1.6,0-2.7-1-2.7-3.3c0-1.6,0.9-3,2.6-3c1.9,0,2.5,1.6,2.5,3h-4.1c0,0.8,0.1,1.5,0.4,2
			c0.3,0.5,0.8,0.8,1.4,0.8c1.1,0,1.7-0.7,1.9-1.2l0.3,0.2C857.3,134.5,856.3,134.7,855.6,134.7L855.6,134.7z M856.9,131
			c0-0.8-0.2-2.2-1.5-2.2c-0.6,0-1.5,0.4-1.6,2.2H856.9z"/>
		<path class="st4" d="M860.4,129.5c0.6-0.7,1.3-1.1,2.1-1.1c1.3,0,1.9,0.8,1.9,2v3c0,0.8,0.1,0.9,0.7,0.9v0.3h-2.3v-0.3
			c0.6,0,0.7-0.1,0.7-0.9v-2.9c0-1.1-0.4-1.5-1.2-1.5c-0.6,0-1.2,0.5-1.8,1.2v3.2c0,0.8,0,0.9,0.7,0.9v0.3h-2.4v-0.3
			c0.7,0,0.8-0.1,0.8-0.9v-3.2c0-0.8-0.1-0.9-0.8-0.9v-0.3c0.6-0.1,1.1-0.3,1.5-0.6l0.1,0.1L860.4,129.5L860.4,129.5z"/>
		<path class="st4" d="M868.3,134.7c-1.6,0-2.7-1-2.7-3.3c0-1.6,0.9-3,2.6-3c1.9,0,2.5,1.6,2.5,3h-4.1c0,0.8,0.1,1.5,0.4,2
			c0.3,0.5,0.8,0.8,1.4,0.8c1.1,0,1.7-0.7,1.9-1.2l0.3,0.2C870,134.5,869.1,134.7,868.3,134.7L868.3,134.7z M869.7,131
			c0-0.8-0.2-2.2-1.5-2.2c-0.6,0-1.5,0.4-1.6,2.2H869.7z"/>
		<path class="st4" d="M873.2,129.5c0.6-0.7,1.3-1.1,2.1-1.1c1.3,0,1.9,0.8,1.9,2v3c0,0.8,0.1,0.9,0.7,0.9v0.3h-2.3v-0.3
			c0.6,0,0.7-0.1,0.7-0.9v-2.9c0-1.1-0.4-1.5-1.2-1.5c-0.6,0-1.2,0.5-1.8,1.2v3.2c0,0.8,0,0.9,0.7,0.9v0.3h-2.4v-0.3
			c0.7,0,0.8-0.1,0.8-0.9v-3.2c0-0.8-0.1-0.9-0.8-0.9v-0.3c0.6-0.1,1.1-0.3,1.5-0.6l0.1,0.1L873.2,129.5L873.2,129.5z"/>
		<path class="st4" d="M882,132.4c0.4,1.5,0.9,1.9,2.1,1.9c0.8,0,1.8-0.5,1.8-1.7c0-1.1-0.6-1.5-1.9-2.3c-0.8-0.5-1.6-1-1.9-1.5
			c-0.2-0.3-0.3-0.8-0.3-1.2c0-0.9,0.6-2.1,2.6-2.1c0.7,0,1.3,0.1,1.9,0.3c0.1,0.5,0.2,1.2,0.3,1.8l-0.5,0.1
			c-0.3-1.3-0.5-1.7-1.7-1.7c-0.8,0-1.6,0.5-1.6,1.4c0,0.9,0.5,1.2,1.7,2c0.9,0.6,1.6,0.9,1.9,1.4c0.3,0.4,0.5,0.9,0.5,1.5
			c0,1.4-1,2.4-2.9,2.4c-0.7,0-1.4-0.1-2.1-0.4c-0.1-0.8-0.2-1.3-0.4-1.9L882,132.4z"/>
		<path class="st4" d="M887.5,129v-0.3c1-0.1,1.2-0.6,1.5-1.8h0.3v1.7h1.6v0.4h-1.6v4.2c0,0.7,0.3,1,0.8,1c0.4,0,0.6-0.1,1-0.4
			l0.2,0.3c-0.4,0.4-0.9,0.5-1.4,0.5c-0.7,0-1.4-0.3-1.4-1.4V129H887.5z"/>
		<path class="st4" d="M893.6,128.5v4.9c0,0.8,0,0.9,0.8,0.9v0.3h-2.7v-0.3c0.8,0,0.9-0.1,0.9-0.9V130c0-0.8,0-0.8-0.9-0.8v-0.3
			c0.7-0.1,1.1-0.3,1.7-0.6L893.6,128.5z M893.6,126.9c0,0.5-0.3,0.8-0.6,0.8c-0.3,0-0.6-0.3-0.6-0.8c0-0.5,0.3-0.8,0.6-0.8
			C893.4,126.1,893.6,126.4,893.6,126.9z"/>
		<path class="st4" d="M894.9,134.2c0.9,0,0.9-0.1,0.9-0.9v-6.4c0-0.7,0-0.8-0.9-0.8v-0.3c0.7-0.1,1.2-0.3,1.7-0.6l0.1,0.1v8
			c0,0.8,0,0.9,0.9,0.9v0.3h-2.7V134.2z"/>
	</g>
</g>
<g>
	<path class="st4" d="M726.5,102.2c0-9.7,4.6-13.9,11.2-13.9c7.1,0,11.2,4.8,11.2,13.9c0,9.2-4,13.9-11.2,13.9
		C729.1,116.1,726.5,109.5,726.5,102.2z M732,92.4c-1.5,1.9-2.4,4.9-2.4,9.9c0,4.2,0.8,7.6,2.4,9.8c1.3,1.6,3.4,2.7,5.7,2.7
		s4.3-1,5.7-2.7c1.6-2.2,2.4-5.6,2.4-9.8c0-5-0.9-8-2.4-9.9c-1.4-1.8-3.5-2.6-5.6-2.6C735.5,89.8,733.4,90.7,732,92.4z"/>
	<path class="st4" d="M761.1,88.9c3.2,0,5.3,0.4,7.1,1.7c1.6,1.2,2.5,2.8,2.5,5.2c0,4.1-3.1,6.5-6.6,7l5.3,9.1
		c1.4,2.3,1.9,2.6,3.6,2.6v1.2h-4.8l-7.1-12.4h-3.3v8.4c0,2.6,0.2,2.8,2.8,2.8v1.2h-8.7v-1.2c2.6,0,2.8-0.2,2.8-2.8V92.9
		c0-2.6-0.2-2.8-2.8-2.8v-1.2H761.1z M758.7,90.3c-0.9,0-0.9,0.3-0.9,2.3v9.1h2.6c4.3,0,7.2-1.5,7.2-6c0-3-1.7-5.4-6.5-5.4H758.7z"
		/>
	<path class="st4" d="M774.3,115.6v-1.2c2.6,0,2.8-0.2,2.8-2.8V92.9c0-2.6-0.2-2.8-2.8-2.8v-1.2h9.7c4,0,6.6,0.8,8.7,3
		c2.3,2.5,3.3,6,3.3,10.1c0,10.4-5.3,13.6-12.7,13.6H774.3z M781.3,90.3c-0.9,0-1.1,0.3-1.1,1.5v20.3c0,1.7,0.2,1.9,1.2,1.9h1.7
		c5.7,0,9.7-3.2,9.7-11.8c0-4.1-0.6-7-2.3-9.3c-1.6-2-3.8-2.7-6.6-2.7H781.3z"/>
	<path class="st4" d="M804.6,88.9l12.9,22.8h0.1V92.9c0-2.6-0.3-2.8-2.9-2.8v-1.2h7.2v1.2c-2.4,0-2.7,0.2-2.7,2.8v23H817l-13.7-24
		h-0.1v19.8c0,2.6,0.3,2.8,2.8,2.8v1.2h-7.2v-1.2c2.6,0,2.8-0.2,2.8-2.8V92.9c0-2.7-0.2-2.8-2.9-2.8v-1.2H804.6z"/>
	<path class="st4" d="M830.1,106.4c0,3,0.4,8,6.3,8c6.2,0,6.2-5.7,6.2-8V92.9c0-2.6-0.2-2.8-2.6-2.8v-1.2h6.8v1.2
		c-2.3,0-2.5,0.2-2.5,2.8v14.1c0,6.6-3.3,9.2-8.4,9.2c-8.4,0-8.9-5.5-8.9-9.6V92.9c0-2.6-0.2-2.8-2.6-2.8v-1.2h8.3v1.2
		c-2.5,0-2.6,0.1-2.6,2.8V106.4z"/>
	<path class="st4" d="M855.1,88.9l12.9,22.8h0.1V92.9c0-2.6-0.3-2.8-2.9-2.8v-1.2h7.2v1.2c-2.4,0-2.7,0.2-2.7,2.8v23h-2.2l-13.7-24
		h-0.1v19.8c0,2.6,0.3,2.8,2.8,2.8v1.2h-7.2v-1.2c2.6,0,2.8-0.2,2.8-2.8V92.9c0-2.7-0.2-2.8-2.9-2.8v-1.2H855.1z"/>
	<path class="st4" d="M892.1,95.8c-0.7-3.8-1.2-6-5.5-6c-4.9,0-8.1,4.6-8.1,12.2c0,8.5,3.4,12.7,7.8,12.7c1.7,0,3.2-0.6,4.6-1.8
		v-4.3c0-1.9-0.2-2.1-2.9-2.1v-1.2h8v1.2c-2.1,0-2.3,0.1-2.3,1.8v4.8c-2.3,2.3-5.4,3.1-7.6,3.1c-6.2,0-10.7-4.7-10.7-13.9
		c0-8.4,4.1-13.8,11.5-13.8c1.4,0,3.4,0.3,5.8,1.3c0.2,2.1,0.5,3.9,0.8,5.8L892.1,95.8z"/>
</g>
<g>
	<defs>
		<rect id="SVGID_7_" x="708" y="66.7" width="231.4" height="70.6"/>
	</defs>
	<clipPath id="SVGID_8_">
		<use xlink:href="#SVGID_7_"  style="overflow:visible;"/>
	</clipPath>
</g>
</svg>
