<?xml version="1.0" encoding="iso-8859-1"?>
<!-- Generator: Adobe Illustrator 16.0.0, SVG Export Plug-In . SVG Version: 6.00 Build 0)  -->
<!DOCTYPE svg PUBLIC "-//W3C//DTD SVG 1.1//EN" "http://www.w3.org/Graphics/SVG/1.1/DTD/svg11.dtd">
<svg xmlns="http://www.w3.org/2000/svg" xmlns:xlink="http://www.w3.org/1999/xlink" version="1.1" id="Capa_1" x="0px" y="0px" width="512px" height="512px" viewBox="0 0 566.219 566.22" style="enable-background:new 0 0 566.219 566.22;" xml:space="preserve">
<g>
	<g>
		<path d="M518.837,46.705c-0.339-0.264-17.141-12.513-29.788,3.652C448.6,102.278,314.233,273.1,249.148,333.578    c-56.839,52.819-106.796,22.719-129.215,3.228v0.052c0,0-11.494-11.937-37.795-3.739c-0.061,0.018-0.061,0.018-0.125,0.018    c-10.666,3.514-25.173,7.989-44.739,13.68C9.542,354.84,0.924,375.701,0,395.661c0.524,6.619,3.795,36.676,20.589,56.688    c30.604,31.323,90.383,63.757,153.785,70.54c73.23,7.772,91.134-22.614,91.134-22.614s44.673-60.418,86.519-121.851    c0.026-0.069,0.087-0.086,0.122-0.155c36.129-52.03,78.868-78.157,79.787-78.73c2.473-1.093,4.841-2.117,7.131-2.949    c4.623-1.388,29.649-7.261,31.723,26.787l10.635,181.843l0.061,2.352c0,0,0,0.034,0,0.069l0.096,3.313    c0.425,4.84,2.628,13.237,12.882,13.254c9.594-0.19,10.86-10.903,10.947-15.258v-1.865    c3.886-47.458,20.905-223.923,36.658-256.096C595.545,128.536,547.636,69.341,518.837,46.705L518.837,46.705z" fill="#FFFFFF"/>
	</g>
</g>
<g>
</g>
<g>
</g>
<g>
</g>
<g>
</g>
<g>
</g>
<g>
</g>
<g>
</g>
<g>
</g>
<g>
</g>
<g>
</g>
<g>
</g>
<g>
</g>
<g>
</g>
<g>
</g>
<g>
</g>
</svg>
