<?xml version="1.0" encoding="utf-8"?>
<svg version="1.1" id="Ebene_1" xmlns="http://www.w3.org/2000/svg" xmlns:xlink="http://www.w3.org/1999/xlink" x="0px" y="0px"
	 viewBox="0 0 22.7 22.7" style="enable-background:new 0 0 22.7 22.7;" xml:space="preserve">
<style type="text/css">
.st1{fill:#FFFFFF;}
</style>
<path class="st1" d="M19.8,2.8H2.9C1.3,2.8,0.1,4,0.1,5.6v11.6c0,1.5,1.2,2.7,2.7,2.7h16.9c1.5,0,2.7-1.2,2.7-2.7V5.6
	C22.5,4.1,21.3,2.8,19.8,2.8z M21.3,17.1c0,0.8-0.7,1.5-1.5,1.5H2.9c-0.8,0-1.5-0.7-1.5-1.5V5.6c0-0.8,0.7-1.5,1.5-1.5h16.9
	c0.8,0,1.5,0.7,1.5,1.5L21.3,17.1L21.3,17.1z"/>
<path class="st1" d="M14.2,11.2l5.5-4.9c0.3-0.2,0.3-0.6,0-0.9c-0.2-0.3-0.6-0.3-0.9,0l-7.5,6.8l-1.5-1.3c0,0,0,0,0,0
	c0,0-0.1-0.1-0.1-0.1l-6-5.4C3.5,5.1,3.1,5.1,2.9,5.4C2.6,5.7,2.6,6.1,2.9,6.3l5.5,5l-5.5,5.2c-0.3,0.2-0.3,0.6,0,0.9
	c0.1,0.1,0.3,0.2,0.5,0.2c0.2,0,0.3-0.1,0.4-0.2l5.6-5.2l1.5,1.4c0.1,0.1,0.3,0.2,0.4,0.2c0.1,0,0.3-0.1,0.4-0.2l1.6-1.4l5.6,5.3
	c0.1,0.1,0.3,0.2,0.4,0.2c0.2,0,0.3-0.1,0.5-0.2c0.2-0.3,0.2-0.6,0-0.9L14.2,11.2z"/>
</svg>
