<?xml version="1.0" encoding="utf-8"?>
<svg version="1.1" id="Ebene_1" xmlns="http://www.w3.org/2000/svg" xmlns:xlink="http://www.w3.org/1999/xlink" x="0px" y="0px"
	 viewBox="0 0 22.7 22.7" style="enable-background:new 0 0 22.7 22.7;" xml:space="preserve">
<style type="text/css">
	.st1{fill:#FFFFFF;}
</style>
<g><g><g>
<path class="st1" d="M17,5.7C17,2.5,14.5,0,11.3,0C8.2,0,5.7,2.5,5.7,5.7c0,2.8,2.1,5.2,4.8,5.6c-1.9-0.4-3.4-2.1-3.4-4.2
c0-0.2,0-0.4,0.1-0.6c1,0.4,2.6,0.2,4-0.6c1.1-0.6,1.9-1.5,2.3-2.4c1.2,0.7,2.1,2.1,2.1,3.6c0,2.1-1.5,3.8-3.4,4.2
C14.9,10.8,17,8.5,17,5.7z"/>
<path class="st1" d="M2.8,17v4.3c0,0.8,0.6,1.4,1.4,1.4h14.2c0.8,0,1.4-0.6,1.4-1.4V17c0-2.3-1.9-4.2-4.3-4.2h-0.7
c0,2-1.6,3.5-3.5,3.5c-2,0-3.5-1.6-3.5-3.5H7.1C4.7,12.8,2.8,14.7,2.8,17z"/>
</g></g></g>
</svg>
