<?xml version="1.0" encoding="utf-8"?>
<!-- Generator: Adobe Illustrator 21.0.0, SVG Export Plug-In . SVG Version: 6.00 Build 0)  -->
<svg version="1.1" id="Ebene_1" xmlns="http://www.w3.org/2000/svg" xmlns:xlink="http://www.w3.org/1999/xlink" x="0px" y="0px"
	 viewBox="0 0 23.1 20.8" style="enable-background:new 0 0 23.1 20.8;" xml:space="preserve">
<style type="text/css">
	.st0{fill:#312783;}
	.st1{fill:#E73741;}
	.st2{fill:#FFFFFF;}
	.st3{fill:#FDFDFD;}
	.st4{fill:#283583;}
	.st5{fill:none;stroke:#FFFFFF;stroke-linecap:round;stroke-miterlimit:10;}
	.st6{fill:#FFFFFF;stroke:#312783;stroke-width:0.25;stroke-miterlimit:10;}
	.st7{fill:#FFFFFF;stroke:#E73741;stroke-width:0.25;stroke-miterlimit:10;}
	.st8{fill:#27348B;}
	.st9{fill:none;stroke:#27348B;stroke-width:0.1;stroke-miterlimit:10;}
	.st10{fill:#FFFFFF;stroke:#27348B;stroke-width:0.1;stroke-miterlimit:10;}
	.st11{fill:none;}
	.st12{fill:#FFFFFF;stroke:#27348B;stroke-width:0.15;stroke-miterlimit:10;}
	.st13{fill:none;stroke:#283583;stroke-width:0.15;stroke-miterlimit:10;}
	.st14{fill:#283583;stroke:#FFFFFF;stroke-width:0.1;stroke-miterlimit:10;}
</style>
<g>
	<polygon class="st2" points="10.8,2.9 8.3,0.4 15.1,0.4 12.5,2.9 12.8,3.6 10.2,6 10.4,4.3 11.3,3.5 11.1,3.2 10.7,3.6 	"/>
	<polygon class="st6" points="9.7,7.9 9.7,6.8 12.8,4.1 12.8,5.2 	"/>
	<polygon class="st6" points="9.4,9.8 9.4,8.7 13.1,5.4 13.2,6.2 	"/>
	<polygon class="st6" points="8.8,10.7 13.2,6.6 13.4,7.6 8.8,11.9 	"/>
	<polygon class="st6" points="8.3,12.8 13.5,7.9 13.8,9 8.3,14.1 	"/>
	<polygon class="st6" points="13.9,9.3 14.1,10.3 8,16.1 8,14.9 	"/>
	<polygon class="st6" points="14.3,10.4 14.6,11.4 8.7,17.2 8,16.5 	"/>
	<polygon class="st6" points="14.7,11.9 14.8,12.8 9.6,18 8.9,17.3 	"/>
	<polygon class="st6" points="15,13.1 15.2,14.1 10.4,18.9 9.8,18.2 	"/>
	<polygon class="st6" points="15.2,14.5 15.7,15.4 11.3,19.8 10.5,19.1 	"/>
	<polygon class="st6" points="15.7,16 16.1,16.6 12,20.4 11.5,19.9 	"/>
</g>
</svg>
