<?xml version="1.0" encoding="utf-8"?>
<!-- Generator: Adobe Illustrator 21.0.0, SVG Export Plug-In . SVG Version: 6.00 Build 0)  -->
<svg version="1.1" id="Ebene_1" xmlns="http://www.w3.org/2000/svg" xmlns:xlink="http://www.w3.org/1999/xlink" x="0px" y="0px"
	 viewBox="0 0 22.7 22.7" style="enable-background:new 0 0 22.7 22.7;" xml:space="preserve">
<style type="text/css">
	.st0{fill:#E73741;}
	.st1{fill:#FFFFFF;}
	.st2{fill:#FDFDFD;}
	.st3{fill:#283583;}
	.st4{fill:none;stroke:#FFFFFF;stroke-linecap:round;stroke-miterlimit:10;stroke-width:1.5px;}
	.st5{fill:#FFFFFF;stroke:#312783;stroke-width:0.25;stroke-miterlimit:10;}
	.st6{fill:#FFFFFF;stroke:#E73741;stroke-width:0.25;stroke-miterlimit:10;}
	.st7{fill:#27348B;}
	.st8{fill:none;stroke:#27348B;stroke-width:0.1;stroke-miterlimit:10;}
	.st9{fill:#FFFFFF;stroke:#27348B;stroke-width:0.1;stroke-miterlimit:10;}
	.st10{fill:none;}
	.st11{fill:#FFFFFF;stroke:#27348B;stroke-width:0.15;stroke-miterlimit:10;}
	.st12{fill:none;stroke:#283583;stroke-width:0.15;stroke-miterlimit:10;}
	.st13{fill:#312783;}
	.st14{fill:#283583;stroke:#FFFFFF;stroke-width:0.1;stroke-miterlimit:10;}
</style>
<g>
	<path class="st4" d="M10.9,11.1c-2.4,1-4.8,2-7.3,3C3,14.3,1.5,14.9,1,15.4c-0.5,0.5-0.5,1.2-0.2,1.8C1,17.9,1.6,17.9,2.3,18
		c3.5,0.4,7.1,0.2,10.6,0.1c1.7,0,3.5-0.1,5.2-0.2c0.8,0,2.2,0.1,3-0.3c1.5-0.7,1.2-2.2,0.2-2.7c-1.4-0.7-3.3-1.4-5.1-2
		C14.3,12.4,12.8,11.8,10.9,11.1z"/>
	<path class="st4" d="M8.8,5.8c3.1-3.2,5.1,0.2,4.6,1.5C12.5,8.8,11.1,9,11.1,9v1.8"/>
</g>
</svg>
