<?xml version="1.0" encoding="utf-8"?>
<!-- Generator: Adobe Illustrator 21.0.0, SVG Export Plug-In . SVG Version: 6.00 Build 0)  -->
<svg version="1.1" id="Ebene_1" xmlns="http://www.w3.org/2000/svg" xmlns:xlink="http://www.w3.org/1999/xlink" x="0px" y="0px"
	 viewBox="0 0 22.7 22.7" style="enable-background:new 0 0 22.7 22.7;" xml:space="preserve">
<style type="text/css">
	.st0{fill:#E73741;}
	.st1{fill:#FFFFFF;}
	.st2{fill:#FDFDFD;}
	.st3{fill:#283583;}
	.st4{fill:none;stroke:#FFFFFF;stroke-linecap:round;stroke-miterlimit:10;}
	.st5{fill:#FFFFFF;stroke:#312783;stroke-width:0.25;stroke-miterlimit:10;}
	.st6{fill:#FFFFFF;stroke:#E73741;stroke-width:0.25;stroke-miterlimit:10;}
	.st7{fill:#27348B;}
	.st8{fill:none;stroke:#27348B;stroke-width:0.1;stroke-miterlimit:10;}
	.st9{fill:#FFFFFF;stroke:#27348B;stroke-width:0.1;stroke-miterlimit:10;}
	.st10{fill:none;}
	.st11{fill:#FFFFFF;stroke:#27348B;stroke-width:0.15;stroke-miterlimit:10;}
	.st12{fill:none;stroke:#283583;stroke-width:0.15;stroke-miterlimit:10;}
	.st13{fill:#312783;}
	.st14{fill:#283583;stroke:#FFFFFF;stroke-width:0.1;stroke-miterlimit:10;}
</style>
<path class="st1" d="M15.5,7.2c0,1.2,0.9,2.1,2.1,2.1c1.2,0,2.1-0.9,2.1-2.1c0-1.2-0.9-2.1-2.1-2.1C16.5,5.1,15.5,6,15.5,7.2
	L15.5,7.2z"/>
<polygon class="st1" points="19.7,17.6 3,17.6 7.2,6.5 12.7,13.4 15.5,11.3 "/>
<path class="st1" d="M19.8,2.8H2.9C1.3,2.8,0.1,4,0.1,5.6v11.6c0,1.5,1.2,2.7,2.7,2.7h16.9c1.5,0,2.7-1.2,2.7-2.7V5.6
	C22.5,4.1,21.3,2.8,19.8,2.8z M21.3,17.1c0,0.8-0.7,1.5-1.5,1.5H2.9c-0.8,0-1.5-0.7-1.5-1.5V5.6c0-0.8,0.7-1.5,1.5-1.5h16.9
	c0.8,0,1.5,0.7,1.5,1.5L21.3,17.1L21.3,17.1z"/>
</svg>
