<?xml version="1.0" encoding="iso-8859-1"?>
<svg xmlns="http://www.w3.org/2000/svg" xmlns:xlink="http://www.w3.org/1999/xlink" version="1.1" viewBox="0 0 295.821 295.821" enable-background="new 0 0 295.821 295.821" width="512px" height="512px">
  <g>
    <path d="m204.465,53.944l8.701-27.842c1.74-5.22 0-12.181-3.48-17.401s-8.702-8.701-15.662-8.701h-90.486c-6.96,0-10.441,3.48-15.661,8.701s-5.22,12.181-3.48,17.401l8.701,27.842c4.124,13.764 15.905,24.135 29.234,27.929l-39.676,166.965c-1.74,3.48 0,6.96 3.48,8.701l55.684,36.543c1.74,1.74 3.48,1.74 5.22,1.74 1.74,0 3.48,0 5.22-1.74l55.684-36.543c3.48-1.74 3.48-5.22 3.48-8.701l-39.64-166.843c14.131-3.255 25.703-12.703 32.681-28.051zm-50.464,29.582l8.909,38.074-42.598,42.598 18.028-80.672h15.661zm-40.614,111.681c0.191-0.139 0.4-0.139 0.592-0.313l53.561-53.561 8.909,38.074-70.527,70.527-4.107-2.854 11.572-51.873zm33.654,83.212l-26.728-18.515 60.765-60.765 11.224,47.94-45.261,31.34zm43.503-257.537l-8.701,27.842c-1.74,10.441-12.181,17.401-22.621,17.401h-27.842c-10.441,0-19.141-6.96-22.621-17.401l-8.701-27.842c0,0 0,0 1.74-1.74h87.006c1.74,0 1.74,0 1.74,0l0,1.74z" fill="#FFFFFF"/>
  </g>
</svg>
