<?xml version="1.0" encoding="utf-8"?>
<!-- Generator: Adobe Illustrator 21.0.0, SVG Export Plug-In . SVG Version: 6.00 Build 0)  -->
<svg version="1.1" id="Ebene_1" xmlns="http://www.w3.org/2000/svg" xmlns:xlink="http://www.w3.org/1999/xlink" x="0px" y="0px"
	 viewBox="0 0 21.3 19.2" style="enable-background:new 0 0 21.3 19.2;" xml:space="preserve">
<style type="text/css">
	.st0{fill:#E73741;}
	.st1{fill:#FFFFFF;}
	.st2{fill:#FDFDFD;}
	.st3{fill:#283583;}
	.st4{fill:none;stroke:#FFFFFF;stroke-linecap:round;stroke-miterlimit:10;}
	.st5{fill:#FFFFFF;stroke:#312783;stroke-width:0.25;stroke-miterlimit:10;}
	.st6{fill:#FFFFFF;stroke:#E73741;stroke-width:0.25;stroke-miterlimit:10;}
	.st7{fill:#27348B;}
	.st8{fill:none;stroke:#27348B;stroke-width:0.1;stroke-miterlimit:10;}
	.st9{fill:#FFFFFF;stroke:#27348B;stroke-width:0.1;stroke-miterlimit:10;}
	.st10{fill:none;}
	.st11{fill:#FFFFFF;stroke:#27348B;stroke-width:0.15;stroke-miterlimit:10;}
	.st12{fill:none;stroke:#283583;stroke-width:0.15;stroke-miterlimit:10;}
	.st13{fill:#312783;}
	.st14{fill:#283583;stroke:#FFFFFF;stroke-width:0.1;stroke-miterlimit:10;}
</style>
<path class="st4" d="M10.3,9.1C8.1,10,5.8,11,3.6,11.9c-0.6,0.3-2,0.8-2.5,1.2c-0.5,0.4-0.5,1.1-0.2,1.7c0.3,0.7,0.8,0.7,1.5,0.7
	c3.2,0.3,6.5,0.2,9.7,0.1c1.6,0,3.2-0.1,4.8-0.2c0.8,0,2.1,0.1,2.8-0.2c1.3-0.7,1.1-2,0.2-2.4c-1.3-0.6-3.1-1.3-4.7-1.8
	C13.4,10.3,12,9.8,10.3,9.1z"/>
<path class="st4" d="M8.3,4.3c2.9-3,4.7,0.2,4.2,1.4c-0.8,1.4-2.1,1.6-2.1,1.6v1.7"/>
</svg>
