<?xml version="1.0" encoding="utf-8"?>
<svg version="1.1" id="Ebene_1" xmlns="http://www.w3.org/2000/svg" xmlns:xlink="http://www.w3.org/1999/xlink" x="0px" y="0px"
	 viewBox="0 0 22.7 22.7" style="enable-background:new 0 0 22.7 22.7;" xml:space="preserve">
<style type="text/css">
.st4{fill:none;stroke:#FFFFFF;stroke-linecap:round;stroke-miterlimit:10;stroke-width:1.5px;}
</style>
<g>
<path class="st4" d="M10.9,11.1c-2.4,1-4.8,2-7.3,3C3,14.3,1.5,14.9,1,15.4c-0.5,0.5-0.5,1.2-0.2,1.8C1,17.9,1.6,17.9,2.3,18
c3.5,0.4,7.1,0.2,10.6,0.1c1.7,0,3.5-0.1,5.2-0.2c0.8,0,2.2,0.1,3-0.3c1.5-0.7,1.2-2.2,0.2-2.7c-1.4-0.7-3.3-1.4-5.1-2
C14.3,12.4,12.8,11.8,10.9,11.1z"/>
<path class="st4" d="M8.8,5.8c3.1-3.2,5.1,0.2,4.6,1.5C12.5,8.8,11.1,9,11.1,9v1.8"/>
</g>
</svg>
