<svg id="Martina_Klein" data-name="Martina Klein" xmlns="http://www.w3.org/2000/svg" viewBox="0 0 135.59 20"><!-- 0 0 135.59 37.42 --><defs><style>.cls-1{fill:#e73741;}.cls-2,.cls-3{fill:none;}.cls-2{stroke:#e73741;stroke-miterlimit:3.12;stroke-width:0.1px;}</style></defs><title>Martina Klein</title><path class="cls-1" d="M118.72,24.43q0-.46.08-.93t.07-.87q0-.41,0-.6a2.64,2.64,0,0,0,0-.5,1.76,1.76,0,0,0-.15-.45.87.87,0,0,0-.27-.33.68.68,0,0,0-.42-.12,1.13,1.13,0,0,0-.83.54,7.71,7.71,0,0,0-.9,1.69.47.47,0,0,0,0,.16.42.42,0,0,0,.11.28.36.36,0,0,0,.29.12.43.43,0,0,0,.22-.06.39.39,0,0,0,.16-.18,8.4,8.4,0,0,1,.63-1.31c.16-.25.28-.38.34-.4a.49.49,0,0,1,.08.3c0,.16,0,.34,0,.51s0,.31,0,.51,0,.42-.05.65l-.06.7q0,.35-.06.66l-.05.53c0,.15,0,.25,0,.3a.72.72,0,0,0,.19.53.67.67,0,0,0,.49.19.73.73,0,0,0,.44-.16,1.61,1.61,0,0,0,.43-.61q.11-.24.29-.6l.4-.76q.22-.4.47-.8t.49-.73a3.6,3.6,0,0,1,.46-.52.62.62,0,0,1,.39-.2.28.28,0,0,1,.19.12.74.74,0,0,1,.11.47c0,.14,0,.28,0,.43s0,.3,0,.45,0,.29,0,.43,0,.26,0,.36a4.79,4.79,0,0,0,.06.75,2,2,0,0,0,.23.68,1.34,1.34,0,0,0,.47.49,1.43,1.43,0,0,0,.78.19,1.66,1.66,0,0,0,.81-.21,3.5,3.5,0,0,0,.72-.54,4.91,4.91,0,0,0,.61-.72q.28-.39.48-.74c.14-.23.25-.44.33-.62l.17-.35a.39.39,0,0,0,0-.15.44.44,0,0,0-.11-.28.36.36,0,0,0-.29-.14.4.4,0,0,0-.22.07.41.41,0,0,0-.15.18q-.12.28-.36.73a6.93,6.93,0,0,1-.56.89,4.32,4.32,0,0,1-.71.75,1.23,1.23,0,0,1-.79.32.6.6,0,0,1-.36-.1.65.65,0,0,1-.21-.28,1.46,1.46,0,0,1-.1-.41,4.34,4.34,0,0,1,0-.49c0-.14,0-.28,0-.43l0-.46c0-.15,0-.29,0-.42s0-.24,0-.34a1.81,1.81,0,0,0-.27-1,.91.91,0,0,0-.82-.41,1.26,1.26,0,0,0-.59.17,2.11,2.11,0,0,0-.62.54q-.31.39-.59.82t-.54.87q-.25.43-.48.86t-.39.78c0-.21,0-.47.07-.77m-6-6.44a.36.36,0,0,1-.26.11.34.34,0,0,1-.25-.11.35.35,0,0,1-.11-.26.37.37,0,0,1,.11-.26.34.34,0,0,1,.25-.11.36.36,0,0,1,.26.11.36.36,0,0,1,.11.26.34.34,0,0,1-.11.26m-.89,7a2.41,2.41,0,0,0,.37.81,1.9,1.9,0,0,0,.61.55,1.68,1.68,0,0,0,.84.2,1.61,1.61,0,0,0,.73-.18,3.18,3.18,0,0,0,.69-.48,5.29,5.29,0,0,0,.62-.67q.29-.37.54-.75c.16-.25.31-.49.44-.73l.32-.6a.37.37,0,0,0,0-.18.42.42,0,0,0-.11-.28.36.36,0,0,0-.28-.13.4.4,0,0,0-.36.23q-.33.67-.67,1.21A7.66,7.66,0,0,1,115,25a3.43,3.43,0,0,1-.65.6,1.11,1.11,0,0,1-.62.22,1.21,1.21,0,0,1-.38-.06.88.88,0,0,1-.37-.26,1.46,1.46,0,0,1-.29-.54,3.1,3.1,0,0,1-.11-.92c0-.28,0-.59,0-.92s0-.65.06-.95l.06-.77c0-.22,0-.34,0-.39a.42.42,0,0,0-.11-.28.34.34,0,0,0-.27-.12.39.39,0,0,0-.29.11.45.45,0,0,0-.13.26,24.83,24.83,0,0,0-.19,3.08,4,4,0,0,0,.12,1m1.53-7.68a1,1,0,0,0-.21-.31,1,1,0,0,0-.31-.21,1,1,0,0,0-.75,0,1,1,0,0,0-.59.9,1,1,0,0,0,.28.69,1,1,0,0,0,1.37,0,1,1,0,0,0,.28-.69,1,1,0,0,0-.07-.38M107,23.88a2.38,2.38,0,0,1,0-.41,3.37,3.37,0,0,1,.06-.63,2.16,2.16,0,0,1,.19-.57,1.24,1.24,0,0,1,.33-.42.76.76,0,0,1,.49-.16.5.5,0,0,1,.37.17.68.68,0,0,1,.16.49,1.62,1.62,0,0,1-.11.57,2.19,2.19,0,0,1-.3.54,2.51,2.51,0,0,1-.46.47,2.58,2.58,0,0,1-.6.35c0-.13-.07-.26-.09-.41m1.19.62a3.48,3.48,0,0,0,.62-.61,2.78,2.78,0,0,0,.41-.72,2.29,2.29,0,0,0,.15-.83,1.54,1.54,0,0,0-.12-.61,1.44,1.44,0,0,0-.31-.46,1.39,1.39,0,0,0-.43-.29,1.22,1.22,0,0,0-.48-.1,1.53,1.53,0,0,0-.76.19,1.85,1.85,0,0,0-.6.54,2.54,2.54,0,0,0-.38.81,3.62,3.62,0,0,0-.13,1,3.91,3.91,0,0,0,.16,1.1,3,3,0,0,0,.49,1,2.47,2.47,0,0,0,2.05,1,2.85,2.85,0,0,0,2-.85,7.81,7.81,0,0,0,1.6-2.46l0-.08a.34.34,0,0,0,0-.09.42.42,0,0,0-.11-.28.37.37,0,0,0-.29-.13.39.39,0,0,0-.21.06.38.38,0,0,0-.15.18q-.22.5-.5,1a5.35,5.35,0,0,1-.63.91,3.14,3.14,0,0,1-.78.66,2,2,0,0,1-1.81.06,1.66,1.66,0,0,1-.57-.5,4.58,4.58,0,0,0,.78-.48m-6.6-7.44q.06-.91.16-1.75t.25-1.57a10.79,10.79,0,0,1,.33-1.27,3.71,3.71,0,0,1,.39-.85c.14-.21.28-.31.43-.31s.41.18.54.55a5.8,5.8,0,0,1,.2,1.82,10.33,10.33,0,0,1-.19,1.9,18.19,18.19,0,0,1-.49,2q-.31,1-.71,2t-.85,1.85q-.05-.58-.08-1.21t0-1.32q0-.9.06-1.82m5.31,6a.43.43,0,0,0-.11-.29.37.37,0,0,0-.29-.13.39.39,0,0,0-.21.06.4.4,0,0,0-.15.17c-.09.19-.22.45-.39.77a8,8,0,0,1-.58.94,4.48,4.48,0,0,1-.72.8,1.25,1.25,0,0,1-.82.34,1.27,1.27,0,0,1-1.07-.78,7.1,7.1,0,0,1-.71-2.14q.6-1.1,1.12-2.25a23.79,23.79,0,0,0,.9-2.31,18.94,18.94,0,0,0,.61-2.3,11.56,11.56,0,0,0,.22-2.22,8.63,8.63,0,0,0-.11-1.47,3.52,3.52,0,0,0-.3-1,1.28,1.28,0,0,0-.47-.54,1.22,1.22,0,0,0-.63-.17,1.08,1.08,0,0,0-.8.36,3.37,3.37,0,0,0-.62,1,8.87,8.87,0,0,0-.47,1.45q-.2.83-.32,1.75T100.8,17q-.06,1-.06,1.87,0,.62,0,1.43t.14,1.66a15.39,15.39,0,0,0,.3,1.68,6.93,6.93,0,0,0,.52,1.47,3.32,3.32,0,0,0,.78,1,1.61,1.61,0,0,0,1.1.4,1.77,1.77,0,0,0,.78-.18,3.07,3.07,0,0,0,.69-.46,4.57,4.57,0,0,0,.6-.64,8,8,0,0,0,.5-.73c.15-.24.28-.48.4-.7l.29-.59a.5.5,0,0,0,0-.17M90.75,11.09a1.25,1.25,0,0,1-.26.22,3,3,0,0,1-.42.23,1.43,1.43,0,0,1-.46.13,2.43,2.43,0,0,1,.29-.25l.32-.22a1.87,1.87,0,0,1,.3-.15.68.68,0,0,1,.23-.05c.05,0,.05,0,0,.1M89.45,19l-.26,0h-.41a1.71,1.71,0,0,1-.46,0,.82.82,0,0,0,0-.11.69.69,0,0,1,0-.11l.08,0h.08l.33,0,.33.05.28.07.21.07-.2,0M90,12.32a3.17,3.17,0,0,0,.73-.32,1.86,1.86,0,0,0,.5-.43.79.79,0,0,0,.18-.49.74.74,0,0,0-.2-.53.63.63,0,0,0-.47-.21,1.32,1.32,0,0,0-.53.12,3,3,0,0,0-.53.31,3.47,3.47,0,0,0-.49.44,3.38,3.38,0,0,0-.39.51,4.25,4.25,0,0,1-.92,0l-1.05-.14-1.12-.15a8.78,8.78,0,0,0-1.13-.08,3.44,3.44,0,0,0-1.36.27,3.36,3.36,0,0,0-1.12.77,3.65,3.65,0,0,0-.75,1.19A4.1,4.1,0,0,0,81,15.08a3,3,0,0,0,.19,1.12,2.9,2.9,0,0,0,.46.81,2.49,2.49,0,0,0,.58.52,2.12,2.12,0,0,0,.55.26h.08a.31.31,0,0,0,.22-.11.4.4,0,0,0,.1-.29.48.48,0,0,0-.07-.25A.31.31,0,0,0,83,17l-.23-.1a1.62,1.62,0,0,1-.44-.31,2.13,2.13,0,0,1-.43-.59,2,2,0,0,1-.19-.93,3.15,3.15,0,0,1,.22-1.2,2.83,2.83,0,0,1,.61-.94,2.74,2.74,0,0,1,.92-.61,2.92,2.92,0,0,1,1.12-.22,6.7,6.7,0,0,1,1,.07l1,.15,1,.13a5.16,5.16,0,0,0,.9,0A8.79,8.79,0,0,0,88,13.77a9.09,9.09,0,0,0-.19,1.86c0,.46,0,.92,0,1.36s0,.87,0,1.29a.77.77,0,0,0-.27.6.86.86,0,0,0,0,.28.79.79,0,0,0,.15.25A21.91,21.91,0,0,1,87.33,22a7.18,7.18,0,0,1-.67,2,3.39,3.39,0,0,1-1.17,1.31,3.32,3.32,0,0,1-1.82.46A4.06,4.06,0,0,1,82,25.47a3.84,3.84,0,0,1-1.35-1,.28.28,0,0,0-.45,0,.46.46,0,0,0-.1.28.42.42,0,0,0,.1.3,4.15,4.15,0,0,0,.72.65,5,5,0,0,0,.84.48,4.6,4.6,0,0,0,1.89.4,4.22,4.22,0,0,0,1.52-.25,3.5,3.5,0,0,0,1.14-.7,4.12,4.12,0,0,0,.82-1.08,7.22,7.22,0,0,0,.56-1.4,12.77,12.77,0,0,0,.36-1.64q.13-.87.2-1.82l.27,0h.32a6.57,6.57,0,0,0,.79-.05,5.52,5.52,0,0,0,.89-.19,4.94,4.94,0,0,1,.7.53,8.42,8.42,0,0,1,.67.69q.33.38.68.84l.74,1,1.13,1.52a13.15,13.15,0,0,0,1,1.22,4.84,4.84,0,0,0,1,.82,2.07,2.07,0,0,0,1.06.3A2.35,2.35,0,0,0,98.94,26,3.49,3.49,0,0,0,100,24.65a.45.45,0,0,0,.05-.21.47.47,0,0,0-.09-.28.28.28,0,0,0-.24-.13.3.3,0,0,0-.28.18,2.84,2.84,0,0,1-.86,1,1.8,1.8,0,0,1-1.06.36,1.61,1.61,0,0,1-.88-.28,4.83,4.83,0,0,1-.89-.77,12.87,12.87,0,0,1-.94-1.14l-1-1.4q-.66-.89-1.23-1.62a7.13,7.13,0,0,0-1.18-1.21,6.88,6.88,0,0,0,1.29-.79,7.29,7.29,0,0,0,1-.94,7.93,7.93,0,0,0,.76-1.05q.33-.55.63-1.13t.58-1.16q.29-.59.62-1.16a5.35,5.35,0,0,1,.65-.89,5.93,5.93,0,0,1,.73-.69,3.68,3.68,0,0,1,.72-.45,1.65,1.65,0,0,1,.61-.17.31.31,0,0,0,.23-.13.46.46,0,0,0,.09-.29.37.37,0,0,0-.11-.28A.34.34,0,0,0,99,10a1.92,1.92,0,0,0-.81.2,4.22,4.22,0,0,0-.86.54,6.11,6.11,0,0,0-.82.8,7,7,0,0,0-.71,1,11.18,11.18,0,0,0-.58,1.08q-.27.59-.58,1.19t-.68,1.2a7.61,7.61,0,0,1-.83,1.12A6.1,6.1,0,0,1,92,18a5.36,5.36,0,0,1-1.4.68,5.58,5.58,0,0,0-1.13-.5,3.46,3.46,0,0,0-1-.17h-.14q0-.58,0-1.16t0-1.16q0-.62.08-1.12a7.38,7.38,0,0,1,.15-.89,5.46,5.46,0,0,1,.21-.68,4,4,0,0,1,.25-.52,3.83,3.83,0,0,0,.87-.16M76.5,23a.44.44,0,0,0-.11-.28.36.36,0,0,0-.29-.14.4.4,0,0,0-.22.07.42.42,0,0,0-.15.18l-.23.48c-.09.19-.2.38-.32.58s-.25.4-.4.6a4.11,4.11,0,0,1-.46.53,2.38,2.38,0,0,1-.49.37,1,1,0,0,1-.51.14.76.76,0,0,1-.62-.27,1.79,1.79,0,0,1-.33-.63,3.62,3.62,0,0,1-.14-.73q0-.37,0-.58a.43.43,0,0,0-.12-.27.35.35,0,0,0-.26-.12.41.41,0,0,0-.28.1.4.4,0,0,0-.14.25,3.4,3.4,0,0,1-.26,1,2.88,2.88,0,0,1-.42.68,1.62,1.62,0,0,1-.48.4,1,1,0,0,1-.44.13.86.86,0,0,1-.45-.11.83.83,0,0,1-.29-.28,1.17,1.17,0,0,1-.15-.38,2.11,2.11,0,0,1,0-.41,2.83,2.83,0,0,1,.21-1.13,2.6,2.6,0,0,1,.52-.8,2,2,0,0,1,.68-.47,1.88,1.88,0,0,1,.7-.15,1.52,1.52,0,0,1,.4,0,1.69,1.69,0,0,1,.3.11l.2.12.1.08a.39.39,0,0,0,.29.12.37.37,0,0,0,.28-.12.4.4,0,0,0,.12-.28.45.45,0,0,0-.12-.29l-.12-.1a1.82,1.82,0,0,0-.3-.2,3,3,0,0,0-.47-.2,1.92,1.92,0,0,0-.61-.09,2.68,2.68,0,0,0-1,.21,3,3,0,0,0-1,.65,3.41,3.41,0,0,0-.72,1.07,3.63,3.63,0,0,0-.28,1.48,2.34,2.34,0,0,0,.12.77,1.9,1.9,0,0,0,.35.62,1.53,1.53,0,0,0,.54.41,1.66,1.66,0,0,0,1.71-.21,3.15,3.15,0,0,0,.86-1,2.32,2.32,0,0,0,.61,1,1.45,1.45,0,0,0,1,.4,1.74,1.74,0,0,0,.83-.21,3.36,3.36,0,0,0,.73-.53,4.86,4.86,0,0,0,.62-.71q.28-.39.48-.74c.14-.24.25-.45.34-.63l.18-.36a.39.39,0,0,0,0-.15M61,24.43c0-.31.05-.62.08-.93s.05-.6.07-.87,0-.47,0-.6a2.64,2.64,0,0,0,0-.5,1.8,1.8,0,0,0-.15-.45.88.88,0,0,0-.27-.33.68.68,0,0,0-.41-.12,1.13,1.13,0,0,0-.84.54,7.7,7.7,0,0,0-.9,1.69.47.47,0,0,0,0,.16.42.42,0,0,0,.11.28.36.36,0,0,0,.29.12.42.42,0,0,0,.22-.06.4.4,0,0,0,.16-.18,8.42,8.42,0,0,1,.63-1.31c.16-.25.28-.38.34-.4a.49.49,0,0,1,.08.3c0,.16,0,.34,0,.51s0,.31,0,.51,0,.42-.05.65l-.06.7q0,.35-.06.66c0,.2,0,.38-.05.53s0,.25,0,.3a.72.72,0,0,0,.19.53.67.67,0,0,0,.49.19.73.73,0,0,0,.44-.16,1.6,1.6,0,0,0,.42-.61q.11-.24.29-.6l.4-.76q.22-.4.47-.8t.49-.73a3.66,3.66,0,0,1,.46-.52.62.62,0,0,1,.39-.2.29.29,0,0,1,.19.12.74.74,0,0,1,.11.47c0,.14,0,.28,0,.43s0,.3,0,.45,0,.29,0,.43,0,.26,0,.36a4.79,4.79,0,0,0,.06.75,2,2,0,0,0,.23.68,1.36,1.36,0,0,0,.47.49,1.43,1.43,0,0,0,.78.19,1.66,1.66,0,0,0,.81-.21,3.5,3.5,0,0,0,.72-.54,4.92,4.92,0,0,0,.61-.72q.28-.39.48-.74t.34-.62l.17-.35A.39.39,0,0,0,69,23a.44.44,0,0,0-.11-.28.36.36,0,0,0-.29-.14.39.39,0,0,0-.22.07.41.41,0,0,0-.15.18c-.08.19-.2.43-.36.73a6.71,6.71,0,0,1-.56.89,4.32,4.32,0,0,1-.71.75,1.23,1.23,0,0,1-.79.32.59.59,0,0,1-.36-.1.65.65,0,0,1-.21-.28,1.5,1.5,0,0,1-.1-.41,4.34,4.34,0,0,1,0-.49c0-.14,0-.28,0-.43l0-.46,0-.42c0-.13,0-.24,0-.34a1.81,1.81,0,0,0-.27-1,.91.91,0,0,0-.82-.41,1.26,1.26,0,0,0-.59.17,2.12,2.12,0,0,0-.62.54q-.31.39-.59.82t-.54.87q-.25.43-.48.86t-.39.78c0-.21,0-.47.07-.77M55,18a.36.36,0,0,1-.26.11A.34.34,0,0,1,54.5,18a.35.35,0,0,1-.11-.26.37.37,0,0,1,.11-.26.34.34,0,0,1,.25-.11.36.36,0,0,1,.26.11.36.36,0,0,1,.11.26A.35.35,0,0,1,55,18m-.89,7a2.39,2.39,0,0,0,.37.81,1.9,1.9,0,0,0,.61.55,1.68,1.68,0,0,0,.84.2,1.61,1.61,0,0,0,.73-.18,3.21,3.21,0,0,0,.69-.48,5.37,5.37,0,0,0,.62-.67q.29-.37.54-.75c.16-.25.31-.49.44-.73l.32-.6a.37.37,0,0,0,0-.18.42.42,0,0,0-.11-.28.36.36,0,0,0-.28-.13.39.39,0,0,0-.21.06.4.4,0,0,0-.15.17A13.62,13.62,0,0,1,57.9,24a7.66,7.66,0,0,1-.68.93,3.37,3.37,0,0,1-.65.6,1.1,1.1,0,0,1-.62.22,1.21,1.21,0,0,1-.38-.06.88.88,0,0,1-.37-.26,1.47,1.47,0,0,1-.29-.54,3.1,3.1,0,0,1-.11-.92c0-.28,0-.59,0-.92s0-.65.06-.95l.06-.77c0-.22,0-.34,0-.39a.42.42,0,0,0-.11-.28.33.33,0,0,0-.27-.12.39.39,0,0,0-.29.11.45.45,0,0,0-.13.26A24.84,24.84,0,0,0,54,24a3.94,3.94,0,0,0,.12,1m1.53-7.68a1,1,0,0,0-.21-.31,1,1,0,0,0-.69-.28,1,1,0,0,0-.38.07,1,1,0,0,0-.31.21,1,1,0,0,0-.21.31,1,1,0,0,0-.07.38,1,1,0,0,0,.28.69,1,1,0,0,0,1.37,0,1,1,0,0,0,.28-.69,1,1,0,0,0-.07-.38m-4.92-3a2.91,2.91,0,0,1,.15.71h-1a2.33,2.33,0,0,1,.36-.76c.12-.14.21-.21.28-.21s.16.09.23.26m-1.35,6.82q0-.53,0-1.32,0-1.41.09-2.39a13.34,13.34,0,0,1,.24-1.65h1.26a12,12,0,0,1-.1,1.48q-.1.81-.29,1.64t-.45,1.66a14.37,14.37,0,0,1-.58,1.53,8.29,8.29,0,0,1-.13-1m8-6a.42.42,0,0,0-.29-.1H51.68a5.4,5.4,0,0,0-.12-.71,2.11,2.11,0,0,0-.22-.56A1.13,1.13,0,0,0,51,13.4a.8.8,0,0,0-.46-.14,1,1,0,0,0-.51.14,1.48,1.48,0,0,0-.42.37,2.61,2.61,0,0,0-.33.56A4.86,4.86,0,0,0,49,15H45a.42.42,0,0,0-.29.1.38.38,0,0,0,0,.55.42.42,0,0,0,.29.1h3.82q-.11.54-.17,1.1T48.6,18c0,.35,0,.69,0,1s0,.6,0,.83a15,15,0,0,0,.21,2.61,8.26,8.26,0,0,0,.62,2.06,3.82,3.82,0,0,0,1,1.35,2,2,0,0,0,1.32.48,1.56,1.56,0,0,0,.79-.22,3.38,3.38,0,0,0,.7-.54,4.58,4.58,0,0,0,.58-.72q.26-.39.46-.75c.13-.24.24-.44.32-.62l.15-.34a.39.39,0,0,0,0-.15.42.42,0,0,0-.11-.28.37.37,0,0,0-.29-.13.38.38,0,0,0-.37.26,7.37,7.37,0,0,1-.35.72,8,8,0,0,1-.55.88,4.36,4.36,0,0,1-.68.75,1.13,1.13,0,0,1-.74.32,1.06,1.06,0,0,1-.6-.18,2.12,2.12,0,0,1-.51-.5,3.79,3.79,0,0,1-.43-.74,6.42,6.42,0,0,1-.33-.92,3.8,3.8,0,0,0,.38-.65q.21-.43.43-1T51,20.22q.21-.7.37-1.43t.26-1.48a10.92,10.92,0,0,0,.1-1.4v-.12h5.39a.42.42,0,0,0,.29-.1.38.38,0,0,0,0-.55M42.24,21l.06-.22a2,2,0,0,1,.1-.24l.1-.19c0-.05.06-.08.08-.08s0,0,.06.09a1.32,1.32,0,0,1,0,.2c0,.08,0,.16,0,.24s0,.15,0,.2Zm1.56.78h.33a.55.55,0,0,1,.4.1.45.45,0,0,1,.09.31,5.24,5.24,0,0,1-.11,1,5.44,5.44,0,0,0-.11,1.07,2.61,2.61,0,0,0,.15.91,2,2,0,0,0,.4.68,1.69,1.69,0,0,0,.59.42,1.84,1.84,0,0,0,.72.15A2,2,0,0,0,47.39,26a4.25,4.25,0,0,0,.93-.82,7.11,7.11,0,0,0,.74-1l.57-1a.43.43,0,0,0,0-.19.41.41,0,0,0-.11-.27.37.37,0,0,0-.3-.12.41.41,0,0,0-.2.05.38.38,0,0,0-.15.15q-.18.36-.45.83a7,7,0,0,1-.61.9,4.07,4.07,0,0,1-.74.73,1.41,1.41,0,0,1-.86.3,1,1,0,0,1-.33-.06.9.9,0,0,1-.34-.21,1.16,1.16,0,0,1-.27-.4,1.65,1.65,0,0,1-.11-.64,4.89,4.89,0,0,1,0-.55c0-.19,0-.37.07-.56s.05-.37.07-.55a4.23,4.23,0,0,0,0-.52,1.09,1.09,0,0,0-.32-.88,1.4,1.4,0,0,0-.93-.27h-.69a4,4,0,0,0,0-.5,3,3,0,0,0-.12-.55,1.31,1.31,0,0,0-.24-.45.5.5,0,0,0-.4-.18.6.6,0,0,0-.43.22,2.55,2.55,0,0,0-.38.52,3.3,3.3,0,0,0-.27.61,1.69,1.69,0,0,0-.1.49.62.62,0,0,0,.11.39.62.62,0,0,0,.27.2,1.18,1.18,0,0,0,.36.08h.37q-.1.47-.16.7a2.78,2.78,0,0,1-.11.32l-.06.13a.18.18,0,0,0,0,.1.36.36,0,0,0,.13.28.41.41,0,0,0,.28.11.38.38,0,0,0,.37-.25.69.69,0,0,0,.05-.13l.1-.31c0-.13.08-.27.12-.44s.08-.35.11-.54h.38M43.07,23a.43.43,0,0,0-.11-.28.36.36,0,0,0-.29-.14.4.4,0,0,0-.22.07.4.4,0,0,0-.15.18l-.23.48c-.09.19-.2.38-.32.58s-.25.4-.4.6a4.2,4.2,0,0,1-.46.53,2.35,2.35,0,0,1-.49.37,1,1,0,0,1-.5.14.76.76,0,0,1-.62-.27,1.81,1.81,0,0,1-.33-.63,3.55,3.55,0,0,1-.14-.73q0-.37,0-.58a.43.43,0,0,0-.12-.27.35.35,0,0,0-.26-.12.41.41,0,0,0-.28.1.4.4,0,0,0-.14.25,3.43,3.43,0,0,1-.26,1,2.85,2.85,0,0,1-.41.68,1.61,1.61,0,0,1-.48.4,1,1,0,0,1-.44.13.85.85,0,0,1-.45-.11.81.81,0,0,1-.29-.28,1.15,1.15,0,0,1-.15-.38,2,2,0,0,1,0-.41,2.82,2.82,0,0,1,.21-1.13,2.62,2.62,0,0,1,.52-.8,2,2,0,0,1,.68-.47,1.88,1.88,0,0,1,.7-.15,1.52,1.52,0,0,1,.4,0,1.69,1.69,0,0,1,.3.11l.2.12.1.08a.38.38,0,0,0,.29.12.37.37,0,0,0,.28-.12.4.4,0,0,0,.12-.28.45.45,0,0,0-.12-.29l-.12-.1a1.82,1.82,0,0,0-.3-.2,2.94,2.94,0,0,0-.47-.2,1.93,1.93,0,0,0-.61-.09,2.69,2.69,0,0,0-1,.21,3,3,0,0,0-1,.65,3.39,3.39,0,0,0-.72,1.07,3.63,3.63,0,0,0-.28,1.48,2.37,2.37,0,0,0,.12.77,1.92,1.92,0,0,0,.35.62,1.55,1.55,0,0,0,.54.41,1.66,1.66,0,0,0,1.71-.21,3.14,3.14,0,0,0,.86-1,2.31,2.31,0,0,0,.61,1,1.45,1.45,0,0,0,1,.4,1.74,1.74,0,0,0,.83-.21,3.39,3.39,0,0,0,.73-.53A4.92,4.92,0,0,0,42,24.9q.28-.39.48-.74c.14-.24.25-.45.34-.63l.18-.36a.39.39,0,0,0,0-.15M31.13,13.91q-.17.85-.3,1.76t-.21,1.86q-.08,1-.08,1.91T30.61,21a13.33,13.33,0,0,0,.19,1.52,9,9,0,0,0,.36,1.37,4.88,4.88,0,0,0,.57,1.14,3.37,3.37,0,0,0,.82.84,2.61,2.61,0,0,0,1.09.44,1.18,1.18,0,0,0,.27,0,.28.28,0,0,0,.22-.12.42.42,0,0,0,.09-.27.55.55,0,0,0-.08-.28.28.28,0,0,0-.22-.15,1.88,1.88,0,0,1-1-.29,2.52,2.52,0,0,1-.72-.71,4.42,4.42,0,0,1-.51-1,8.11,8.11,0,0,1-.33-1.25,12.74,12.74,0,0,1-.17-1.39q-.05-.72-.05-1.43,0-.45,0-.9c0-.3,0-.58,0-.85q.06-.89.19-1.79t.31-1.72q.17-.82.35-1.54t.33-1.25q.15-.53.25-.84l.1-.32a.46.46,0,0,0,0-.15.47.47,0,0,0-.09-.28.28.28,0,0,0-.24-.12.29.29,0,0,0-.23.12l-.25.37q-.24.34-.65,1t-1,1.8q-.57,1.09-1.25,2.62-.48,1.07-.94,2.28t-.87,2.37q-.41,1.17-.75,2.2L26,24.3q-.12-.63-.26-1.42l-.3-1.64-.32-1.76-.32-1.77L24.5,16q-.15-.81-.26-1.46.15-.82.23-1.49a10.78,10.78,0,0,0,.08-1.19,3.72,3.72,0,0,0-.06-.75,1.37,1.37,0,0,0-.15-.43.45.45,0,0,0-.2-.19.54.54,0,0,0-.19,0,.67.67,0,0,0-.22,0,.42.42,0,0,0-.21.18,1.28,1.28,0,0,0-.15.43,3.73,3.73,0,0,0-.06.75q0,.44.06,1.11t.21,1.61l-.34,1.3q-.16.65-.34,1.2-.57,1.86-1.13,3.22a18,18,0,0,1-1.14,2.33,8.45,8.45,0,0,1-1.16,1.57,5.36,5.36,0,0,1-1.19.95,4.09,4.09,0,0,1-1.23.47,6.5,6.5,0,0,1-1.28.12,3.6,3.6,0,0,1-.82-.1,4.1,4.1,0,0,1-.86-.31,4.24,4.24,0,0,1-.83-.53,3.57,3.57,0,0,1-.7-.76,3.89,3.89,0,0,1-.48-1,4,4,0,0,1-.18-1.24,3.3,3.3,0,0,1,.24-1.26,3.2,3.2,0,0,1,.64-1,2.85,2.85,0,0,1,2.08-.88,3,3,0,0,1,1.12.18,3.12,3.12,0,0,1,.75.41,2,2,0,0,1,.42.41l.14.2a.31.31,0,0,0,.27.18.28.28,0,0,0,.24-.13.48.48,0,0,0,.09-.28.57.57,0,0,0-.05-.23l-.08-.12a1.72,1.72,0,0,0-.22-.29,4.56,4.56,0,0,0-.39-.38,2.86,2.86,0,0,0-.56-.38,3.57,3.57,0,0,0-.75-.28,3.76,3.76,0,0,0-1-.11,3.4,3.4,0,0,0-1.39.29,3.6,3.6,0,0,0-1.16.81,3.88,3.88,0,0,0-.79,1.25,4.23,4.23,0,0,0-.29,1.6,5.1,5.1,0,0,0,.21,1.5,4.62,4.62,0,0,0,.56,1.2,4.33,4.33,0,0,0,.81.92,5.1,5.1,0,0,0,1,.64,4.56,4.56,0,0,0,1,.38,4.05,4.05,0,0,0,1,.12,6.46,6.46,0,0,0,1.64-.2,4.83,4.83,0,0,0,1.49-.68,6.53,6.53,0,0,0,1.36-1.26,11.38,11.38,0,0,0,1.26-1.94,22.81,22.81,0,0,0,1.19-2.72q.58-1.56,1.16-3.59.17,1,.37,2.06l.39,2.14.37,2,.31,1.72.22,1.19.08.46a.45.45,0,0,0,.11.23.26.26,0,0,0,.2.09c.15,0,.25-.09.31-.27l.14-.47c.09-.3.22-.71.38-1.21s.35-1.09.57-1.75.46-1.35.71-2.07.53-1.45.81-2.18.57-1.43.86-2.08.67-1.49,1-2.12.58-1.17.83-1.62q-.18.73-.35,1.58"/><path class="cls-2" d="M118.72,24.43q0-.46.08-.93t.07-.87q0-.41,0-.6a2.64,2.64,0,0,0,0-.5,1.76,1.76,0,0,0-.15-.45.87.87,0,0,0-.27-.33.68.68,0,0,0-.42-.12,1.13,1.13,0,0,0-.83.54,7.71,7.71,0,0,0-.9,1.69.47.47,0,0,0,0,.16.42.42,0,0,0,.11.28.36.36,0,0,0,.29.12.43.43,0,0,0,.22-.06.39.39,0,0,0,.16-.18,8.4,8.4,0,0,1,.63-1.31c.16-.25.28-.38.34-.4a.49.49,0,0,1,.08.3c0,.16,0,.34,0,.51s0,.31,0,.51,0,.42-.05.65l-.06.7q0,.35-.06.66l-.05.53c0,.15,0,.25,0,.3a.72.72,0,0,0,.19.53.67.67,0,0,0,.49.19.73.73,0,0,0,.44-.16,1.61,1.61,0,0,0,.43-.61q.11-.24.29-.6l.4-.76q.22-.4.47-.8t.49-.73a3.6,3.6,0,0,1,.46-.52.62.62,0,0,1,.39-.2.28.28,0,0,1,.19.12.74.74,0,0,1,.11.47c0,.14,0,.28,0,.43s0,.3,0,.45,0,.29,0,.43,0,.26,0,.36a4.79,4.79,0,0,0,.06.75,2,2,0,0,0,.23.68,1.34,1.34,0,0,0,.47.49,1.43,1.43,0,0,0,.78.19,1.66,1.66,0,0,0,.81-.21,3.5,3.5,0,0,0,.72-.54,4.91,4.91,0,0,0,.61-.72q.28-.39.48-.74c.14-.23.25-.44.33-.62l.17-.35a.39.39,0,0,0,0-.15.44.44,0,0,0-.11-.28.36.36,0,0,0-.29-.14.4.4,0,0,0-.22.07.41.41,0,0,0-.15.18q-.12.28-.36.73a6.93,6.93,0,0,1-.56.89,4.32,4.32,0,0,1-.71.75,1.23,1.23,0,0,1-.79.32.6.6,0,0,1-.36-.1.65.65,0,0,1-.21-.28,1.46,1.46,0,0,1-.1-.41,4.34,4.34,0,0,1,0-.49c0-.14,0-.28,0-.43l0-.46c0-.15,0-.29,0-.42s0-.24,0-.34a1.81,1.81,0,0,0-.27-1,.91.91,0,0,0-.82-.41,1.26,1.26,0,0,0-.59.17,2.11,2.11,0,0,0-.62.54q-.31.39-.59.82t-.54.87q-.25.43-.48.86t-.39.78C118.67,25,118.7,24.74,118.72,24.43Z"/><path class="cls-2" d="M112.74,18a.36.36,0,0,1-.26.11.34.34,0,0,1-.25-.11.35.35,0,0,1-.11-.26.37.37,0,0,1,.11-.26.34.34,0,0,1,.25-.11.36.36,0,0,1,.26.11.36.36,0,0,1,.11.26A.34.34,0,0,1,112.74,18Z"/><path class="cls-2" d="M111.85,25a2.41,2.41,0,0,0,.37.81,1.9,1.9,0,0,0,.61.55,1.68,1.68,0,0,0,.84.2,1.61,1.61,0,0,0,.73-.18,3.18,3.18,0,0,0,.69-.48,5.29,5.29,0,0,0,.62-.67q.29-.37.54-.75c.16-.25.31-.49.44-.73l.32-.6a.37.37,0,0,0,0-.18.42.42,0,0,0-.11-.28.36.36,0,0,0-.28-.13.4.4,0,0,0-.36.23q-.33.67-.67,1.21A7.66,7.66,0,0,1,115,25a3.43,3.43,0,0,1-.65.6,1.11,1.11,0,0,1-.62.22,1.21,1.21,0,0,1-.38-.06.88.88,0,0,1-.37-.26,1.46,1.46,0,0,1-.29-.54,3.1,3.1,0,0,1-.11-.92c0-.28,0-.59,0-.92s0-.65.06-.95l.06-.77c0-.22,0-.34,0-.39a.42.42,0,0,0-.11-.28.34.34,0,0,0-.27-.12.39.39,0,0,0-.29.11.45.45,0,0,0-.13.26,24.83,24.83,0,0,0-.19,3.08A4,4,0,0,0,111.85,25Z"/><path class="cls-2" d="M113.38,17.35a1,1,0,0,0-.21-.31,1,1,0,0,0-.31-.21,1,1,0,0,0-.75,0,1,1,0,0,0-.59.9,1,1,0,0,0,.28.69,1,1,0,0,0,1.37,0,1,1,0,0,0,.28-.69A1,1,0,0,0,113.38,17.35Z"/><path class="cls-2" d="M107,23.88a2.38,2.38,0,0,1,0-.41,3.37,3.37,0,0,1,.06-.63,2.16,2.16,0,0,1,.19-.57,1.24,1.24,0,0,1,.33-.42.76.76,0,0,1,.49-.16.5.5,0,0,1,.37.17.68.68,0,0,1,.16.49,1.62,1.62,0,0,1-.11.57,2.19,2.19,0,0,1-.3.54,2.51,2.51,0,0,1-.46.47,2.58,2.58,0,0,1-.6.35C107.08,24.16,107,24,107,23.88Z"/><path class="cls-2" d="M108.21,24.5a3.48,3.48,0,0,0,.62-.61,2.78,2.78,0,0,0,.41-.72,2.29,2.29,0,0,0,.15-.83,1.54,1.54,0,0,0-.12-.61,1.44,1.44,0,0,0-.31-.46,1.39,1.39,0,0,0-.43-.29,1.22,1.22,0,0,0-.48-.1,1.53,1.53,0,0,0-.76.19,1.85,1.85,0,0,0-.6.54,2.54,2.54,0,0,0-.38.81,3.62,3.62,0,0,0-.13,1,3.91,3.91,0,0,0,.16,1.1,3,3,0,0,0,.49,1,2.47,2.47,0,0,0,2.05,1,2.85,2.85,0,0,0,2-.85,7.81,7.81,0,0,0,1.6-2.46l0-.08a.34.34,0,0,0,0-.09.42.42,0,0,0-.11-.28.37.37,0,0,0-.29-.13.39.39,0,0,0-.21.06.38.38,0,0,0-.15.18q-.22.5-.5,1a5.35,5.35,0,0,1-.63.91,3.14,3.14,0,0,1-.78.66,2,2,0,0,1-1.81.06,1.66,1.66,0,0,1-.57-.5A4.58,4.58,0,0,0,108.21,24.5Z"/><path class="cls-2" d="M101.61,17.06q.06-.91.16-1.75t.25-1.57a10.79,10.79,0,0,1,.33-1.27,3.71,3.71,0,0,1,.39-.85c.14-.21.28-.31.43-.31s.41.18.54.55a5.8,5.8,0,0,1,.2,1.82,10.33,10.33,0,0,1-.19,1.9,18.19,18.19,0,0,1-.49,2q-.31,1-.71,2t-.85,1.85q-.05-.58-.08-1.21t0-1.32Q101.55,18,101.61,17.06Z"/><path class="cls-2" d="M106.92,23a.43.43,0,0,0-.11-.29.37.37,0,0,0-.29-.13.39.39,0,0,0-.21.06.4.4,0,0,0-.15.17c-.09.19-.22.45-.39.77a8,8,0,0,1-.58.94,4.48,4.48,0,0,1-.72.8,1.25,1.25,0,0,1-.82.34,1.27,1.27,0,0,1-1.07-.78,7.1,7.1,0,0,1-.71-2.14q.6-1.1,1.12-2.25a23.79,23.79,0,0,0,.9-2.31,18.94,18.94,0,0,0,.61-2.3,11.56,11.56,0,0,0,.22-2.22,8.63,8.63,0,0,0-.11-1.47,3.52,3.52,0,0,0-.3-1,1.28,1.28,0,0,0-.47-.54,1.22,1.22,0,0,0-.63-.17,1.08,1.08,0,0,0-.8.36,3.37,3.37,0,0,0-.62,1,8.87,8.87,0,0,0-.47,1.45q-.2.83-.32,1.75T100.8,17q-.06,1-.06,1.87,0,.62,0,1.43t.14,1.66a15.39,15.39,0,0,0,.3,1.68,6.93,6.93,0,0,0,.52,1.47,3.32,3.32,0,0,0,.78,1,1.61,1.61,0,0,0,1.1.4,1.77,1.77,0,0,0,.78-.18,3.07,3.07,0,0,0,.69-.46,4.57,4.57,0,0,0,.6-.64,8,8,0,0,0,.5-.73c.15-.24.28-.48.4-.7l.29-.59A.5.5,0,0,0,106.92,23Z"/><path class="cls-2" d="M90.75,11.09a1.25,1.25,0,0,1-.26.22,3,3,0,0,1-.42.23,1.43,1.43,0,0,1-.46.13,2.43,2.43,0,0,1,.29-.25l.32-.22a1.87,1.87,0,0,1,.3-.15.68.68,0,0,1,.23-.05C90.81,11,90.81,11,90.75,11.09Z"/><path class="cls-2" d="M89.45,19l-.26,0h-.41a1.71,1.71,0,0,1-.46,0,.82.82,0,0,0,0-.11.69.69,0,0,1,0-.11l.08,0h.08l.33,0,.33.05.28.07.21.07Z"/><path class="cls-2" d="M90,12.32a3.17,3.17,0,0,0,.73-.32,1.86,1.86,0,0,0,.5-.43.79.79,0,0,0,.18-.49.74.74,0,0,0-.2-.53.63.63,0,0,0-.47-.21,1.32,1.32,0,0,0-.53.12,3,3,0,0,0-.53.31,3.47,3.47,0,0,0-.49.44,3.38,3.38,0,0,0-.39.51,4.25,4.25,0,0,1-.92,0l-1.05-.14-1.12-.15a8.78,8.78,0,0,0-1.13-.08,3.44,3.44,0,0,0-1.36.27,3.36,3.36,0,0,0-1.12.77,3.65,3.65,0,0,0-.75,1.19A4.1,4.1,0,0,0,81,15.08a3,3,0,0,0,.19,1.12,2.9,2.9,0,0,0,.46.81,2.49,2.49,0,0,0,.58.52,2.12,2.12,0,0,0,.55.26h.08a.31.31,0,0,0,.22-.11.4.4,0,0,0,.1-.29.48.48,0,0,0-.07-.25A.31.31,0,0,0,83,17l-.23-.1a1.62,1.62,0,0,1-.44-.31,2.13,2.13,0,0,1-.43-.59,2,2,0,0,1-.19-.93,3.15,3.15,0,0,1,.22-1.2,2.83,2.83,0,0,1,.61-.94,2.74,2.74,0,0,1,.92-.61,2.92,2.92,0,0,1,1.12-.22,6.7,6.7,0,0,1,1,.07l1,.15,1,.13a5.16,5.16,0,0,0,.9,0A8.79,8.79,0,0,0,88,13.77a9.09,9.09,0,0,0-.19,1.86c0,.46,0,.92,0,1.36s0,.87,0,1.29a.77.77,0,0,0-.27.6.86.86,0,0,0,0,.28.79.79,0,0,0,.15.25A21.91,21.91,0,0,1,87.33,22a7.18,7.18,0,0,1-.67,2,3.39,3.39,0,0,1-1.17,1.31,3.32,3.32,0,0,1-1.82.46A4.06,4.06,0,0,1,82,25.47a3.84,3.84,0,0,1-1.35-1,.28.28,0,0,0-.45,0,.46.46,0,0,0-.1.28.42.42,0,0,0,.1.3,4.15,4.15,0,0,0,.72.65,5,5,0,0,0,.84.48,4.6,4.6,0,0,0,1.89.4,4.22,4.22,0,0,0,1.52-.25,3.5,3.5,0,0,0,1.14-.7,4.12,4.12,0,0,0,.82-1.08,7.22,7.22,0,0,0,.56-1.4,12.77,12.77,0,0,0,.36-1.64q.13-.87.2-1.82l.27,0h.32a6.57,6.57,0,0,0,.79-.05,5.52,5.52,0,0,0,.89-.19,4.94,4.94,0,0,1,.7.53,8.42,8.42,0,0,1,.67.69q.33.38.68.84l.74,1,1.13,1.52a13.15,13.15,0,0,0,1,1.22,4.84,4.84,0,0,0,1,.82,2.07,2.07,0,0,0,1.06.3A2.35,2.35,0,0,0,98.94,26,3.49,3.49,0,0,0,100,24.65a.45.45,0,0,0,.05-.21.47.47,0,0,0-.09-.28.28.28,0,0,0-.24-.13.3.3,0,0,0-.28.18,2.84,2.84,0,0,1-.86,1,1.8,1.8,0,0,1-1.06.36,1.61,1.61,0,0,1-.88-.28,4.83,4.83,0,0,1-.89-.77,12.87,12.87,0,0,1-.94-1.14l-1-1.4q-.66-.89-1.23-1.62a7.13,7.13,0,0,0-1.18-1.21,6.88,6.88,0,0,0,1.29-.79,7.29,7.29,0,0,0,1-.94,7.93,7.93,0,0,0,.76-1.05q.33-.55.63-1.13t.58-1.16q.29-.59.62-1.16a5.35,5.35,0,0,1,.65-.89,5.93,5.93,0,0,1,.73-.69,3.68,3.68,0,0,1,.72-.45,1.65,1.65,0,0,1,.61-.17.31.31,0,0,0,.23-.13.46.46,0,0,0,.09-.29.37.37,0,0,0-.11-.28A.34.34,0,0,0,99,10a1.92,1.92,0,0,0-.81.2,4.22,4.22,0,0,0-.86.54,6.11,6.11,0,0,0-.82.8,7,7,0,0,0-.71,1,11.18,11.18,0,0,0-.58,1.08q-.27.59-.58,1.19t-.68,1.2a7.61,7.61,0,0,1-.83,1.12A6.1,6.1,0,0,1,92,18a5.36,5.36,0,0,1-1.4.68,5.58,5.58,0,0,0-1.13-.5,3.46,3.46,0,0,0-1-.17h-.14q0-.58,0-1.16t0-1.16q0-.62.08-1.12a7.38,7.38,0,0,1,.15-.89,5.46,5.46,0,0,1,.21-.68,4,4,0,0,1,.25-.52A3.83,3.83,0,0,0,90,12.32Z"/><path class="cls-2" d="M76.5,23a.44.44,0,0,0-.11-.28.36.36,0,0,0-.29-.14.4.4,0,0,0-.22.07.42.42,0,0,0-.15.18l-.23.48c-.09.19-.2.38-.32.58s-.25.4-.4.6a4.11,4.11,0,0,1-.46.53,2.38,2.38,0,0,1-.49.37,1,1,0,0,1-.51.14.76.76,0,0,1-.62-.27,1.79,1.79,0,0,1-.33-.63,3.62,3.62,0,0,1-.14-.73q0-.37,0-.58a.43.43,0,0,0-.12-.27.35.35,0,0,0-.26-.12.41.41,0,0,0-.28.1.4.4,0,0,0-.14.25,3.4,3.4,0,0,1-.26,1,2.88,2.88,0,0,1-.42.68,1.62,1.62,0,0,1-.48.4,1,1,0,0,1-.44.13.86.86,0,0,1-.45-.11.83.83,0,0,1-.29-.28,1.17,1.17,0,0,1-.15-.38,2.11,2.11,0,0,1,0-.41,2.83,2.83,0,0,1,.21-1.13,2.6,2.6,0,0,1,.52-.8,2,2,0,0,1,.68-.47,1.88,1.88,0,0,1,.7-.15,1.52,1.52,0,0,1,.4,0,1.69,1.69,0,0,1,.3.11l.2.12.1.08a.39.39,0,0,0,.29.12.37.37,0,0,0,.28-.12.4.4,0,0,0,.12-.28.45.45,0,0,0-.12-.29l-.12-.1a1.82,1.82,0,0,0-.3-.2,3,3,0,0,0-.47-.2,1.92,1.92,0,0,0-.61-.09,2.68,2.68,0,0,0-1,.21,3,3,0,0,0-1,.65,3.41,3.41,0,0,0-.72,1.07,3.63,3.63,0,0,0-.28,1.48,2.34,2.34,0,0,0,.12.77,1.9,1.9,0,0,0,.35.62,1.53,1.53,0,0,0,.54.41,1.66,1.66,0,0,0,1.71-.21,3.15,3.15,0,0,0,.86-1,2.32,2.32,0,0,0,.61,1,1.45,1.45,0,0,0,1,.4,1.74,1.74,0,0,0,.83-.21,3.36,3.36,0,0,0,.73-.53,4.86,4.86,0,0,0,.62-.71q.28-.39.48-.74c.14-.24.25-.45.34-.63l.18-.36A.39.39,0,0,0,76.5,23Z"/><path class="cls-2" d="M61,24.43c0-.31.05-.62.08-.93s.05-.6.07-.87,0-.47,0-.6a2.64,2.64,0,0,0,0-.5,1.8,1.8,0,0,0-.15-.45.88.88,0,0,0-.27-.33.68.68,0,0,0-.41-.12,1.13,1.13,0,0,0-.84.54,7.7,7.7,0,0,0-.9,1.69.47.47,0,0,0,0,.16.42.42,0,0,0,.11.28.36.36,0,0,0,.29.12.42.42,0,0,0,.22-.06.4.4,0,0,0,.16-.18,8.42,8.42,0,0,1,.63-1.31c.16-.25.28-.38.34-.4a.49.49,0,0,1,.08.3c0,.16,0,.34,0,.51s0,.31,0,.51,0,.42-.05.65l-.06.7q0,.35-.06.66c0,.2,0,.38-.05.53s0,.25,0,.3a.72.72,0,0,0,.19.53.67.67,0,0,0,.49.19.73.73,0,0,0,.44-.16,1.6,1.6,0,0,0,.42-.61q.11-.24.29-.6l.4-.76q.22-.4.47-.8t.49-.73a3.66,3.66,0,0,1,.46-.52.62.62,0,0,1,.39-.2.29.29,0,0,1,.19.12.74.74,0,0,1,.11.47c0,.14,0,.28,0,.43s0,.3,0,.45,0,.29,0,.43,0,.26,0,.36a4.79,4.79,0,0,0,.06.75,2,2,0,0,0,.23.68,1.36,1.36,0,0,0,.47.49,1.43,1.43,0,0,0,.78.19,1.66,1.66,0,0,0,.81-.21,3.5,3.5,0,0,0,.72-.54,4.92,4.92,0,0,0,.61-.72q.28-.39.48-.74t.34-.62l.17-.35A.39.39,0,0,0,69,23a.44.44,0,0,0-.11-.28.36.36,0,0,0-.29-.14.39.39,0,0,0-.22.07.41.41,0,0,0-.15.18c-.08.19-.2.43-.36.73a6.71,6.71,0,0,1-.56.89,4.32,4.32,0,0,1-.71.75,1.23,1.23,0,0,1-.79.32.59.59,0,0,1-.36-.1.65.65,0,0,1-.21-.28,1.5,1.5,0,0,1-.1-.41,4.34,4.34,0,0,1,0-.49c0-.14,0-.28,0-.43l0-.46,0-.42c0-.13,0-.24,0-.34a1.81,1.81,0,0,0-.27-1,.91.91,0,0,0-.82-.41,1.26,1.26,0,0,0-.59.17,2.12,2.12,0,0,0-.62.54q-.31.39-.59.82t-.54.87q-.25.43-.48.86t-.39.78C60.94,25,61,24.74,61,24.43Z"/><path class="cls-2" d="M55,18a.36.36,0,0,1-.26.11A.34.34,0,0,1,54.5,18a.35.35,0,0,1-.11-.26.37.37,0,0,1,.11-.26.34.34,0,0,1,.25-.11.36.36,0,0,1,.26.11.36.36,0,0,1,.11.26A.35.35,0,0,1,55,18Z"/><path class="cls-2" d="M54.12,25a2.39,2.39,0,0,0,.37.81,1.9,1.9,0,0,0,.61.55,1.68,1.68,0,0,0,.84.2,1.61,1.61,0,0,0,.73-.18,3.21,3.21,0,0,0,.69-.48,5.37,5.37,0,0,0,.62-.67q.29-.37.54-.75c.16-.25.31-.49.44-.73l.32-.6a.37.37,0,0,0,0-.18.42.42,0,0,0-.11-.28.36.36,0,0,0-.28-.13.39.39,0,0,0-.21.06.4.4,0,0,0-.15.17A13.62,13.62,0,0,1,57.9,24a7.66,7.66,0,0,1-.68.93,3.37,3.37,0,0,1-.65.6,1.1,1.1,0,0,1-.62.22,1.21,1.21,0,0,1-.38-.06.88.88,0,0,1-.37-.26,1.47,1.47,0,0,1-.29-.54,3.1,3.1,0,0,1-.11-.92c0-.28,0-.59,0-.92s0-.65.06-.95l.06-.77c0-.22,0-.34,0-.39a.42.42,0,0,0-.11-.28.33.33,0,0,0-.27-.12.39.39,0,0,0-.29.11.45.45,0,0,0-.13.26A24.84,24.84,0,0,0,54,24,3.94,3.94,0,0,0,54.12,25Z"/><path class="cls-2" d="M55.65,17.35a1,1,0,0,0-.21-.31,1,1,0,0,0-.69-.28,1,1,0,0,0-.38.07,1,1,0,0,0-.31.21,1,1,0,0,0-.21.31,1,1,0,0,0-.07.38,1,1,0,0,0,.28.69,1,1,0,0,0,1.37,0,1,1,0,0,0,.28-.69A1,1,0,0,0,55.65,17.35Z"/><path class="cls-2" d="M50.73,14.33a2.91,2.91,0,0,1,.15.71h-1a2.33,2.33,0,0,1,.36-.76c.12-.14.21-.21.28-.21S50.66,14.16,50.73,14.33Z"/><path class="cls-2" d="M49.38,21.15q0-.53,0-1.32,0-1.41.09-2.39a13.34,13.34,0,0,1,.24-1.65h1.26a12,12,0,0,1-.1,1.48q-.1.81-.29,1.64t-.45,1.66a14.37,14.37,0,0,1-.58,1.53A8.29,8.29,0,0,1,49.38,21.15Z"/><path class="cls-2" d="M57.4,15.14a.42.42,0,0,0-.29-.1H51.68a5.4,5.4,0,0,0-.12-.71,2.11,2.11,0,0,0-.22-.56A1.13,1.13,0,0,0,51,13.4a.8.8,0,0,0-.46-.14,1,1,0,0,0-.51.14,1.48,1.48,0,0,0-.42.37,2.61,2.61,0,0,0-.33.56A4.86,4.86,0,0,0,49,15H45a.42.42,0,0,0-.29.1.38.38,0,0,0,0,.55.42.42,0,0,0,.29.1h3.82q-.11.54-.17,1.1T48.6,18c0,.35,0,.69,0,1s0,.6,0,.83a15,15,0,0,0,.21,2.61,8.26,8.26,0,0,0,.62,2.06,3.82,3.82,0,0,0,1,1.35,2,2,0,0,0,1.32.48,1.56,1.56,0,0,0,.79-.22,3.38,3.38,0,0,0,.7-.54,4.58,4.58,0,0,0,.58-.72q.26-.39.46-.75c.13-.24.24-.44.32-.62l.15-.34a.39.39,0,0,0,0-.15.42.42,0,0,0-.11-.28.37.37,0,0,0-.29-.13.38.38,0,0,0-.37.26,7.37,7.37,0,0,1-.35.72,8,8,0,0,1-.55.88,4.36,4.36,0,0,1-.68.75,1.13,1.13,0,0,1-.74.32,1.06,1.06,0,0,1-.6-.18,2.12,2.12,0,0,1-.51-.5,3.79,3.79,0,0,1-.43-.74,6.42,6.42,0,0,1-.33-.92,3.8,3.8,0,0,0,.38-.65q.21-.43.43-1T51,20.22q.21-.7.37-1.43t.26-1.48a10.92,10.92,0,0,0,.1-1.4v-.12h5.39a.42.42,0,0,0,.29-.1.38.38,0,0,0,0-.55Z"/><path class="cls-2" d="M42.24,21l.06-.22a2,2,0,0,1,.1-.24l.1-.19c0-.05.06-.08.08-.08s0,0,.06.09a1.32,1.32,0,0,1,0,.2c0,.08,0,.16,0,.24s0,.15,0,.2Z"/><path class="cls-2" d="M43.79,21.74h.33a.55.55,0,0,1,.4.1.45.45,0,0,1,.09.31,5.24,5.24,0,0,1-.11,1,5.44,5.44,0,0,0-.11,1.07,2.61,2.61,0,0,0,.15.91,2,2,0,0,0,.4.68,1.69,1.69,0,0,0,.59.42,1.84,1.84,0,0,0,.72.15A2,2,0,0,0,47.39,26a4.25,4.25,0,0,0,.93-.82,7.11,7.11,0,0,0,.74-1l.57-1a.43.43,0,0,0,0-.19.41.41,0,0,0-.11-.27.37.37,0,0,0-.3-.12.41.41,0,0,0-.2.05.38.38,0,0,0-.15.15q-.18.36-.45.83a7,7,0,0,1-.61.9,4.07,4.07,0,0,1-.74.73,1.41,1.41,0,0,1-.86.3,1,1,0,0,1-.33-.06.9.9,0,0,1-.34-.21,1.16,1.16,0,0,1-.27-.4,1.65,1.65,0,0,1-.11-.64,4.89,4.89,0,0,1,0-.55c0-.19,0-.37.07-.56s.05-.37.07-.55a4.23,4.23,0,0,0,0-.52,1.09,1.09,0,0,0-.32-.88,1.4,1.4,0,0,0-.93-.27h-.69a4,4,0,0,0,0-.5,3,3,0,0,0-.12-.55,1.31,1.31,0,0,0-.24-.45.5.5,0,0,0-.4-.18.6.6,0,0,0-.43.22,2.55,2.55,0,0,0-.38.52,3.3,3.3,0,0,0-.27.61,1.69,1.69,0,0,0-.1.49.62.62,0,0,0,.11.39.62.62,0,0,0,.27.2,1.18,1.18,0,0,0,.36.08h.37q-.1.47-.16.7a2.78,2.78,0,0,1-.11.32l-.06.13a.18.18,0,0,0,0,.1.36.36,0,0,0,.13.28.41.41,0,0,0,.28.11.38.38,0,0,0,.37-.25.69.69,0,0,0,.05-.13l.1-.31c0-.13.08-.27.12-.44s.08-.35.11-.54Z"/><path class="cls-2" d="M43.07,23a.43.43,0,0,0-.11-.28.36.36,0,0,0-.29-.14.4.4,0,0,0-.22.07.4.4,0,0,0-.15.18l-.23.48c-.09.19-.2.38-.32.58s-.25.4-.4.6a4.2,4.2,0,0,1-.46.53,2.35,2.35,0,0,1-.49.37,1,1,0,0,1-.5.14.76.76,0,0,1-.62-.27,1.81,1.81,0,0,1-.33-.63,3.55,3.55,0,0,1-.14-.73q0-.37,0-.58a.43.43,0,0,0-.12-.27.35.35,0,0,0-.26-.12.41.41,0,0,0-.28.1.4.4,0,0,0-.14.25,3.43,3.43,0,0,1-.26,1,2.85,2.85,0,0,1-.41.68,1.61,1.61,0,0,1-.48.4,1,1,0,0,1-.44.13.85.85,0,0,1-.45-.11.81.81,0,0,1-.29-.28,1.15,1.15,0,0,1-.15-.38,2,2,0,0,1,0-.41,2.82,2.82,0,0,1,.21-1.13,2.62,2.62,0,0,1,.52-.8,2,2,0,0,1,.68-.47,1.88,1.88,0,0,1,.7-.15,1.52,1.52,0,0,1,.4,0,1.69,1.69,0,0,1,.3.11l.2.12.1.08a.38.38,0,0,0,.29.12.37.37,0,0,0,.28-.12.4.4,0,0,0,.12-.28.45.45,0,0,0-.12-.29l-.12-.1a1.82,1.82,0,0,0-.3-.2,2.94,2.94,0,0,0-.47-.2,1.93,1.93,0,0,0-.61-.09,2.69,2.69,0,0,0-1,.21,3,3,0,0,0-1,.65,3.39,3.39,0,0,0-.72,1.07,3.63,3.63,0,0,0-.28,1.48,2.37,2.37,0,0,0,.12.77,1.92,1.92,0,0,0,.35.62,1.55,1.55,0,0,0,.54.41,1.66,1.66,0,0,0,1.71-.21,3.14,3.14,0,0,0,.86-1,2.31,2.31,0,0,0,.61,1,1.45,1.45,0,0,0,1,.4,1.74,1.74,0,0,0,.83-.21,3.39,3.39,0,0,0,.73-.53A4.92,4.92,0,0,0,42,24.9q.28-.39.48-.74c.14-.24.25-.45.34-.63l.18-.36A.39.39,0,0,0,43.07,23Z"/><path class="cls-2" d="M31.13,13.91q-.17.85-.3,1.76t-.21,1.86q-.08,1-.08,1.91T30.61,21a13.33,13.33,0,0,0,.19,1.52,9,9,0,0,0,.36,1.37,4.88,4.88,0,0,0,.57,1.14,3.37,3.37,0,0,0,.82.84,2.61,2.61,0,0,0,1.09.44,1.18,1.18,0,0,0,.27,0,.28.28,0,0,0,.22-.12.42.42,0,0,0,.09-.27.55.55,0,0,0-.08-.28.28.28,0,0,0-.22-.15,1.88,1.88,0,0,1-1-.29,2.52,2.52,0,0,1-.72-.71,4.42,4.42,0,0,1-.51-1,8.11,8.11,0,0,1-.33-1.25,12.74,12.74,0,0,1-.17-1.39q-.05-.72-.05-1.43,0-.45,0-.9c0-.3,0-.58,0-.85q.06-.89.19-1.79t.31-1.72q.17-.82.35-1.54t.33-1.25q.15-.53.25-.84l.1-.32a.46.46,0,0,0,0-.15.47.47,0,0,0-.09-.28.28.28,0,0,0-.24-.12.29.29,0,0,0-.23.12l-.25.37q-.24.34-.65,1t-1,1.8q-.57,1.09-1.25,2.62-.48,1.07-.94,2.28t-.87,2.37q-.41,1.17-.75,2.2L26,24.3q-.12-.63-.26-1.42l-.3-1.64-.32-1.76-.32-1.77L24.5,16q-.15-.81-.26-1.46.15-.82.23-1.49a10.78,10.78,0,0,0,.08-1.19,3.72,3.72,0,0,0-.06-.75,1.37,1.37,0,0,0-.15-.43.45.45,0,0,0-.2-.19.54.54,0,0,0-.19,0,.67.67,0,0,0-.22,0,.42.42,0,0,0-.21.18,1.28,1.28,0,0,0-.15.43,3.73,3.73,0,0,0-.06.75q0,.44.06,1.11t.21,1.61l-.34,1.3q-.16.65-.34,1.2-.57,1.86-1.13,3.22a18,18,0,0,1-1.14,2.33,8.45,8.45,0,0,1-1.16,1.57,5.36,5.36,0,0,1-1.19.95,4.09,4.09,0,0,1-1.23.47,6.5,6.5,0,0,1-1.28.12,3.6,3.6,0,0,1-.82-.1,4.1,4.1,0,0,1-.86-.31,4.24,4.24,0,0,1-.83-.53,3.57,3.57,0,0,1-.7-.76,3.89,3.89,0,0,1-.48-1,4,4,0,0,1-.18-1.24,3.3,3.3,0,0,1,.24-1.26,3.2,3.2,0,0,1,.64-1,2.85,2.85,0,0,1,2.08-.88,3,3,0,0,1,1.12.18,3.12,3.12,0,0,1,.75.41,2,2,0,0,1,.42.41l.14.2a.31.31,0,0,0,.27.18.28.28,0,0,0,.24-.13.48.48,0,0,0,.09-.28.57.57,0,0,0-.05-.23l-.08-.12a1.72,1.72,0,0,0-.22-.29,4.56,4.56,0,0,0-.39-.38,2.86,2.86,0,0,0-.56-.38,3.57,3.57,0,0,0-.75-.28,3.76,3.76,0,0,0-1-.11,3.4,3.4,0,0,0-1.39.29,3.6,3.6,0,0,0-1.16.81,3.88,3.88,0,0,0-.79,1.25,4.23,4.23,0,0,0-.29,1.6,5.1,5.1,0,0,0,.21,1.5,4.62,4.62,0,0,0,.56,1.2,4.33,4.33,0,0,0,.81.92,5.1,5.1,0,0,0,1,.64,4.56,4.56,0,0,0,1,.38,4.05,4.05,0,0,0,1,.12,6.46,6.46,0,0,0,1.64-.2,4.83,4.83,0,0,0,1.49-.68,6.53,6.53,0,0,0,1.36-1.26,11.38,11.38,0,0,0,1.26-1.94,22.81,22.81,0,0,0,1.19-2.72q.58-1.56,1.16-3.59.17,1,.37,2.06l.39,2.14.37,2,.31,1.72.22,1.19.08.46a.45.45,0,0,0,.11.23.26.26,0,0,0,.2.09c.15,0,.25-.09.31-.27l.14-.47c.09-.3.22-.71.38-1.21s.35-1.09.57-1.75.46-1.35.71-2.07.53-1.45.81-2.18.57-1.43.86-2.08.67-1.49,1-2.12.58-1.17.83-1.62Q31.31,13.06,31.13,13.91Z"/><rect class="cls-3" x="11.22" y="9.67" width="115.57" height="17.01"/></svg>
